<?xml version="1.0" encoding="UTF-8" standalone="no"?>
<!-- Generator: Adobe Illustrator 19.0.0, SVG Export Plug-In . SVG Version: 6.00 Build 0)  -->

<svg
   xmlns:dc="http://purl.org/dc/elements/1.1/"
   xmlns:cc="http://creativecommons.org/ns#"
   xmlns:rdf="http://www.w3.org/1999/02/22-rdf-syntax-ns#"
   xmlns:svg="http://www.w3.org/2000/svg"
   xmlns="http://www.w3.org/2000/svg"
   xmlns:sodipodi="http://sodipodi.sourceforge.net/DTD/sodipodi-0.dtd"
   xmlns:inkscape="http://www.inkscape.org/namespaces/inkscape"
   version="1.1"
   id="Capa_1"
   x="0px"
   y="0px"
   viewBox="0 0 99.999998 99.999998"
   xml:space="preserve"
   sodipodi:docname="appointment.svg"
   width="100"
   height="100"
   inkscape:version="0.92+devel unknown"><metadata
     id="metadata60"><rdf:RDF><cc:Work
         rdf:about=""><dc:format>image/svg+xml</dc:format><dc:type
           rdf:resource="http://purl.org/dc/dcmitype/StillImage" /><dc:title></dc:title></cc:Work></rdf:RDF></metadata><defs
     id="defs58" /><sodipodi:namedview
     pagecolor="#ffffff"
     bordercolor="#666666"
     inkscape:document-rotation="0"
     borderopacity="1"
     objecttolerance="10"
     gridtolerance="10"
     guidetolerance="10"
     inkscape:pageopacity="0"
     inkscape:pageshadow="2"
     inkscape:window-width="1920"
     inkscape:window-height="1003"
     id="namedview56"
     showgrid="false"
     fit-margin-top="0"
     fit-margin-left="0"
     fit-margin-right="0"
     fit-margin-bottom="0"
     inkscape:zoom="2.9523848"
     inkscape:cx="96.293568"
     inkscape:cy="1.4076579"
     inkscape:window-x="0"
     inkscape:window-y="0"
     inkscape:window-maximized="1"
     inkscape:current-layer="Capa_1" /><circle
     style="fill:#f5f5f5;fill-opacity:1;stroke-width:0.15284213"
     id="path4319"
     cx="50"
     cy="50"
     r="50" /><g
     id="g23"
     transform="matrix(0.15001088,0,0,0.15001088,19.999999,19.999999)"><g
       id="Guides_For_Artboard_9_" /><g
       id="Artwork_9_" /><g
       id="Layer_2_9_"><g
         id="g20"><path
           style="fill:#f7f1e6"
           d="m 303.065,68.767 c -16.316,0 -29.541,-13.226 -29.541,-29.543 V 1.105 L 308.444,34.92 273.524,0 H 199.985 87.223 C 70.909,0 57.682,13.227 57.682,29.542 v 340.887 c 0,16.315 13.227,29.542 29.541,29.542 h 112.762 112.761 c 16.315,0 29.543,-13.227 29.543,-29.542 V 68.767 h -1.07 z m -155.467,2.716 c 0,-5.781 4.688,-10.468 10.468,-10.468 h 16.622 v -16.62 c 0,-5.782 4.688,-10.47 10.47,-10.47 h 0.954 6.047 c 5.785,0 10.472,4.688 10.472,10.47 v 16.621 h 16.62 c 5.783,0 10.47,4.687 10.47,10.468 v 7.004 c 0,5.781 -4.687,10.468 -10.47,10.468 h -16.62 v 16.623 c 0,5.783 -4.687,10.471 -10.472,10.471 h -6.047 -0.954 c -5.781,0 -10.47,-4.688 -10.47,-10.471 V 88.956 h -16.622 c -5.78,0 -10.468,-4.687 -10.468,-10.468 z M 96.96,145.371 c 0,-5.277 4.275,-9.555 9.553,-9.555 h 31.531 c 5.277,0 9.555,4.277 9.555,9.555 v 31.528 c 0,5.277 -4.277,9.555 -9.555,9.555 h -31.531 c -5.277,0 -9.553,-4.277 -9.553,-9.555 z m 210.533,174.75 H 103.931 c -2.661,0 -4.819,-2.158 -4.819,-4.82 0,-2.662 2.158,-4.819 4.819,-4.819 h 203.562 c 2.662,0 4.819,2.157 4.819,4.819 0,2.662 -2.157,4.82 -4.819,4.82 z m 0,-43.789 H 103.931 c -2.661,0 -4.819,-2.158 -4.819,-4.82 0,-2.661 2.158,-4.819 4.819,-4.819 h 203.562 c 2.662,0 4.819,2.158 4.819,4.819 0,2.662 -2.157,4.82 -4.819,4.82 z m 0,-45.902 H 103.931 c -2.661,0 -4.819,-2.157 -4.819,-4.819 0,-2.663 2.158,-4.82 4.819,-4.82 h 203.562 c 2.662,0 4.819,2.157 4.819,4.82 0,2.661 -2.157,4.819 -4.819,4.819 z m 0,-45.903 H 163.411 c -2.661,0 -4.82,-2.158 -4.82,-4.819 0,-2.662 2.159,-4.821 4.82,-4.821 h 144.082 c 2.662,0 4.819,2.159 4.819,4.821 0,2.661 -2.157,4.819 -4.819,4.819 z"
           id="path4"
           inkscape:connector-curvature="0" /><path
           style="fill:#e0dcd3"
           d="m 273.524,39.224 c 0,16.317 13.225,29.543 29.541,29.543 h 38.153 1.07 L 308.443,34.921 273.523,0.001 Z"
           id="path6"
           inkscape:connector-curvature="0" /><path
           style="fill:#dec8ae"
           d="m 106.512,186.454 h 31.531 c 5.277,0 9.555,-4.277 9.555,-9.555 v -31.528 c 0,-5.277 -4.277,-9.555 -9.555,-9.555 h -31.531 c -5.277,0 -9.553,4.277 -9.553,9.555 v 31.528 c 10e-4,5.278 4.276,9.555 9.553,9.555 z"
           id="path8"
           inkscape:connector-curvature="0" /><path
           style="fill:#dec8ae"
           d="M 307.493,174.887 H 163.411 c -2.661,0 -4.82,2.159 -4.82,4.821 0,2.661 2.159,4.819 4.82,4.819 h 144.082 c 2.662,0 4.819,-2.158 4.819,-4.819 0,-2.662 -2.157,-4.821 -4.819,-4.821 z"
           id="path10"
           inkscape:connector-curvature="0" /><path
           style="fill:#dec8ae"
           d="M 307.493,220.79 H 103.931 c -2.661,0 -4.819,2.157 -4.819,4.82 0,2.662 2.158,4.819 4.819,4.819 h 203.562 c 2.662,0 4.819,-2.157 4.819,-4.819 0,-2.663 -2.157,-4.82 -4.819,-4.82 z"
           id="path12"
           inkscape:connector-curvature="0" /><path
           style="fill:#dec8ae"
           d="M 307.493,266.692 H 103.931 c -2.661,0 -4.819,2.158 -4.819,4.819 0,2.662 2.158,4.82 4.819,4.82 h 203.562 c 2.662,0 4.819,-2.158 4.819,-4.82 0,-2.66 -2.157,-4.819 -4.819,-4.819 z"
           id="path14"
           inkscape:connector-curvature="0" /><path
           style="fill:#dec8ae"
           d="M 307.493,310.481 H 103.931 c -2.661,0 -4.819,2.157 -4.819,4.819 0,2.662 2.158,4.82 4.819,4.82 h 203.562 c 2.662,0 4.819,-2.158 4.819,-4.82 0,-2.662 -2.157,-4.819 -4.819,-4.819 z"
           id="path16"
           inkscape:connector-curvature="0" /><path
           style="fill:#d43d21"
           d="m 158.066,88.955 h 16.622 v 16.623 c 0,5.783 4.688,10.471 10.47,10.471 h 0.954 6.047 c 5.785,0 10.472,-4.688 10.472,-10.471 V 88.955 h 16.62 c 5.783,0 10.47,-4.687 10.47,-10.468 v -7.004 c 0,-5.781 -4.687,-10.468 -10.47,-10.468 h -16.62 v -16.62 c 0,-5.782 -4.687,-10.47 -10.472,-10.47 h -6.047 -0.954 c -5.781,0 -10.47,4.688 -10.47,10.47 v 16.621 h -16.622 c -5.78,0 -10.468,4.687 -10.468,10.468 v 7.004 c 0,5.781 4.688,10.467 10.468,10.467 z"
           id="path18"
           inkscape:connector-curvature="0" /></g></g></g><g
     id="g25"
     transform="translate(-57.221077,-33.104851)" /><g
     id="g27"
     transform="translate(-57.221077,-33.104851)" /><g
     id="g29"
     transform="translate(-57.221077,-33.104851)" /><g
     id="g31"
     transform="translate(-57.221077,-33.104851)" /><g
     id="g33"
     transform="translate(-57.221077,-33.104851)" /><g
     id="g35"
     transform="translate(-57.221077,-33.104851)" /><g
     id="g37"
     transform="translate(-57.221077,-33.104851)" /><g
     id="g39"
     transform="translate(-57.221077,-33.104851)" /><g
     id="g41"
     transform="translate(-57.221077,-33.104851)" /><g
     id="g43"
     transform="translate(-57.221077,-33.104851)" /><g
     id="g45"
     transform="translate(-57.221077,-33.104851)" /><g
     id="g47"
     transform="translate(-57.221077,-33.104851)" /><g
     id="g49"
     transform="translate(-57.221077,-33.104851)" /><g
     id="g51"
     transform="translate(-57.221077,-33.104851)" /><g
     id="g53"
     transform="translate(-57.221077,-33.104851)" /></svg>