<?xml version="1.0" encoding="UTF-8" standalone="no"?>
<!-- Generator: Adobe Illustrator 19.1.0, SVG Export Plug-In . SVG Version: 6.00 Build 0)  -->

<svg
   xmlns:dc="http://purl.org/dc/elements/1.1/"
   xmlns:cc="http://creativecommons.org/ns#"
   xmlns:rdf="http://www.w3.org/1999/02/22-rdf-syntax-ns#"
   xmlns:svg="http://www.w3.org/2000/svg"
   xmlns="http://www.w3.org/2000/svg"
   xmlns:sodipodi="http://sodipodi.sourceforge.net/DTD/sodipodi-0.dtd"
   xmlns:inkscape="http://www.inkscape.org/namespaces/inkscape"
   version="1.1"
   id="Capa_1"
   x="0px"
   y="0px"
   viewBox="0 0 26.421124 50.000001"
   xml:space="preserve"
   sodipodi:docname="arrow-list.svg"
   width="26.421124"
   height="50"
   inkscape:version="0.92.1 r15371"><metadata
     id="metadata41"><rdf:RDF><cc:Work
         rdf:about=""><dc:format>image/svg+xml</dc:format><dc:type
           rdf:resource="http://purl.org/dc/dcmitype/StillImage" /><dc:title></dc:title></cc:Work></rdf:RDF></metadata><defs
     id="defs39" /><sodipodi:namedview
     pagecolor="#ffffff"
     bordercolor="#666666"
     borderopacity="1"
     objecttolerance="10"
     gridtolerance="10"
     guidetolerance="10"
     inkscape:pageopacity="0"
     inkscape:pageshadow="2"
     inkscape:window-width="2736"
     inkscape:window-height="1699"
     id="namedview37"
     showgrid="false"
     fit-margin-top="0"
     fit-margin-left="0"
     fit-margin-right="0"
     fit-margin-bottom="0"
     inkscape:zoom="0.49457747"
     inkscape:cx="-559.35908"
     inkscape:cy="-344.50623"
     inkscape:window-x="-13"
     inkscape:window-y="-13"
     inkscape:window-maximized="1"
     inkscape:current-layer="Capa_1"
     inkscape:document-rotation="0" /><g
     id="g4"
     style="fill:#f4a535;fill-opacity:1"
     transform="matrix(-0.10478336,0,0,0.10478336,38.210615,0)"><path
       d="m 145.188,238.575 215.5,-215.5 c 5.3,-5.3 5.3,-13.8 0,-19.1 -5.3,-5.3 -13.8,-5.3 -19.1,0 l -225.1,225.1 c -5.3,5.3 -5.3,13.8 0,19.1 l 225.1,225 c 2.6,2.6 6.1,4 9.5,4 3.4,0 6.9,-1.3 9.5,-4 5.3,-5.3 5.3,-13.8 0,-19.1 z"
       id="path2"
       style="fill:#f4a535;fill-opacity:1"
       inkscape:connector-curvature="0" /></g><g
     id="g6"
     transform="translate(-112.513,-427.175)" /><g
     id="g8"
     transform="translate(-112.513,-427.175)" /><g
     id="g10"
     transform="translate(-112.513,-427.175)" /><g
     id="g12"
     transform="translate(-112.513,-427.175)" /><g
     id="g14"
     transform="translate(-112.513,-427.175)" /><g
     id="g16"
     transform="translate(-112.513,-427.175)" /><g
     id="g18"
     transform="translate(-112.513,-427.175)" /><g
     id="g20"
     transform="translate(-112.513,-427.175)" /><g
     id="g22"
     transform="translate(-112.513,-427.175)" /><g
     id="g24"
     transform="translate(-112.513,-427.175)" /><g
     id="g26"
     transform="translate(-112.513,-427.175)" /><g
     id="g28"
     transform="translate(-112.513,-427.175)" /><g
     id="g30"
     transform="translate(-112.513,-427.175)" /><g
     id="g32"
     transform="translate(-112.513,-427.175)" /><g
     id="g34"
     transform="translate(-112.513,-427.175)" /></svg>