<?xml version="1.0" encoding="UTF-8" standalone="no"?>
<!-- Generator: Adobe Illustrator 19.0.0, SVG Export Plug-In . SVG Version: 6.00 Build 0)  -->

<svg
   xmlns:dc="http://purl.org/dc/elements/1.1/"
   xmlns:cc="http://creativecommons.org/ns#"
   xmlns:rdf="http://www.w3.org/1999/02/22-rdf-syntax-ns#"
   xmlns:svg="http://www.w3.org/2000/svg"
   xmlns="http://www.w3.org/2000/svg"
   xmlns:sodipodi="http://sodipodi.sourceforge.net/DTD/sodipodi-0.dtd"
   xmlns:inkscape="http://www.inkscape.org/namespaces/inkscape"
   version="1.1"
   id="Capa_1"
   x="0px"
   y="0px"
   viewBox="0 0 100.00016 99.999998"
   xml:space="preserve"
   sodipodi:docname="auditor.svg"
   width="100.00016"
   height="100"
   inkscape:version="0.92.1 r15371"><metadata
     id="metadata56"><rdf:RDF><cc:Work
         rdf:about=""><dc:format>image/svg+xml</dc:format><dc:type
           rdf:resource="http://purl.org/dc/dcmitype/StillImage" /><dc:title /></cc:Work></rdf:RDF></metadata><defs
     id="defs54" /><sodipodi:namedview
     pagecolor="#ffffff"
     bordercolor="#666666"
     borderopacity="1"
     objecttolerance="10"
     gridtolerance="10"
     guidetolerance="10"
     inkscape:pageopacity="0"
     inkscape:pageshadow="2"
     inkscape:window-width="2736"
     inkscape:window-height="1699"
     id="namedview52"
     showgrid="false"
     fit-margin-top="0"
     fit-margin-left="0"
     fit-margin-right="0"
     fit-margin-bottom="0"
     inkscape:zoom="4.7584962"
     inkscape:cx="41.90962"
     inkscape:cy="83.641503"
     inkscape:window-x="-13"
     inkscape:window-y="-13"
     inkscape:window-maximized="1"
     inkscape:current-layer="Capa_1" /><g
     id="g19"
     transform="matrix(0.2016317,0,0,0.2016317,10.000018,10.000001)"><g
       id="Guides_For_Artboard_5_" /><g
       id="Artwork_5_" /><g
       id="Layer_2_5_"><g
         id="g16"><path
           style="fill:#f7f1e6"
           d="m 216.114,216.113 c 1.917,-1.917 3.999,-3.566 6.194,-4.966 15.661,-18.268 24.203,-41.269 24.203,-65.586 0,-26.965 -10.5,-52.316 -29.568,-71.382 -19.067,-19.069 -44.418,-29.57 -71.384,-29.57 -26.965,0 -52.316,10.501 -71.383,29.568 -19.067,19.067 -29.567,44.42 -29.567,71.384 0,26.967 10.5,52.316 29.567,71.383 19.067,19.068 44.418,29.568 71.383,29.568 24.318,0 47.321,-8.543 65.588,-24.204 1.4,-2.196 3.05,-4.278 4.967,-6.195 z m -49.087,-27.939 c 0,0 -7.729,7.76 -10.05,9.748 -1.74,1.499 -5.53,4.512 -9.628,4.512 -4.104,0 -7.886,-3.013 -9.636,-4.512 -2.32,-1.988 -10.048,-9.748 -10.048,-9.748 -15.489,-14.57 -34.713,-32.656 -37.357,-48.764 -1.854,-11.381 -0.045,-20.768 5.386,-27.896 5.477,-7.194 13.815,-11.298 25.494,-12.55 1.129,-0.113 2.146,-0.166 3.172,-0.166 8.248,0 16.588,3.073 22.983,8.272 6.403,-5.199 14.736,-8.272 22.999,-8.272 1.018,0 2.042,0.053 3.165,0.166 11.676,1.252 20.008,5.355 25.492,12.55 5.432,7.128 7.239,16.515 5.386,27.896 -2.645,16.1 -21.871,34.194 -37.358,48.764 z"
           id="path4"
           inkscape:connector-curvature="0" /><path
           style="fill:#2b3237"
           d="M 388.168,346.664 284.636,243.132 c 1.696,11.062 -1.71,22.755 -10.232,31.274 -7.106,7.106 -16.419,10.659 -25.731,10.659 -1.853,0 -3.704,-0.146 -5.539,-0.428 l 103.529,103.529 c 5.731,5.731 13.242,8.597 20.752,8.597 7.51,0 15.021,-2.865 20.752,-8.597 11.462,-11.459 11.462,-30.042 0.001,-41.502 z"
           id="path6"
           inkscape:connector-curvature="0" /><path
           style="fill:#f3dbbd"
           d="m 211.147,222.308 c 1.989,-1.706 3.924,-3.492 5.796,-5.364 1.873,-1.873 3.66,-3.808 5.365,-5.797 -2.195,1.399 -4.277,3.049 -6.194,4.966 -1.917,1.917 -3.567,3.999 -4.967,6.195 z"
           id="path8"
           inkscape:connector-curvature="0" /><path
           style="fill:#f3dbbd"
           d="m 274.404,274.407 c 8.521,-8.52 11.928,-20.213 10.232,-31.274 -1.132,-7.39 -4.538,-14.498 -10.229,-20.189 l -3.418,-3.419 c -6.177,10.435 -13.703,20.164 -22.501,28.963 -8.799,8.799 -18.529,16.326 -28.963,22.503 l 3.415,3.415 c 5.694,5.695 12.804,9.102 20.196,10.233 1.835,0.281 3.686,0.428 5.539,0.428 9.31,-0.001 18.623,-3.554 25.729,-10.66 z"
           id="path10"
           inkscape:connector-curvature="0" /><path
           style="fill:#2b3237"
           d="m 248.487,248.487 c 8.798,-8.799 16.325,-18.528 22.501,-28.963 13.124,-22.168 20.132,-47.525 20.132,-73.963 0,-38.88 -15.141,-75.435 -42.633,-102.926 C 220.994,15.143 184.441,0 145.559,0 106.678,0 70.125,15.143 42.633,42.635 15.14,70.126 0,106.681 0,145.561 c 0,38.882 15.141,75.436 42.633,102.926 27.493,27.494 64.045,42.633 102.926,42.633 26.438,0 51.795,-7.006 73.964,-20.13 10.435,-6.177 20.165,-13.704 28.964,-22.503 z M 74.176,216.944 C 55.109,197.878 44.609,172.528 44.609,145.561 c 0,-26.964 10.5,-52.316 29.567,-71.384 19.067,-19.067 44.418,-29.568 71.383,-29.568 26.966,0 52.317,10.501 71.384,29.57 19.067,19.065 29.568,44.417 29.568,71.382 0,24.317 -8.542,47.318 -24.203,65.586 -1.706,1.989 -3.493,3.924 -5.365,5.797 -1.872,1.872 -3.807,3.658 -5.796,5.364 -18.267,15.661 -41.27,24.204 -65.588,24.204 -26.964,0 -52.315,-10.5 -71.383,-29.568 z"
           id="path12"
           inkscape:connector-curvature="0" /><path
           style="fill:#d43d21"
           d="m 198.997,111.515 c -5.484,-7.194 -13.816,-11.298 -25.492,-12.55 -1.122,-0.113 -2.147,-0.166 -3.165,-0.166 -8.263,0 -16.596,3.073 -22.999,8.272 -6.395,-5.199 -14.735,-8.272 -22.983,-8.272 -1.026,0 -2.042,0.053 -3.172,0.166 -11.678,1.252 -20.017,5.355 -25.494,12.55 -5.431,7.128 -7.24,16.515 -5.386,27.896 2.644,16.107 21.869,34.193 37.357,48.764 0,0 7.729,7.76 10.048,9.748 1.75,1.499 5.532,4.512 9.636,4.512 4.098,0 7.888,-3.013 9.628,-4.512 2.32,-1.988 10.05,-9.748 10.05,-9.748 15.487,-14.57 34.713,-32.664 37.356,-48.764 1.855,-11.381 0.048,-20.768 -5.384,-27.896 z"
           id="path14"
           inkscape:connector-curvature="0" /></g></g></g><g
     id="g21"
     transform="translate(0,-296.763)" /><g
     id="g23"
     transform="translate(0,-296.763)" /><g
     id="g25"
     transform="translate(0,-296.763)" /><g
     id="g27"
     transform="translate(0,-296.763)" /><g
     id="g29"
     transform="translate(0,-296.763)" /><g
     id="g31"
     transform="translate(0,-296.763)" /><g
     id="g33"
     transform="translate(0,-296.763)" /><g
     id="g35"
     transform="translate(0,-296.763)" /><g
     id="g37"
     transform="translate(0,-296.763)" /><g
     id="g39"
     transform="translate(0,-296.763)" /><g
     id="g41"
     transform="translate(0,-296.763)" /><g
     id="g43"
     transform="translate(0,-296.763)" /><g
     id="g45"
     transform="translate(0,-296.763)" /><g
     id="g47"
     transform="translate(0,-296.763)" /><g
     id="g49"
     transform="translate(0,-296.763)" /></svg>