<?xml version="1.0" encoding="UTF-8" standalone="no"?>
<!-- Created with Inkscape (http://www.inkscape.org/) -->

<svg
   xmlns:dc="http://purl.org/dc/elements/1.1/"
   xmlns:cc="http://creativecommons.org/ns#"
   xmlns:rdf="http://www.w3.org/1999/02/22-rdf-syntax-ns#"
   xmlns:svg="http://www.w3.org/2000/svg"
   xmlns="http://www.w3.org/2000/svg"
   xmlns:sodipodi="http://sodipodi.sourceforge.net/DTD/sodipodi-0.dtd"
   xmlns:inkscape="http://www.inkscape.org/namespaces/inkscape"
   width="36.704151"
   height="50.000004"
   viewBox="0 0 9.7113068 13.229168"
   version="1.1"
   id="svg8"
   inkscape:version="0.92+devel unknown"
   sodipodi:docname="award.svg">
  <defs
     id="defs2" />
  <sodipodi:namedview
     id="base"
     pagecolor="#ffffff"
     bordercolor="#666666"
     borderopacity="1.0"
     inkscape:pageopacity="0.0"
     inkscape:pageshadow="2"
     inkscape:zoom="7.9195959"
     inkscape:cx="55.042713"
     inkscape:cy="15.865652"
     inkscape:document-units="mm"
     inkscape:current-layer="g4837"
     inkscape:document-rotation="0"
     showgrid="false"
     fit-margin-top="0"
     fit-margin-left="0"
     fit-margin-right="0"
     fit-margin-bottom="0"
     units="px"
     inkscape:window-width="1920"
     inkscape:window-height="1012"
     inkscape:window-x="0"
     inkscape:window-y="0"
     inkscape:window-maximized="1" />
  <metadata
     id="metadata5">
    <rdf:RDF>
      <cc:Work
         rdf:about="">
        <dc:format>image/svg+xml</dc:format>
        <dc:type
           rdf:resource="http://purl.org/dc/dcmitype/StillImage" />
        <dc:title></dc:title>
      </cc:Work>
    </rdf:RDF>
  </metadata>
  <g
     inkscape:label="Calque 1"
     inkscape:groupmode="layer"
     id="layer1"
     transform="translate(-10.624486,-124.44432)">
    <g
       id="g4902"
       transform="matrix(0.03081531,0,0,0.03081531,8.8655707,124.44432)">
      <g
         id="g4840">
        <g
           id="Guides_For_Artboard_25_" />
        <g
           id="Artwork_24_" />
        <g
           id="Layer_2_24_">
          <g
             id="g4837">
            <g
               id="g4643"
               transform="matrix(0.0570875,0,0,-0.0570875,57.079369,429.30541)"
               style="fill:#d43d21;fill-opacity:1">
              <path
                 d="m 4040.2,2180.13 h -14.42 l -316.8,12 -235.19,-212.78 c -73.59,-66.4 -168.79,-103.2 -268.01,-103.2 -51.99,0 -103.16,9.57 -151.17,29.57 l -293.59,120 -293.64,-120 c -47.97,-20 -99.18,-29.57 -151.17,-29.57 -99.22,0 -194.41,36.8 -268.01,103.2 l -235.19,212.78 -316.8,-12 h -14.41 c -148.79,0 -283.99,81.6 -353.6,213.6 l -148.001,280.82 -12,3.98 V 200.91 C 968.199,52.1289 1125,-44.6719 1257.81,22.5195 L 2672.19,732.949 c 56.79,27.961 123.2,27.961 180,0 L 4264.22,21.7305 c 132.77,-67.1797 289.57,29.6093 289.57,178.3985 V 2677.75 l -11.99,-4.02 -148.01,-280.78 C 4325,2261.73 4188.98,2180.13 4040.2,2180.13 Z"
                 style="fill:#d43d21;fill-opacity:1;fill-rule:nonzero;stroke:none"
                 id="path4645"
                 inkscape:connector-curvature="0" />
              <path
                 d="m 5489.8,4691.34 c 40.79,64.81 40.79,147.19 0,212.78 l -168.78,268.83 c -28.01,43.98 -36.8,97.57 -26.41,147.96 l 67.19,310.43 c 16.01,75.2 -12,152.78 -72.82,200 l -250.39,194.38 c -40.78,32.03 -68,78.4 -75.19,130.43 l -43.99,314.37 c -10.43,76.02 -64.02,139.22 -136.79,163.21 l -301.6,97.61 c -49.61,15.98 -91.22,51.18 -115.24,96.8 l -147.97,280.78 c -34.41,65.63 -103.2,106.41 -176.79,106.41 h -7.23 l -316.8,-11.99 h -7.19 c -49.6,0 -97.61,18.39 -134.41,51.99 l -235.19,212.81 c -37.58,33.59 -85.59,51.99 -134.42,51.99 -25.58,0 -51.17,-4.8 -75.19,-15.19 l -293.6,-120 c -23.98,-9.61 -49.61,-15.2 -75.19,-15.2 -25.59,0 -51.21,4.81 -75.2,15.2 l -293.59,120 c -24.81,9.61 -50.39,15.19 -75.2,15.19 -48.83,0 -96.79,-17.61 -134.41,-51.99 l -235.2,-212.81 c -36.79,-33.6 -84.8,-51.99 -134.41,-51.99 h -7.19 l -316.8,11.99 h -7.18 c -73.64,0 -142.42,-40.78 -176.84,-106.41 l -147.97,-280.78 c -24.02,-46.41 -65.62,-80.82 -115.19,-96.8 l -301.6,-97.61 c -72.821,-23.21 -126.411,-87.19 -136.801,-163.21 l -44.02,-314.37 C 553.012,6104.12 525.781,6057.75 485,6025.72 L 231.41,5831.34 c -60.82,-47.22 -88.789,-124.8 -72.82,-200 l 67.191,-310.43 c 11.207,-51.17 1.598,-103.98 -26.371,-147.96 L 30.5898,4904.12 c -40.789,-64.77 -40.789,-147.19 0,-212.78 L 199.41,4422.52 c 27.969,-43.99 36.801,-97.58 26.371,-147.97 L 158.59,3964.12 c -15.969,-75.2 12,-152.78 72.82,-200 l 250.391,-194.38 c 40.82,-31.99 68,-78.4 75.187,-130.39 l 44.032,-314.41 c 10.39,-76.02 63.98,-139.22 136.789,-163.21 l 228.793,-73.59 73.598,-24.02 c 49.6,-15.98 91.21,-51.17 115.19,-96.8 l 148.01,-280.78 c 34.41,-65.63 103.2,-106.41 176.8,-106.41 h 7.18 l 316.84,12 h 7.19 c 49.61,0 97.57,-18.4 134.37,-52 l 235.24,-212.81 c 37.57,-33.59 85.58,-51.99 134.37,-51.99 25.63,0 51.21,4.8 75.2,15.19 l 293.63,120 c 23.98,9.61 49.57,15.2 75.19,15.2 25.59,0 51.18,-4.81 75.2,-15.2 l 293.59,-120 c 24.81,-9.61 50.39,-15.19 75.2,-15.19 48.79,0 96.8,17.62 134.41,51.99 l 235.2,212.81 c 36.79,33.6 84.8,52 134.37,52 h 7.23 l 316.8,-12 h 7.18 c 73.6,0 142.43,40.78 176.8,106.41 l 148.01,280.78 c 23.98,46.41 65.58,80.82 115.19,96.8 l 73.6,24.02 228.83,73.59 c 72.77,23.21 126.36,87.19 136.79,163.21 l 43.99,314.41 c 7.18,51.99 34.41,98.4 75.19,130.39 l 250.39,194.38 c 60.82,47.22 88.83,124.8 72.82,200 l -67.19,310.43 c -11.21,51.17 -1.6,103.98 26.4,147.97 z m -794.41,-711.21 c -40.78,-95.19 -87.19,-187.18 -140.78,-275.19 -86.41,-141.6 -189.61,-273.6 -308.83,-391.99 -192.77,-192.82 -417.58,-344.03 -667.19,-449.61 -259.18,-109.61 -534.37,-164.81 -817.57,-164.81 -283.21,0 -558.4,55.2 -817.62,164.81 -250.39,105.58 -474.42,256.79 -667.19,449.61 -119.22,119.18 -222.42,250.39 -308.831,391.99 -53.59,88.01 -100.777,179.18 -140.777,275.19 -109.614,259.22 -164.801,534.42 -164.801,817.62 0,283.16 55.187,558.4 164.801,817.58 105.589,250.39 256.798,474.41 449.608,667.19 192.77,192.81 417.58,344.02 667.19,449.61 259.22,109.6 534.41,164.8 817.62,164.8 283.2,0 558.39,-55.2 817.57,-164.8 250.39,-105.59 474.42,-256.8 667.19,-449.61 192.81,-192.78 344.02,-417.58 449.61,-667.19 109.61,-259.18 164.81,-534.42 164.81,-817.58 0,-283.2 -55.2,-558.4 -164.81,-817.62 z"
                 style="fill:#d43d21;fill-opacity:1;fill-rule:nonzero;stroke:none"
                 id="path4647"
                 inkscape:connector-curvature="0" />
              <path
                 d="m 2760.2,6657.75 c -1027.19,0 -1860.001,-832.81 -1860.001,-1860 0,-170.43 23.199,-336.02 66.403,-492.81 216.018,-788.01 937.618,-1367.19 1793.598,-1367.19 856.01,0 1577.61,579.18 1793.59,1367.19 43.2,156.79 66.41,322.38 66.41,492.81 0,1027.19 -832.82,1860 -1860,1860 z m 828,-2721.6 c 36.02,-168.83 -143.98,-300.82 -294.41,-215.24 l -533.59,302.43 -534.42,-302.43 c -149.57,-84.76 -330.39,47.23 -294.37,215.24 l 128,603.2 -417.61,376.8 -46.41,42.38 c -127.19,115.2 -60,326.41 109.61,347.19 l 608.01,74.41 264.8,567.19 c 71.99,153.59 290.39,153.59 362.39,0 l 264.8,-567.19 608.01,-74.41 c 170.39,-20.78 236.79,-231.99 109.61,-347.19 l -46.41,-42.38 -417.62,-376.8 z"
                 style="fill:#d43d21;fill-opacity:1;fill-rule:nonzero;stroke:none"
                 id="path4649"
                 inkscape:connector-curvature="0" />
            </g>
          </g>
        </g>
      </g>
      <g
         id="g4842" />
      <g
         id="g4844" />
      <g
         id="g4846" />
      <g
         id="g4848" />
      <g
         id="g4850" />
      <g
         id="g4852" />
      <g
         id="g4854" />
      <g
         id="g4856" />
      <g
         id="g4858" />
      <g
         id="g4860" />
      <g
         id="g4862" />
      <g
         id="g4864" />
      <g
         id="g4866" />
      <g
         id="g4868" />
      <g
         id="g4870" />
    </g>
  </g>
</svg>
