<?xml version="1.0" encoding="UTF-8" standalone="no"?>
<!-- Generator: Adobe Illustrator 16.0.0, SVG Export Plug-In . SVG Version: 6.00 Build 0)  -->

<svg
   xmlns:dc="http://purl.org/dc/elements/1.1/"
   xmlns:cc="http://creativecommons.org/ns#"
   xmlns:rdf="http://www.w3.org/1999/02/22-rdf-syntax-ns#"
   xmlns:svg="http://www.w3.org/2000/svg"
   xmlns="http://www.w3.org/2000/svg"
   xmlns:sodipodi="http://sodipodi.sourceforge.net/DTD/sodipodi-0.dtd"
   xmlns:inkscape="http://www.inkscape.org/namespaces/inkscape"
   version="1.1"
   id="Capa_1"
   x="0px"
   y="0px"
   width="37.353779"
   height="35.999996"
   viewBox="0 0 37.353781 35.999996"
   xml:space="preserve"
   sodipodi:docname="birthday-cake.svg"
   inkscape:version="0.92+devel unknown"><metadata
     id="metadata51"><rdf:RDF><cc:Work
         rdf:about=""><dc:format>image/svg+xml</dc:format><dc:type
           rdf:resource="http://purl.org/dc/dcmitype/StillImage" /><dc:title /></cc:Work></rdf:RDF></metadata><defs
     id="defs49" /><sodipodi:namedview
     pagecolor="#ffffff"
     bordercolor="#666666"
     inkscape:document-rotation="0"
     borderopacity="1"
     objecttolerance="10"
     gridtolerance="10"
     guidetolerance="10"
     inkscape:pageopacity="0"
     inkscape:pageshadow="2"
     inkscape:window-width="1920"
     inkscape:window-height="1012"
     id="namedview47"
     showgrid="false"
     fit-margin-top="0"
     fit-margin-left="0"
     fit-margin-right="0"
     fit-margin-bottom="0"
     inkscape:zoom="0.39921272"
     inkscape:cx="325.56001"
     inkscape:cy="160.59351"
     inkscape:window-x="0"
     inkscape:window-y="0"
     inkscape:window-maximized="1"
     inkscape:current-layer="Capa_1" /><g
     id="g14"
     style="fill:#e3e3e3;fill-opacity:1"
     transform="matrix(0.06935849,0,0,0.06935849,0,-0.67684079)"><g
       id="g12"
       style="fill:#e3e3e3;fill-opacity:1"><path
         d="m 507.959,311.64 c -4.549,1.235 -9.33,1.945 -14.279,1.945 -11.824,0 -22.996,-3.742 -32.057,-10.443 -9.064,6.701 -20.234,10.443 -32.057,10.443 -11.824,0 -22.996,-3.742 -32.057,-10.443 -9.064,6.701 -20.232,10.443 -32.057,10.443 -11.825,0 -22.996,-3.742 -32.057,-10.443 -9.064,6.701 -20.232,10.443 -32.057,10.443 -11.825,0 -22.996,-3.742 -32.057,-10.443 -9.061,6.701 -20.232,10.443 -32.056,10.443 -11.824,0 -22.993,-3.742 -32.057,-10.443 -9.061,6.701 -20.233,10.443 -32.057,10.443 -11.824,0 -22.993,-3.742 -32.057,-10.443 -9.067,6.701 -20.236,10.443 -32.06,10.443 -11.824,0 -22.993,-3.742 -32.057,-10.443 -9.061,6.701 -20.233,10.443 -32.057,10.443 -4.954,0 -9.731,-0.71 -14.281,-1.945 v 48.356 h 477.36 z"
         id="path2"
         style="fill:#e3e3e3;fill-opacity:1"
         inkscape:connector-curvature="0" /><path
         d="m 30.6,471.176 c 0,0.872 0.117,1.716 0.257,2.549 h 476.846 c 0.141,-0.833 0.256,-1.677 0.256,-2.549 v -95.88 H 30.6 Z"
         id="path4"
         style="fill:#e3e3e3;fill-opacity:1"
         inkscape:connector-curvature="0" /><path
         d="m 30.6,295.593 c 4.407,1.726 9.223,2.692 14.281,2.692 13.568,0 25.425,-6.873 32.057,-17.145 6.634,10.271 18.491,17.145 32.06,17.145 13.568,0 25.425,-6.873 32.057,-17.145 6.631,10.272 18.488,17.145 32.056,17.145 13.568,0 25.426,-6.873 32.057,-17.145 6.631,10.271 18.489,17.145 32.057,17.145 13.568,0 25.426,-6.873 32.057,-17.145 6.63,10.272 18.488,17.145 32.056,17.145 13.568,0 25.426,-6.873 32.057,-17.145 6.631,10.272 18.488,17.145 32.057,17.145 13.569,0 25.426,-6.873 32.057,-17.145 6.631,10.272 18.488,17.145 32.057,17.145 13.569,0 25.426,-6.873 32.057,-17.145 6.631,10.272 18.488,17.145 32.057,17.145 5.059,0 9.875,-0.967 14.281,-2.692 13.715,-5.374 23.385,-18.231 23.385,-33.262 0,-1.506 -0.129,-2.98 -0.318,-4.44 0.199,-0.759 0.318,-1.539 0.318,-2.341 v -46.108 c 0,-6.702 -7.289,-12.136 -16.279,-12.136 H 288.656 v -7.65 -7.65 -30.921 c 0,-8.449 -6.852,-15.3 -15.301,-15.3 h -8.161 c -8.449,0 -15.3,6.851 -15.3,15.3 v 30.921 7.65 7.65 h -226.4 c -8.99,0 -16.279,5.432 -16.279,12.136 v 46.111 c 0,0.802 0.119,1.582 0.318,2.341 -0.19,1.457 -0.318,2.935 -0.318,4.44 0,15.025 9.67,27.885 23.385,33.259 z"
         id="path6"
         style="fill:#e3e3e3;fill-opacity:1"
         inkscape:connector-curvature="0" /><path
         d="M 523.26,489.025 H 15.3 c -8.449,0 -15.3,8.617 -15.3,19.247 v 1.282 c 0,10.631 6.851,19.247 15.3,19.247 h 507.96 c 8.449,0 15.301,-8.616 15.301,-19.247 v -1.282 c 0,-10.627 -6.852,-19.247 -15.301,-19.247 z"
         id="path8"
         style="fill:#e3e3e3;fill-opacity:1"
         inkscape:connector-curvature="0" /><path
         d="m 272.34,126.097 c 0.576,0.021 1.154,0.092 1.719,-0.024 17.826,-3.685 35.094,-27.452 31.455,-48.517 -3.369,-19.51 -17.531,-27.666 -25.727,-41.895 -3.396,-5.89 -5.17,-13.779 -3.91,-21.515 0.816,-5.003 -0.064,-5.79 -3.473,-2.038 -8.752,9.624 -18.667,22.274 -23.513,32.375 -5.548,11.27 -6.071,19.324 -2.843,31.377 0.823,3.011 1.671,5.343 2.781,7.656 1.953,4.061 -0.177,7.252 -4.905,5.417 -2.35,-0.912 -4.511,-2.154 -6.328,-3.623 -3.944,-3.186 -5.447,-3.204 -4.367,1.747 3.951,18.118 20.512,38.32 39.111,39.04 z"
         id="path10"
         style="fill:#e3e3e3;fill-opacity:1"
         inkscape:connector-curvature="0" /></g></g><g
     id="g16"
     transform="translate(0,-492.801)" /><g
     id="g18"
     transform="translate(0,-492.801)" /><g
     id="g20"
     transform="translate(0,-492.801)" /><g
     id="g22"
     transform="translate(0,-492.801)" /><g
     id="g24"
     transform="translate(0,-492.801)" /><g
     id="g26"
     transform="translate(0,-492.801)" /><g
     id="g28"
     transform="translate(0,-492.801)" /><g
     id="g30"
     transform="translate(0,-492.801)" /><g
     id="g32"
     transform="translate(0,-492.801)" /><g
     id="g34"
     transform="translate(0,-492.801)" /><g
     id="g36"
     transform="translate(0,-492.801)" /><g
     id="g38"
     transform="translate(0,-492.801)" /><g
     id="g40"
     transform="translate(0,-492.801)" /><g
     id="g42"
     transform="translate(0,-492.801)" /><g
     id="g44"
     transform="translate(0,-492.801)" /></svg>