<?xml version="1.0" encoding="UTF-8" standalone="no"?>
<!-- Generator: Adobe Illustrator 19.0.0, SVG Export Plug-In . SVG Version: 6.00 Build 0)  -->

<svg
   xmlns:dc="http://purl.org/dc/elements/1.1/"
   xmlns:cc="http://creativecommons.org/ns#"
   xmlns:rdf="http://www.w3.org/1999/02/22-rdf-syntax-ns#"
   xmlns:svg="http://www.w3.org/2000/svg"
   xmlns="http://www.w3.org/2000/svg"
   xmlns:sodipodi="http://sodipodi.sourceforge.net/DTD/sodipodi-0.dtd"
   xmlns:inkscape="http://www.inkscape.org/namespaces/inkscape"
   version="1.1"
   id="Capa_1"
   x="0px"
   y="0px"
   viewBox="0 0 83.538279 100"
   xml:space="preserve"
   sodipodi:docname="clinic.svg"
   width="83.538277"
   height="100"
   inkscape:version="0.92.1 r15371"><metadata
     id="metadata70"><rdf:RDF><cc:Work
         rdf:about=""><dc:format>image/svg+xml</dc:format><dc:type
           rdf:resource="http://purl.org/dc/dcmitype/StillImage" /><dc:title></dc:title></cc:Work></rdf:RDF></metadata><defs
     id="defs68" /><sodipodi:namedview
     pagecolor="#ffffff"
     bordercolor="#666666"
     borderopacity="1"
     objecttolerance="10"
     gridtolerance="10"
     guidetolerance="10"
     inkscape:pageopacity="0"
     inkscape:pageshadow="2"
     inkscape:window-width="2736"
     inkscape:window-height="1699"
     id="namedview66"
     showgrid="false"
     fit-margin-top="0"
     fit-margin-left="0"
     fit-margin-right="0"
     fit-margin-bottom="0"
     inkscape:zoom="1.1374015"
     inkscape:cx="283.14279"
     inkscape:cy="256.48988"
     inkscape:window-x="-13"
     inkscape:window-y="-13"
     inkscape:window-maximized="1"
     inkscape:current-layer="g30" /><g
     id="g33"
     transform="translate(-34.157,-314.981)"><g
       id="Guides_For_Artboard_47_" /><g
       id="Artwork_46_" /><g
       id="Layer_2_46_"><g
         id="g30"><path
           style="fill:#f7f1e6;stroke-width:0.24097489"
           d="M 110.23639,325.49232 H 88.305021 v 11.59499 c 0,1.19693 -0.970165,2.16733 -2.167087,2.16733 H 65.231917 c -1.196923,0 -2.167087,-0.97016 -2.167087,-2.16733 V 325.49232 H 41.615655 c -4.119466,0 -7.458655,3.33919 -7.458655,7.4589 v 74.43015 c 0,4.11947 3.339189,7.4589 7.458655,7.4589 h 27.976702 v -17.42369 c 0,-0.78654 0.63762,-1.42416 1.424162,-1.42416 h 10.253963 c 0.786783,0 1.424162,0.63762 1.424162,1.42416 v 17.42369 h 27.541746 c 4.11946,0 7.45889,-3.33919 7.45889,-7.4589 v -74.43015 c 2.4e-4,-4.11971 -3.33967,-7.4589 -7.45889,-7.4589 z M 62.571072,390.0266 c 0,0.78655 -0.63762,1.42417 -1.424162,1.42417 H 50.892947 c -0.786783,0 -1.424162,-0.63762 -1.424162,-1.42417 v -10.25396 c 0,-0.78654 0.63762,-1.42416 1.424162,-1.42416 H 61.14691 c 0.786783,0 1.424162,0.63762 1.424162,1.42416 z m 0,-17.48513 c 0,0.78654 -0.63762,1.42416 -1.424162,1.42416 H 50.892947 c -0.786783,0 -1.424162,-0.63762 -1.424162,-1.42416 V 362.2875 c 0,-0.78654 0.63762,-1.42416 1.424162,-1.42416 H 61.14691 c 0.786783,0 1.424162,0.63762 1.424162,1.42416 z m 0,-17.64394 c 0,0.78654 -0.63762,1.42416 -1.424162,1.42416 H 50.892947 c -0.786783,0 -1.424162,-0.63762 -1.424162,-1.42416 v -10.25397 c 0,-0.78654 0.63762,-1.42416 1.424162,-1.42416 H 61.14691 c 0.786783,0 1.424162,0.63762 1.424162,1.42416 z m 20.123572,35.12907 c 0,0.78655 -0.63762,1.42417 -1.424162,1.42417 H 71.016519 c -0.786783,0 -1.424162,-0.63762 -1.424162,-1.42417 v -10.25396 c 0,-0.78654 0.63762,-1.42416 1.424162,-1.42416 h 10.253963 c 0.786783,0 1.424162,0.63762 1.424162,1.42416 z m 0,-17.48513 c 0,0.78654 -0.63762,1.42416 -1.424162,1.42416 H 71.016519 c -0.786783,0 -1.424162,-0.63762 -1.424162,-1.42416 V 362.2875 c 0,-0.78654 0.63762,-1.42416 1.424162,-1.42416 h 10.253963 c 0.786783,0 1.424162,0.63762 1.424162,1.42416 z m 0,-17.64394 c 0,0.78654 -0.63762,1.42416 -1.424162,1.42416 H 71.016519 c -0.786783,0 -1.424162,-0.63762 -1.424162,-1.42416 v -10.25397 c 0,-0.78654 0.63762,-1.42416 1.424162,-1.42416 h 10.253963 c 0.786783,0 1.424162,0.63762 1.424162,1.42416 z m 20.123816,35.12907 c 0,0.78655 -0.63762,1.42417 -1.42416,1.42417 H 91.140332 c -0.786783,0 -1.424162,-0.63762 -1.424162,-1.42417 v -10.25396 c 0,-0.78654 0.63762,-1.42416 1.424162,-1.42416 H 101.3943 c 0.78678,0 1.42416,0.63762 1.42416,1.42416 z m 0,-17.48513 c 0,0.78654 -0.63762,1.42416 -1.42416,1.42416 H 91.140332 c -0.786783,0 -1.424162,-0.63762 -1.424162,-1.42416 V 362.2875 c 0,-0.78654 0.63762,-1.42416 1.424162,-1.42416 H 101.3943 c 0.78678,0 1.42416,0.63762 1.42416,1.42416 z m 0,-17.64394 c 0,0.78654 -0.63762,1.42416 -1.42416,1.42416 H 91.140332 c -0.786783,0 -1.424162,-0.63762 -1.424162,-1.42416 v -10.25397 c 0,-0.78654 0.63762,-1.42416 1.424162,-1.42416 H 101.3943 c 0.78678,0 1.42416,0.63762 1.42416,1.42416 z"
           id="path4"
           inkscape:connector-curvature="0" /><path
           style="fill:#81b6b2;stroke-width:0.24097489"
           d="M 61.14691,343.2194 H 50.892947 c -0.786783,0 -1.424162,0.63762 -1.424162,1.42416 v 10.25397 c 0,0.78654 0.63762,1.42416 1.424162,1.42416 H 61.14691 c 0.786783,0 1.424162,-0.63762 1.424162,-1.42416 v -10.25397 c 0,-0.78654 -0.63762,-1.42416 -1.424162,-1.42416 z"
           id="path6"
           inkscape:connector-curvature="0" /><path
           style="fill:#81b6b2;stroke-width:0.24097489"
           d="M 81.270241,343.2194 H 71.016278 c -0.786783,0 -1.424162,0.63762 -1.424162,1.42416 v 10.25397 c 0,0.78654 0.63762,1.42416 1.424162,1.42416 h 10.253963 c 0.786783,0 1.424162,-0.63762 1.424162,-1.42416 v -10.25397 c 2.41e-4,-0.78654 -0.637138,-1.42416 -1.424162,-1.42416 z"
           id="path8"
           inkscape:connector-curvature="0" /><path
           style="fill:#81b6b2;stroke-width:0.24097489"
           d="M 101.39405,343.2194 H 91.140091 c -0.786783,0 -1.424162,0.63762 -1.424162,1.42416 v 10.25397 c 0,0.78654 0.63762,1.42416 1.424162,1.42416 h 10.253959 c 0.78679,0 1.42417,-0.63762 1.42417,-1.42416 v -10.25397 c 2.4e-4,-0.78654 -0.63714,-1.42416 -1.42417,-1.42416 z"
           id="path10"
           inkscape:connector-curvature="0" /><path
           style="fill:#81b6b2;stroke-width:0.24097489"
           d="M 61.14691,360.86334 H 50.892947 c -0.786783,0 -1.424162,0.63762 -1.424162,1.42416 v 10.25397 c 0,0.78654 0.63762,1.42416 1.424162,1.42416 H 61.14691 c 0.786783,0 1.424162,-0.63762 1.424162,-1.42416 V 362.2875 c 0,-0.78654 -0.63762,-1.42416 -1.424162,-1.42416 z"
           id="path12"
           inkscape:connector-curvature="0" /><path
           style="fill:#81b6b2;stroke-width:0.24097489"
           d="M 81.270241,360.86334 H 71.016278 c -0.786783,0 -1.424162,0.63762 -1.424162,1.42416 v 10.25397 c 0,0.78654 0.63762,1.42416 1.424162,1.42416 h 10.253963 c 0.786783,0 1.424162,-0.63762 1.424162,-1.42416 V 362.2875 c 2.41e-4,-0.78654 -0.637138,-1.42416 -1.424162,-1.42416 z"
           id="path14"
           inkscape:connector-curvature="0" /><path
           style="fill:#81b6b2;stroke-width:0.24097489"
           d="M 101.39405,360.86334 H 91.140091 c -0.786783,0 -1.424162,0.63762 -1.424162,1.42416 v 10.25397 c 0,0.78654 0.63762,1.42416 1.424162,1.42416 h 10.253959 c 0.78679,0 1.42417,-0.63762 1.42417,-1.42416 V 362.2875 c 2.4e-4,-0.78654 -0.63714,-1.42416 -1.42417,-1.42416 z"
           id="path16"
           inkscape:connector-curvature="0" /><path
           style="fill:#81b6b2;stroke-width:0.24097489"
           d="M 61.14691,378.34848 H 50.892947 c -0.786783,0 -1.424162,0.63762 -1.424162,1.42416 v 10.25396 c 0,0.78655 0.63762,1.42417 1.424162,1.42417 H 61.14691 c 0.786783,0 1.424162,-0.63762 1.424162,-1.42417 v -10.25396 c 0,-0.78654 -0.63762,-1.42416 -1.424162,-1.42416 z"
           id="path18"
           inkscape:connector-curvature="0" /><path
           style="fill:#81b6b2;stroke-width:0.24097489"
           d="M 81.270241,378.34848 H 71.016278 c -0.786783,0 -1.424162,0.63762 -1.424162,1.42416 v 10.25396 c 0,0.78655 0.63762,1.42417 1.424162,1.42417 h 10.253963 c 0.786783,0 1.424162,-0.63762 1.424162,-1.42417 v -10.25396 c 2.41e-4,-0.78654 -0.637138,-1.42416 -1.424162,-1.42416 z"
           id="path20"
           inkscape:connector-curvature="0" /><path
           style="fill:#81b6b2;stroke-width:0.24097489"
           d="M 101.39405,378.34848 H 91.140091 c -0.786783,0 -1.424162,0.63762 -1.424162,1.42416 v 10.25396 c 0,0.78655 0.63762,1.42417 1.424162,1.42417 h 10.253959 c 0.78679,0 1.42417,-0.63762 1.42417,-1.42417 v -10.25396 c 2.4e-4,-0.78654 -0.63714,-1.42416 -1.42417,-1.42416 z"
           id="path22"
           inkscape:connector-curvature="0" /><path
           style="fill:#81b6b2;stroke-width:0.24097489"
           d="M 81.270241,395.99218 H 71.016278 c -0.786783,0 -1.424162,0.63762 -1.424162,1.42416 v 17.42369 0.14097 h 13.102287 v -0.14097 -17.42369 c 2.41e-4,-0.78654 -0.637138,-1.42416 -1.424162,-1.42416 z"
           id="path24"
           inkscape:connector-curvature="0" /><path
           style="fill:#e0dcd3;stroke-width:0.24097489"
           d="m 65.232158,339.2544 h 20.906017 c 1.196922,0 2.167087,-0.97016 2.167087,-2.16733 v -11.59475 -8.34399 c 0,-1.19692 -0.970165,-2.16733 -2.167087,-2.16733 H 65.232158 c -1.196923,0 -2.167088,0.97041 -2.167088,2.16733 v 8.34399 11.59499 c 0,1.19693 0.970165,2.16709 2.167088,2.16709 z m 4.697564,-19.77584 h 3.211472 c 0.41014,0 0.742203,0.3323 0.742203,0.7422 v 5.0371 h 3.622094 v -5.0371 c 0,-0.4099 0.332304,-0.7422 0.741961,-0.7422 h 3.192918 c 0.409657,0 0.742202,0.3323 0.742202,0.7422 v 13.79436 c 0,0.4099 -0.332545,0.74221 -0.742202,0.74221 h -3.192918 c -0.409657,0 -0.741961,-0.33231 -0.741961,-0.74221 v -4.80961 h -3.622094 v 4.80961 c 0,0.4099 -0.332063,0.74221 -0.742203,0.74221 h -3.211472 c -0.409657,0 -0.742203,-0.33231 -0.742203,-0.74221 v -13.79436 c 0,-0.4099 0.332305,-0.7422 0.742203,-0.7422 z"
           id="path26"
           inkscape:connector-curvature="0" /><path
           style="fill:#e74424;stroke-width:0.24097489"
           d="m 69.187519,334.01488 c 0,0.4099 0.332546,0.74221 0.742203,0.74221 h 3.211472 c 0.41014,0 0.742203,-0.33231 0.742203,-0.74221 v -4.80961 h 3.622094 v 4.80961 c 0,0.4099 0.332304,0.74221 0.741961,0.74221 h 3.192918 c 0.409657,0 0.742202,-0.33231 0.742202,-0.74221 v -13.79412 c 0,-0.4099 -0.332545,-0.7422 -0.742202,-0.7422 h -3.192918 c -0.409657,0 -0.741961,0.3323 -0.741961,0.7422 v 5.0371 h -3.622094 v -5.0371 c 0,-0.4099 -0.332063,-0.7422 -0.742203,-0.7422 h -3.211472 c -0.409657,0 -0.742203,0.3323 -0.742203,0.7422 z"
           id="path28"
           inkscape:connector-curvature="0" /></g></g></g><g
     id="g35"
     transform="translate(-34.157,-314.981)" /><g
     id="g37"
     transform="translate(-34.157,-314.981)" /><g
     id="g39"
     transform="translate(-34.157,-314.981)" /><g
     id="g41"
     transform="translate(-34.157,-314.981)" /><g
     id="g43"
     transform="translate(-34.157,-314.981)" /><g
     id="g45"
     transform="translate(-34.157,-314.981)" /><g
     id="g47"
     transform="translate(-34.157,-314.981)" /><g
     id="g49"
     transform="translate(-34.157,-314.981)" /><g
     id="g51"
     transform="translate(-34.157,-314.981)" /><g
     id="g53"
     transform="translate(-34.157,-314.981)" /><g
     id="g55"
     transform="translate(-34.157,-314.981)" /><g
     id="g57"
     transform="translate(-34.157,-314.981)" /><g
     id="g59"
     transform="translate(-34.157,-314.981)" /><g
     id="g61"
     transform="translate(-34.157,-314.981)" /><g
     id="g63"
     transform="translate(-34.157,-314.981)" /></svg>