<?xml version="1.0" encoding="UTF-8" standalone="no"?>
<!-- Generator: Adobe Illustrator 19.0.0, SVG Export Plug-In . SVG Version: 6.00 Build 0)  -->

<svg
   xmlns:dc="http://purl.org/dc/elements/1.1/"
   xmlns:cc="http://creativecommons.org/ns#"
   xmlns:rdf="http://www.w3.org/1999/02/22-rdf-syntax-ns#"
   xmlns:svg="http://www.w3.org/2000/svg"
   xmlns="http://www.w3.org/2000/svg"
   xmlns:sodipodi="http://sodipodi.sourceforge.net/DTD/sodipodi-0.dtd"
   xmlns:inkscape="http://www.inkscape.org/namespaces/inkscape"
   version="1.1"
   id="Capa_1"
   x="0px"
   y="0px"
   viewBox="0 0 100 100"
   xml:space="preserve"
   sodipodi:docname="company.svg"
   width="100"
   height="100"
   inkscape:version="0.92.1 r15371"><metadata
     id="metadata50"><rdf:RDF><cc:Work
         rdf:about=""><dc:format>image/svg+xml</dc:format><dc:type
           rdf:resource="http://purl.org/dc/dcmitype/StillImage" /><dc:title></dc:title></cc:Work></rdf:RDF></metadata><defs
     id="defs48" /><sodipodi:namedview
     pagecolor="#ffffff"
     bordercolor="#666666"
     borderopacity="1"
     objecttolerance="10"
     gridtolerance="10"
     guidetolerance="10"
     inkscape:pageopacity="0"
     inkscape:pageshadow="2"
     inkscape:window-width="2736"
     inkscape:window-height="1699"
     id="namedview46"
     showgrid="false"
     fit-margin-top="0"
     fit-margin-left="0"
     fit-margin-right="0"
     fit-margin-bottom="0"
     inkscape:zoom="6.5030024"
     inkscape:cx="-37.257717"
     inkscape:cy="88.150175"
     inkscape:window-x="-13"
     inkscape:window-y="-13"
     inkscape:window-maximized="1"
     inkscape:current-layer="Capa_1" /><circle
     style="fill:#f5f5f5;fill-opacity:1;stroke:none;stroke-width:0.35375857;stroke-miterlimit:4;stroke-dasharray:none;stroke-opacity:1"
     id="path4528"
     cx="50"
     cy="50"
     r="50" /><g
     id="g15"
     transform="translate(-155.2925,-155.2925)" /><g
     id="g17"
     transform="translate(-155.2925,-155.2925)" /><g
     id="g19"
     transform="translate(-155.2925,-155.2925)" /><g
     id="g21"
     transform="translate(-155.2925,-155.2925)" /><g
     id="g23"
     transform="translate(-155.2925,-155.2925)" /><g
     id="g25"
     transform="translate(-155.2925,-155.2925)" /><g
     id="g27"
     transform="translate(-155.2925,-155.2925)" /><g
     id="g29"
     transform="translate(-155.2925,-155.2925)" /><g
     id="g31"
     transform="translate(-155.2925,-155.2925)" /><g
     id="g33"
     transform="translate(-155.2925,-155.2925)" /><g
     id="g35"
     transform="translate(-155.2925,-155.2925)" /><g
     id="g37"
     transform="translate(-155.2925,-155.2925)" /><g
     id="g39"
     transform="translate(-155.2925,-155.2925)" /><g
     id="g41"
     transform="translate(-155.2925,-155.2925)" /><g
     id="g43"
     transform="translate(-155.2925,-155.2925)" /><g
     id="g4561"
     transform="translate(15.961865,-19.715533)"><path
       inkscape:connector-curvature="0"
       id="path4"
       d="M 54.624285,46.022326 H 41.465464 v 6.956994 c 0,0.718158 -0.582099,1.300398 -1.300252,1.300398 H 27.621601 c -0.718154,0 -1.300252,-0.582096 -1.300252,-1.300398 V 46.022326 H 13.451844 c -2.47168,0 -4.4751931,2.003514 -4.4751931,4.47534 v 44.65809 c 0,2.471682 2.0035131,4.47534 4.4751931,4.47534 H 30.237865 V 89.176882 c 0,-0.471924 0.382572,-0.854496 0.854497,-0.854496 h 6.152378 c 0.47207,0 0.854497,0.382572 0.854497,0.854496 v 10.454214 h 16.525048 c 2.471676,0 4.475334,-2.003514 4.475334,-4.47534 v -44.65809 c 1.44e-4,-2.471826 -2.003802,-4.47534 -4.475334,-4.47534 z M 26.025094,84.742894 c 0,0.47193 -0.382572,0.854502 -0.854497,0.854502 h -6.152378 c -0.47207,0 -0.854497,-0.382572 -0.854497,-0.854502 v -6.152376 c 0,-0.471924 0.382572,-0.854496 0.854497,-0.854496 h 6.152378 c 0.47207,0 0.854497,0.382572 0.854497,0.854496 z m 0,-10.491078 c 0,0.471924 -0.382572,0.854496 -0.854497,0.854496 h -6.152378 c -0.47207,0 -0.854497,-0.382572 -0.854497,-0.854496 v -6.152382 c 0,-0.471924 0.382572,-0.854496 0.854497,-0.854496 h 6.152378 c 0.47207,0 0.854497,0.382572 0.854497,0.854496 z m 0,-10.586364 c 0,0.471924 -0.382572,0.854496 -0.854497,0.854496 h -6.152378 c -0.47207,0 -0.854497,-0.382572 -0.854497,-0.854496 V 57.51307 c 0,-0.471924 0.382572,-0.854496 0.854497,-0.854496 h 6.152378 c 0.47207,0 0.854497,0.382572 0.854497,0.854496 z m 12.074143,21.077442 c 0,0.47193 -0.382572,0.854502 -0.854497,0.854502 h -6.152378 c -0.472069,0 -0.854497,-0.382572 -0.854497,-0.854502 v -6.152376 c 0,-0.471924 0.382572,-0.854496 0.854497,-0.854496 h 6.152378 c 0.47207,0 0.854497,0.382572 0.854497,0.854496 z m 0,-10.491078 c 0,0.471924 -0.382572,0.854496 -0.854497,0.854496 h -6.152378 c -0.472069,0 -0.854497,-0.382572 -0.854497,-0.854496 v -6.152382 c 0,-0.471924 0.382572,-0.854496 0.854497,-0.854496 h 6.152378 c 0.47207,0 0.854497,0.382572 0.854497,0.854496 z m 0,-10.586364 c 0,0.471924 -0.382572,0.854496 -0.854497,0.854496 h -6.152378 c -0.472069,0 -0.854497,-0.382572 -0.854497,-0.854496 V 57.51307 c 0,-0.471924 0.382572,-0.854496 0.854497,-0.854496 h 6.152378 c 0.47207,0 0.854497,0.382572 0.854497,0.854496 z m 12.07429,21.077442 c 0,0.47193 -0.382572,0.854502 -0.854496,0.854502 H 43.16665 c -0.472069,0 -0.854497,-0.382572 -0.854497,-0.854502 v -6.152376 c 0,-0.471924 0.382572,-0.854496 0.854497,-0.854496 h 6.152381 c 0.472068,0 0.854496,0.382572 0.854496,0.854496 z m 0,-10.491078 c 0,0.471924 -0.382572,0.854496 -0.854496,0.854496 H 43.16665 c -0.472069,0 -0.854497,-0.382572 -0.854497,-0.854496 v -6.152382 c 0,-0.471924 0.382572,-0.854496 0.854497,-0.854496 h 6.152381 c 0.472068,0 0.854496,0.382572 0.854496,0.854496 z m 0,-10.586364 c 0,0.471924 -0.382572,0.854496 -0.854496,0.854496 H 43.16665 c -0.472069,0 -0.854497,-0.382572 -0.854497,-0.854496 V 57.51307 c 0,-0.471924 0.382572,-0.854496 0.854497,-0.854496 h 6.152381 c 0.472068,0 0.854496,0.382572 0.854496,0.854496 z"
       style="fill:#f7f1e6;stroke-width:0.14458494" /><path
       inkscape:connector-curvature="0"
       id="path6"
       d="m 25.170597,56.658574 h -6.152378 c -0.47207,0 -0.854497,0.382572 -0.854497,0.854496 v 6.152382 c 0,0.471924 0.382572,0.854496 0.854497,0.854496 h 6.152378 c 0.47207,0 0.854497,-0.382572 0.854497,-0.854496 V 57.51307 c 0,-0.471924 -0.382572,-0.854496 -0.854497,-0.854496 z"
       style="fill:#81b6b2;stroke-width:0.14458494" /><path
       inkscape:connector-curvature="0"
       id="path8"
       d="m 37.244596,56.658574 h -6.152378 c -0.47207,0 -0.854497,0.382572 -0.854497,0.854496 v 6.152382 c 0,0.471924 0.382572,0.854496 0.854497,0.854496 h 6.152378 c 0.472069,0 0.854497,-0.382572 0.854497,-0.854496 V 57.51307 c 1.44e-4,-0.471924 -0.382283,-0.854496 -0.854497,-0.854496 z"
       style="fill:#81b6b2;stroke-width:0.14458494" /><path
       inkscape:connector-curvature="0"
       id="path10"
       d="m 49.318881,56.658574 h -6.152375 c -0.47207,0 -0.854497,0.382572 -0.854497,0.854496 v 6.152382 c 0,0.471924 0.382572,0.854496 0.854497,0.854496 h 6.152375 c 0.472074,0 0.854502,-0.382572 0.854502,-0.854496 V 57.51307 c 1.44e-4,-0.471924 -0.382284,-0.854496 -0.854502,-0.854496 z"
       style="fill:#81b6b2;stroke-width:0.14458494" /><path
       inkscape:connector-curvature="0"
       id="path12"
       d="m 25.170597,67.244938 h -6.152378 c -0.47207,0 -0.854497,0.382572 -0.854497,0.854496 v 6.152382 c 0,0.471924 0.382572,0.854496 0.854497,0.854496 h 6.152378 c 0.47207,0 0.854497,-0.382572 0.854497,-0.854496 v -6.152382 c 0,-0.471924 -0.382572,-0.854496 -0.854497,-0.854496 z"
       style="fill:#81b6b2;stroke-width:0.14458494" /><path
       inkscape:connector-curvature="0"
       id="path14"
       d="m 37.244596,67.244938 h -6.152378 c -0.47207,0 -0.854497,0.382572 -0.854497,0.854496 v 6.152382 c 0,0.471924 0.382572,0.854496 0.854497,0.854496 h 6.152378 c 0.472069,0 0.854497,-0.382572 0.854497,-0.854496 v -6.152382 c 1.44e-4,-0.471924 -0.382283,-0.854496 -0.854497,-0.854496 z"
       style="fill:#81b6b2;stroke-width:0.14458494" /><path
       inkscape:connector-curvature="0"
       id="path16"
       d="m 49.318881,67.244938 h -6.152375 c -0.47207,0 -0.854497,0.382572 -0.854497,0.854496 v 6.152382 c 0,0.471924 0.382572,0.854496 0.854497,0.854496 h 6.152375 c 0.472074,0 0.854502,-0.382572 0.854502,-0.854496 v -6.152382 c 1.44e-4,-0.471924 -0.382284,-0.854496 -0.854502,-0.854496 z"
       style="fill:#81b6b2;stroke-width:0.14458494" /><path
       inkscape:connector-curvature="0"
       id="path18"
       d="m 25.170597,77.736022 h -6.152378 c -0.47207,0 -0.854497,0.382572 -0.854497,0.854496 v 6.152376 c 0,0.47193 0.382572,0.854502 0.854497,0.854502 h 6.152378 c 0.47207,0 0.854497,-0.382572 0.854497,-0.854502 v -6.152376 c 0,-0.471924 -0.382572,-0.854496 -0.854497,-0.854496 z"
       style="fill:#81b6b2;stroke-width:0.14458494" /><path
       inkscape:connector-curvature="0"
       id="path20"
       d="m 37.244596,77.736022 h -6.152378 c -0.47207,0 -0.854497,0.382572 -0.854497,0.854496 v 6.152376 c 0,0.47193 0.382572,0.854502 0.854497,0.854502 h 6.152378 c 0.472069,0 0.854497,-0.382572 0.854497,-0.854502 v -6.152376 c 1.44e-4,-0.471924 -0.382283,-0.854496 -0.854497,-0.854496 z"
       style="fill:#81b6b2;stroke-width:0.14458494" /><path
       inkscape:connector-curvature="0"
       id="path22"
       d="m 49.318881,77.736022 h -6.152375 c -0.47207,0 -0.854497,0.382572 -0.854497,0.854496 v 6.152376 c 0,0.47193 0.382572,0.854502 0.854497,0.854502 h 6.152375 c 0.472074,0 0.854502,-0.382572 0.854502,-0.854502 v -6.152376 c 1.44e-4,-0.471924 -0.382284,-0.854496 -0.854502,-0.854496 z"
       style="fill:#81b6b2;stroke-width:0.14458494" /><path
       inkscape:connector-curvature="0"
       id="path24"
       d="m 37.244596,88.322242 h -6.152378 c -0.47207,0 -0.854497,0.382572 -0.854497,0.854496 v 10.454214 0.08458 h 7.861372 v -0.08458 -10.454214 c 1.44e-4,-0.471924 -0.382283,-0.854496 -0.854497,-0.854496 z"
       style="fill:#81b6b2;stroke-width:0.14458494" /><path
       inkscape:connector-curvature="0"
       id="path26"
       d="m 27.621746,54.279574 h 12.54361 c 0.718153,0 1.300252,-0.582096 1.300252,-1.300398 v -6.95685 -5.006394 c 0,-0.718152 -0.582099,-1.300398 -1.300252,-1.300398 h -12.54361 c -0.718154,0 -1.300253,0.582246 -1.300253,1.300398 v 5.006394 6.956994 c 0,0.718158 0.582099,1.300254 1.300253,1.300254 z M 30.440284,42.41407 h 1.926883 c 0.246084,0 0.445322,0.19938 0.445322,0.44532 v 3.02226 h 2.173257 v -3.02226 c 0,-0.24594 0.199382,-0.44532 0.445176,-0.44532 h 1.915751 c 0.245794,0 0.445321,0.19938 0.445321,0.44532 v 8.276616 c 0,0.24594 -0.199527,0.445326 -0.445321,0.445326 h -1.915751 c -0.245794,0 -0.445176,-0.199386 -0.445176,-0.445326 V 48.25024 h -2.173257 v 2.885766 c 0,0.24594 -0.199238,0.445326 -0.445322,0.445326 h -1.926883 c -0.245794,0 -0.445322,-0.199386 -0.445322,-0.445326 V 42.85939 c 0,-0.24594 0.199383,-0.44532 0.445322,-0.44532 z"
       style="fill:#e0dcd3;stroke-width:0.14458494" /><path
       inkscape:connector-curvature="0"
       id="path28"
       d="m 29.994962,51.135862 c 0,0.24594 0.199528,0.445326 0.445322,0.445326 h 1.926883 c 0.246084,0 0.445322,-0.199386 0.445322,-0.445326 v -2.885766 h 2.173257 v 2.885766 c 0,0.24594 0.199382,0.445326 0.445176,0.445326 h 1.915751 c 0.245794,0 0.445321,-0.199386 0.445321,-0.445326 V 42.85939 c 0,-0.24594 -0.199527,-0.44532 -0.445321,-0.44532 h -1.915751 c -0.245794,0 -0.445176,0.19938 -0.445176,0.44532 v 3.02226 h -2.173257 v -3.02226 c 0,-0.24594 -0.199238,-0.44532 -0.445322,-0.44532 h -1.926883 c -0.245794,0 -0.445322,0.19938 -0.445322,0.44532 z"
       style="fill:#e74424;stroke-width:0.14458494" /></g></svg>