<?xml version="1.0" encoding="UTF-8" standalone="no"?>
<!-- Generator: Adobe Illustrator 19.0.0, SVG Export Plug-In . SVG Version: 6.00 Build 0)  -->

<svg
   xmlns:dc="http://purl.org/dc/elements/1.1/"
   xmlns:cc="http://creativecommons.org/ns#"
   xmlns:rdf="http://www.w3.org/1999/02/22-rdf-syntax-ns#"
   xmlns:svg="http://www.w3.org/2000/svg"
   xmlns="http://www.w3.org/2000/svg"
   xmlns:sodipodi="http://sodipodi.sourceforge.net/DTD/sodipodi-0.dtd"
   xmlns:inkscape="http://www.inkscape.org/namespaces/inkscape"
   version="1.1"
   id="Capa_1"
   x="0px"
   y="0px"
   viewBox="0 0 69.041602 100"
   xml:space="preserve"
   sodipodi:docname="doctor.svg"
   width="69.041603"
   height="100"
   inkscape:version="0.92+devel unknown"><metadata
     id="metadata92"><rdf:RDF><cc:Work
         rdf:about=""><dc:format>image/svg+xml</dc:format><dc:type
           rdf:resource="http://purl.org/dc/dcmitype/StillImage" /><dc:title></dc:title></cc:Work></rdf:RDF></metadata><defs
     id="defs90" /><sodipodi:namedview
     pagecolor="#ffffff"
     bordercolor="#666666"
     borderopacity="1"
     objecttolerance="10"
     gridtolerance="10"
     guidetolerance="10"
     inkscape:pageopacity="0"
     inkscape:pageshadow="2"
     inkscape:window-width="1920"
     inkscape:window-height="1012"
     id="namedview88"
     showgrid="false"
     fit-margin-top="0"
     fit-margin-left="0"
     fit-margin-right="0"
     fit-margin-bottom="0"
     inkscape:zoom="3.1491686"
     inkscape:cx="-106.84492"
     inkscape:cy="85.215992"
     inkscape:window-x="0"
     inkscape:window-y="0"
     inkscape:window-maximized="1"
     inkscape:current-layer="Capa_1"
     inkscape:document-rotation="0" /><g
     id="g55"
     transform="matrix(0.23588967,0,0,0.23588967,-15.479316,0)"><g
       id="Guides_For_Artboard_48_" /><g
       id="Artwork_47_" /><g
       id="Layer_2_47_"><g
         id="g46"><path
           style="fill:none"
           d="m 261.818,263.927 4.354,4.316 c 0,0 0.229,2.226 0.561,5.619 7.08,2.158 14.628,4.954 22.817,8.581 -1.367,-3.558 -3.159,-6.646 -5.492,-8.864 -6.612,-6.284 -9.336,-7.599 -22.24,-9.652 z"
           id="path4"
           inkscape:connector-curvature="0" /><path
           style="fill:#f7f1e6"
           d="m 188.132,310.454 c 0.216,0.169 0.429,0.343 0.641,0.517 l -8.486,-19.635 c -2.799,2.038 -5.202,3.775 -6.919,4.995 8.585,3.994 13.956,10.358 14.764,14.123 z"
           id="path6"
           inkscape:connector-curvature="0" /><path
           style="fill:#f7f1e6"
           d="m 157.314,292.148 c 0.551,-6.725 1.252,-14.088 1.719,-18.841 -1.112,0.325 -2.234,0.665 -3.371,1.022 0.15,1.761 0.52,3.967 0.799,6.731 0.316,3.124 0.686,6.82 0.853,11.088 z"
           id="path8"
           inkscape:connector-curvature="0" /><path
           style="fill:#f7f1e6"
           d="m 313.131,294.255 c -5.352,-2.966 -10.443,-5.605 -15.322,-7.973 2.359,8.463 3.39,17.434 3.241,23.726 -0.002,0.085 -0.003,0.167 -0.005,0.252 11.367,3.372 19.663,13.89 19.663,26.352 0,15.181 -12.308,27.489 -27.488,27.489 -15.182,0 -27.489,-12.308 -27.489,-27.489 0,-15.181 12.307,-27.488 27.489,-27.488 0.048,0 0.095,0.003 0.144,0.003 0.138,-8.399 -0.755,-18.725 -3.813,-26.685 -8.189,-3.626 -15.737,-6.422 -22.817,-8.581 0.502,5.127 1.241,12.925 1.786,19.779 0.906,11.388 -9.044,7.409 -13.788,4.345 -0.675,-0.436 -2.231,-1.535 -4.346,-3.056 l -35.662,76.087 -12.958,-29.985 c -0.312,0.501 -0.692,0.951 -1.13,1.336 0.078,1.209 0.122,2.43 0.122,3.663 0,9.967 -2.527,19.415 -7.12,26.596 -2.668,4.175 -5.948,7.369 -9.642,9.484 0.022,0.22 0.036,0.442 0.036,0.668 0,3.403 -2.617,6.162 -5.843,6.162 -3.226,0 -8.76,-2.758 -8.76,-6.162 0,-3.405 5.535,-6.161 8.76,-6.161 1.16,0 2.238,0.361 3.146,0.975 9.385,-5.163 14.369,-18.678 14.369,-31.563 0,-0.813 -0.026,-1.617 -0.063,-2.418 -2.263,-0.56 -4.073,-2.537 -4.397,-5.113 -2.028,-16.186 -14.688,-25.385 -34.699,-25.238 -0.012,0 -0.028,0 -0.042,0 -0.037,0 -0.066,-0.005 -0.101,-0.005 -18.427,0.68 -30.036,9.757 -31.969,25.192 -0.322,2.575 -2.132,4.553 -4.394,5.113 -0.037,0.8 -0.063,1.604 -0.063,2.415 0,12.886 4.982,26.4 14.364,31.563 0.91,-0.615 1.988,-0.977 3.148,-0.977 3.227,0 8.764,2.759 8.764,6.164 0,3.401 -5.537,6.162 -8.764,6.162 -3.226,0 -5.844,-2.76 -5.844,-6.162 0,-0.227 0.014,-0.45 0.036,-0.671 -3.693,-2.115 -6.973,-5.307 -9.642,-9.481 -4.592,-7.184 -7.119,-16.63 -7.119,-26.599 0,-1.232 0.044,-2.453 0.122,-3.662 -1.465,-1.29 -2.294,-3.314 -2.026,-5.455 1.268,-10.114 5.692,-18.762 12.798,-25.026 -0.042,-0.139 -0.065,-0.289 -0.065,-0.453 0,-4.587 9.212,-15.151 23.9,-17.96 -0.134,-4.4 -0.508,-8.183 -0.851,-11.589 -0.181,-1.792 -0.348,-3.458 -0.456,-5.018 -11.141,4.031 -23.468,9.641 -37.542,17.441 -19.255,10.67 -45.178,16.651 -45.178,45.157 0,15.872 0,40.271 0,58.782 0,14.734 15.037,25.736 36.226,25.736 32.97,0 80.825,0 110.117,0 29.292,0 77.147,0 110.117,0 21.189,0 36.226,-11.002 36.226,-25.736 0,-18.511 0,-42.911 0,-58.782 10e-4,-28.503 -25.922,-34.484 -45.176,-45.154 z"
           id="path10"
           inkscape:connector-curvature="0" /><path
           style="fill:#ffffff"
           d="m 212.879,267.387 c -0.016,0 -0.032,10e-4 -0.048,10e-4 -0.016,0.012 -0.036,0.027 -0.058,0.043 -1.24,0.918 -20.425,15.122 -32.486,23.904 l 8.486,19.635 c 0.339,0.277 0.679,0.553 1.009,0.842 7.154,6.267 11.609,14.944 12.879,25.097 0.188,1.502 -0.166,2.947 -0.896,4.122 l 12.958,29.985 35.662,-76.087 c -10.701,-7.697 -36.015,-26.438 -37.446,-27.498 -0.024,-0.017 -0.045,-0.032 -0.06,-0.044 z"
           id="path12"
           inkscape:connector-curvature="0" /><path
           style="fill:#dec8ae"
           d="m 212.773,267.321 0.083,0.049 0.083,-0.049 32.577,-19.555 0.101,0.1 v -16.29 c -10.089,5.96 -21.166,9.428 -32.76,9.428 -11.594,0 -22.67,-3.468 -32.76,-9.428 v 16.29 l 0.1,-0.099 z"
           id="path14"
           inkscape:connector-curvature="0" /><path
           style="fill:#dec8ae"
           d="m 212.856,267.37 c 0,0 -0.01,0.007 -0.025,0.019 0.016,0 0.032,-0.001 0.048,-0.001 -0.013,-0.011 -0.023,-0.018 -0.023,-0.018 z"
           id="path16"
           inkscape:connector-curvature="0" /><path
           style="fill:#f3dbbd"
           d="m 245.616,231.575 c 23.996,-14.176 42.407,-42.454 48.939,-71.723 -1.467,-3.202 -3.114,-8.455 -5.035,-15.843 -0.341,2.068 -0.542,3.873 -0.496,5.24 0.332,9.802 -7.609,20.528 -7.706,-0.279 -0.081,-17.971 -30.323,-60.127 -32.219,-61.256 -9.815,7.938 -35.355,22.716 -54.778,27.16 -3.291,0.753 -8.848,0.32 -4.907,-3.005 3.395,-2.865 5.096,-6.628 6.323,-10.43 1.402,-4.344 -16.948,11.295 -30.439,18.374 -3.428,1.798 -10.574,4.881 -5.24,-1.475 3.228,-3.846 3.512,-6.568 3.723,-9.579 -19.181,10.49 -18.852,24.792 -18.823,41.129 0.023,14.266 -7.715,18.574 -8.624,5.982 -1.07,5.008 -2.395,8.193 -3.786,9.573 7.512,27.231 25.084,52.86 47.548,66.131 10.089,5.96 21.165,9.428 32.76,9.428 11.595,0 22.671,-3.467 32.76,-9.427 z"
           id="path18"
           inkscape:connector-curvature="0" /><path
           style="fill:#2b3237"
           d="m 284.057,273.578 c 2.333,2.218 4.125,5.307 5.492,8.864 3.058,7.959 3.951,18.286 3.813,26.685 2.668,0.014 5.245,0.411 7.682,1.133 0.002,-0.085 0.003,-0.167 0.005,-0.252 0.149,-6.292 -0.881,-15.263 -3.241,-23.726 -2.561,-9.186 -6.687,-17.773 -12.586,-21.684 -11.313,-7.499 -24.517,-7.208 -31.029,-8.23 l 7.625,7.559 c 12.904,2.053 15.628,3.368 22.239,9.651 z"
           id="path20"
           inkscape:connector-curvature="0" /><path
           style="fill:#664b3a"
           d="m 136.334,155.87 c 0.909,12.592 8.647,8.284 8.624,-5.982 -0.028,-16.336 -0.357,-30.639 18.823,-41.129 -0.211,3.011 -0.496,5.733 -3.723,9.579 -5.334,6.356 1.813,3.273 5.24,1.475 13.491,-7.079 31.842,-22.717 30.439,-18.374 -1.227,3.802 -2.928,7.565 -6.323,10.43 -3.941,3.325 1.616,3.758 4.907,3.005 19.423,-4.444 44.963,-19.222 54.778,-27.16 1.896,1.129 32.138,43.285 32.219,61.256 0.096,20.807 8.037,10.081 7.706,0.279 -0.046,-1.367 0.155,-3.172 0.496,-5.24 1.921,7.388 3.567,12.641 5.035,15.843 3.613,7.885 6.135,3.267 8.954,-13.014 1.69,-9.76 1.391,-34.624 -7.786,-57.143 -4.94,-12.122 -12.155,-23.875 -21.677,-33.621 -0.243,0.818 -0.473,1.587 -0.68,2.283 -2.902,9.741 -10.965,17.248 -24.493,17.248 h -34.137 -34.139 c -13.528,0 -21.591,-7.507 -24.493,-17.248 -0.554,-1.858 -1.25,-4.202 -2.014,-6.774 -8.913,7.409 -15.919,16.538 -20.866,26.862 -10.436,21.779 -10.229,51.652 -9.397,63.419 1.355,19.163 5.245,27.029 8.722,23.58 1.39,-1.38 2.715,-4.565 3.785,-9.574 z"
           id="path22"
           inkscape:connector-curvature="0" /><path
           style="fill:#f7f1e6"
           d="m 180.597,75.605 h 34.139 34.138 c 13.528,0 21.591,-7.507 24.493,-17.248 0.207,-0.696 0.437,-1.465 0.68,-2.283 3.163,-10.633 9.037,-30.462 9.037,-30.462 C 286.982,14.007 280.512,0 266.986,0 h -52.25 -52.251 c -13.527,0 -19.997,14.007 -16.097,25.612 0,0 4.461,15.062 7.702,25.971 0.764,2.572 1.46,4.916 2.014,6.774 2.902,9.74 10.966,17.248 24.493,17.248 z m 19.95,-44.283 h 7.709 v -7.708 c 0,-2.683 2.175,-4.856 4.856,-4.856 h 0.442 2.805 c 2.683,0 4.856,2.173 4.856,4.856 v 7.708 h 7.709 c 2.683,0 4.856,2.174 4.856,4.855 v 3.248 c 0,2.682 -2.173,4.855 -4.856,4.855 h -7.709 v 7.708 c 0,2.683 -2.173,4.857 -4.856,4.857 h -2.805 -0.442 c -2.682,0 -4.856,-2.175 -4.856,-4.857 V 44.28 h -7.709 c -2.681,0 -4.855,-2.174 -4.855,-4.855 v -3.248 c -0.001,-2.681 2.174,-4.855 4.855,-4.855 z"
           id="path24"
           inkscape:connector-curvature="0" /><path
           style="fill:#e74424"
           d="m 195.691,39.426 c 0,2.682 2.175,4.855 4.855,4.855 h 7.709 v 7.708 c 0,2.683 2.175,4.857 4.856,4.857 h 0.442 2.805 c 2.683,0 4.856,-2.175 4.856,-4.857 v -7.708 h 7.709 c 2.683,0 4.856,-2.174 4.856,-4.855 v -3.248 c 0,-2.681 -2.173,-4.855 -4.856,-4.855 h -7.709 v -7.708 c 0,-2.683 -2.173,-4.856 -4.856,-4.856 h -2.805 -0.442 c -2.682,0 -4.856,2.173 -4.856,4.856 v 7.708 h -7.709 c -2.681,0 -4.855,2.174 -4.855,4.855 z"
           id="path26"
           inkscape:connector-curvature="0" /><path
           style="fill:#e0dcd3"
           d="m 293.219,308.873 c -15.32,0 -27.739,12.419 -27.739,27.738 0,15.319 12.419,27.739 27.739,27.739 15.319,0 27.738,-12.419 27.738,-27.739 0,-12.575 -8.371,-23.189 -19.841,-26.591 -2.459,-0.729 -5.06,-1.129 -7.752,-1.144 -0.049,0.001 -0.097,-0.003 -0.145,-0.003 z m 22.73,27.739 c 0,12.555 -10.176,22.733 -22.73,22.733 -12.557,0 -22.733,-10.178 -22.733,-22.733 0,-12.555 10.176,-22.733 22.733,-22.733 12.554,0 22.73,10.178 22.73,22.733 z"
           id="path28"
           inkscape:connector-curvature="0" /><path
           style="fill:#2b3237"
           d="m 270.524,336.612 c 0,12.534 10.159,22.695 22.695,22.695 12.533,0 22.692,-10.161 22.692,-22.695 0,-12.534 -10.159,-22.695 -22.692,-22.695 -12.536,0 -22.695,10.161 -22.695,22.695 z m 33.445,0 c 0,5.937 -4.815,10.75 -10.75,10.75 -5.938,0 -10.751,-4.813 -10.751,-10.75 0,-5.938 4.813,-10.75 10.751,-10.75 5.935,-0.001 10.75,4.812 10.75,10.75 z"
           id="path30"
           inkscape:connector-curvature="0" /><circle
           style="fill:#1b2327"
           cx="293.21799"
           cy="336.612"
           r="10.754"
           id="circle32" /><path
           style="fill:#2b3237"
           d="m 117.974,343.676 c -1.123,-0.156 -2.123,-0.648 -2.932,-1.36 -0.078,1.209 -0.122,2.429 -0.122,3.662 0,9.969 2.527,19.415 7.119,26.599 2.668,4.174 5.948,7.366 9.642,9.481 0.195,-1.898 1.209,-3.535 2.659,-4.517 -9.382,-5.164 -14.364,-18.678 -14.364,-31.563 0,-0.812 0.026,-1.615 0.063,-2.415 -0.659,0.162 -1.354,0.211 -2.065,0.113 z"
           id="path34"
           inkscape:connector-curvature="0" /><path
           style="fill:#2b3237"
           d="m 195.64,343.612 c 0.037,0.801 0.063,1.605 0.063,2.418 0,12.885 -4.984,26.4 -14.369,31.563 1.452,0.981 2.466,2.618 2.661,4.518 3.693,-2.115 6.974,-5.309 9.642,-9.484 4.592,-7.182 7.12,-16.629 7.12,-26.596 0,-1.233 -0.044,-2.453 -0.122,-3.663 -0.808,0.711 -1.807,1.202 -2.927,1.358 -0.713,0.098 -1.409,0.049 -2.068,-0.114 z"
           id="path36"
           inkscape:connector-curvature="0" /><path
           style="fill:#e6a123"
           d="m 131.681,382.057 c -0.022,0.221 -0.036,0.444 -0.036,0.671 0,3.401 2.618,6.162 5.844,6.162 3.227,0 8.764,-2.76 8.764,-6.162 0,-3.405 -5.537,-6.164 -8.764,-6.164 -1.16,0 -2.239,0.361 -3.148,0.977 -1.451,0.981 -2.465,2.617 -2.66,4.516 z"
           id="path38"
           inkscape:connector-curvature="0" /><path
           style="fill:#e6a123"
           d="m 181.334,377.592 c -0.909,-0.614 -1.987,-0.975 -3.146,-0.975 -3.226,0 -8.76,2.756 -8.76,6.161 0,3.403 5.535,6.162 8.76,6.162 3.226,0 5.843,-2.758 5.843,-6.162 0,-0.226 -0.013,-0.449 -0.036,-0.668 -0.195,-1.9 -1.21,-3.537 -2.661,-4.518 z"
           id="path40"
           inkscape:connector-curvature="0" /><path
           style="fill:#e0dcd3"
           d="m 157.267,292.725 c 7.02,1.595 5.645,0.72 16.101,3.605 1.717,-1.22 4.12,-2.957 6.919,-4.995 12.061,-8.783 31.246,-22.986 32.486,-23.904 0.021,-0.016 0.042,-0.031 0.058,-0.043 0.015,-0.011 0.025,-0.019 0.025,-0.019 l -0.083,-0.049 -32.677,-19.657 v 0 l -20.556,20.58 c 0,0 -0.204,1.984 -0.507,5.064 -0.467,4.753 -1.168,12.116 -1.719,18.841 -0.016,0.193 -0.032,0.385 -0.047,0.577 z"
           id="path42"
           inkscape:connector-curvature="0" /><path
           style="fill:#e0dcd3"
           d="m 212.939,267.321 -0.083,0.049 c 0,0 0.01,0.007 0.023,0.017 0.016,0.012 0.037,0.027 0.06,0.044 1.431,1.059 26.745,19.8 37.446,27.498 2.115,1.521 3.671,2.62 4.346,3.056 4.744,3.064 14.694,7.043 13.788,-4.345 -0.545,-6.854 -1.284,-14.652 -1.786,-19.779 -0.332,-3.393 -0.561,-5.619 -0.561,-5.619 l -4.354,-4.316 -7.625,-7.559 -8.578,-8.674 v 0 z"
           id="path44"
           inkscape:connector-curvature="0" /></g><path
         style="fill:#2b3237"
         d="m 149.649,293.421 c 2.319,-0.443 4.769,-0.7 7.346,-0.703 0.091,0 0.18,0.005 0.271,0.006 0.016,-0.191 0.031,-0.384 0.047,-0.577 -0.167,-4.269 -0.537,-7.964 -0.852,-11.087 -0.28,-2.764 -0.649,-4.97 -0.799,-6.731 -0.154,-1.805 -0.077,-3.142 0.569,-4.116 0.84,-1.266 0.326,-1.996 3.309,-1.971 5.413,-5.365 8.309,-8.094 8.309,-8.094 -1.921,0.551 -5.158,0.327 -6.895,0.304 -3.298,-0.018 -7.392,-0.068 -10.608,4.787 -2.096,3.164 -2.325,6.879 -2.003,11.574 0.107,1.56 0.275,3.227 0.456,5.018 0.342,3.408 0.716,7.19 0.85,11.59 z"
         id="path48"
         inkscape:connector-curvature="0" /><path
         style="fill:#c3bfb8"
         d="m 158.643,301.061 c 0.188,0 0.38,0 0.572,0.002 0.38,0 0.75,0.045 1.112,0.123 11.245,0.5 20.572,3.61 27.805,9.267 -0.808,-3.765 -6.178,-10.128 -14.764,-14.124 -3.894,-1.573 -10.769,-3.636 -16.101,-3.605 -0.091,-10e-4 -0.18,-0.006 -0.271,-0.006 -2.577,0.002 -5.027,0.259 -7.346,0.703 -14.688,2.809 -23.9,13.373 -23.9,17.96 0,0.164 0.023,0.314 0.065,0.453 0.028,-0.024 0.053,-0.05 0.081,-0.074 8.104,-7.101 19.12,-10.699 32.747,-10.699 z"
         id="path50"
         inkscape:connector-curvature="0" /><path
         style="fill:#e0dcd3"
         d="m 202.66,336.909 c -1.27,-10.152 -5.725,-18.83 -12.879,-25.097 -0.33,-0.289 -0.67,-0.564 -1.009,-0.842 -0.212,-0.174 -0.425,-0.348 -0.641,-0.517 -7.233,-5.657 -16.56,-8.767 -27.805,-9.267 -0.361,-0.078 -0.731,-0.123 -1.112,-0.123 -0.192,-0.002 -0.384,-0.002 -0.572,-0.002 -13.626,0 -24.643,3.598 -32.748,10.699 -0.028,0.024 -0.053,0.05 -0.081,0.074 -7.106,6.264 -11.531,14.912 -12.798,25.026 -0.268,2.141 0.562,4.165 2.026,5.455 0.809,0.712 1.81,1.204 2.932,1.36 0.71,0.099 1.406,0.05 2.065,-0.114 2.262,-0.561 4.072,-2.539 4.394,-5.113 1.933,-15.436 13.542,-24.513 31.969,-25.192 0.035,0 0.064,0.005 0.101,0.005 0.014,0 0.029,0 0.042,0 20.011,-0.147 32.67,9.052 34.699,25.238 0.324,2.576 2.134,4.553 4.397,5.113 0.66,0.163 1.355,0.212 2.067,0.113 1.12,-0.156 2.119,-0.646 2.927,-1.358 0.438,-0.385 0.819,-0.835 1.13,-1.336 0.731,-1.175 1.085,-2.619 0.896,-4.122 z"
         id="path52"
         inkscape:connector-curvature="0" /></g></g><g
     id="g57"
     transform="translate(-65.621,-323.927)" /><g
     id="g59"
     transform="translate(-65.621,-323.927)" /><g
     id="g61"
     transform="translate(-65.621,-323.927)" /><g
     id="g63"
     transform="translate(-65.621,-323.927)" /><g
     id="g65"
     transform="translate(-65.621,-323.927)" /><g
     id="g67"
     transform="translate(-65.621,-323.927)" /><g
     id="g69"
     transform="translate(-65.621,-323.927)" /><g
     id="g71"
     transform="translate(-65.621,-323.927)" /><g
     id="g73"
     transform="translate(-65.621,-323.927)" /><g
     id="g75"
     transform="translate(-65.621,-323.927)" /><g
     id="g77"
     transform="translate(-65.621,-323.927)" /><g
     id="g79"
     transform="translate(-65.621,-323.927)" /><g
     id="g81"
     transform="translate(-65.621,-323.927)" /><g
     id="g83"
     transform="translate(-65.621,-323.927)" /><g
     id="g85"
     transform="translate(-65.621,-323.927)" /></svg>