<?xml version="1.0" encoding="UTF-8" standalone="no"?>
<!-- Created with Inkscape (http://www.inkscape.org/) -->

<svg
   xmlns:dc="http://purl.org/dc/elements/1.1/"
   xmlns:cc="http://creativecommons.org/ns#"
   xmlns:rdf="http://www.w3.org/1999/02/22-rdf-syntax-ns#"
   xmlns:svg="http://www.w3.org/2000/svg"
   xmlns="http://www.w3.org/2000/svg"
   xmlns:sodipodi="http://sodipodi.sourceforge.net/DTD/sodipodi-0.dtd"
   xmlns:inkscape="http://www.inkscape.org/namespaces/inkscape"
   width="72.676285"
   height="50"
   viewBox="0 0 19.228934 13.229167"
   version="1.1"
   id="svg8"
   inkscape:version="0.92+devel unknown"
   sodipodi:docname="group.svg">
  <defs
     id="defs2" />
  <sodipodi:namedview
     id="base"
     pagecolor="#ffffff"
     bordercolor="#666666"
     borderopacity="1.0"
     inkscape:pageopacity="0.0"
     inkscape:pageshadow="2"
     inkscape:zoom="1.979899"
     inkscape:cx="171.76514"
     inkscape:cy="105.48726"
     inkscape:document-units="mm"
     inkscape:current-layer="g4837"
     inkscape:document-rotation="0"
     showgrid="false"
     fit-margin-top="0"
     fit-margin-left="0"
     fit-margin-right="0"
     fit-margin-bottom="0"
     units="px"
     inkscape:window-width="1920"
     inkscape:window-height="1012"
     inkscape:window-x="0"
     inkscape:window-y="0"
     inkscape:window-maximized="1" />
  <metadata
     id="metadata5">
    <rdf:RDF>
      <cc:Work
         rdf:about="">
        <dc:format>image/svg+xml</dc:format>
        <dc:type
           rdf:resource="http://purl.org/dc/dcmitype/StillImage" />
        <dc:title></dc:title>
      </cc:Work>
    </rdf:RDF>
  </metadata>
  <g
     inkscape:label="Calque 1"
     inkscape:groupmode="layer"
     id="layer1"
     transform="translate(-5.8656723,-124.44432)">
    <g
       id="g4902"
       transform="matrix(0.03081531,0,0,0.03081531,8.8655707,124.44432)">
      <g
         id="g4840">
        <g
           id="Guides_For_Artboard_25_" />
        <g
           id="Artwork_24_" />
        <g
           id="Layer_2_24_">
          <g
             id="g4837">
            <g
               id="g4593"
               transform="matrix(1.1241647,0,0,1.1241647,-97.350908,-97.350419)"
               style="fill:#d43d21;fill-opacity:1">
              <g
                 id="g4536"
                 style="fill:#d43d21;fill-opacity:1">
                <g
                   id="g4534"
                   style="fill:#d43d21;fill-opacity:1">
                  <path
                     id="path4532"
                     d="m 433.908,332.01 c 8.16,4.08 12.24,11.018 12.24,20.811 v 78.945 14.076 c 0,6.119 -1.836,11.424 -5.508,15.912 -3.672,4.488 -8.365,6.732 -14.076,6.732 H 126.072 c -5.304,0 -9.792,-2.244 -13.464,-6.732 -3.672,-4.488 -5.508,-9.793 -5.508,-15.912 v -14.076 -78.945 c 0,-9.793 4.08,-16.73 12.24,-20.811 l 84.456,-39.168 33.048,-15.3 c -15.504,-9.384 -27.336,-22.848 -35.496,-40.392 -7.752,-15.504 -11.628,-32.028 -11.628,-49.572 0,-5.304 0.408,-10.404 1.224,-15.3 0.816,-4.896 1.836,-9.588 3.06,-14.076 5.712,-20.808 16.014,-37.944 30.906,-51.408 14.892,-13.464 32.13,-20.196 51.714,-20.196 19.991,0 37.536,6.936 52.632,20.808 15.096,13.872 25.297,31.416 30.6,52.632 2.041,10.2 3.063,19.38 3.063,27.54 0,16.32 -3.266,32.028 -9.791,47.124 -8.16,18.36 -19.992,32.232 -35.496,41.616 l 34.883,16.524 z M 107.1,306.305 c -8.976,4.08 -16.014,10.305 -21.114,18.666 -5.1,8.365 -7.65,17.646 -7.65,27.85 v 78.945 H 15.3 c -4.488,0 -8.16,-1.732 -11.016,-5.199 C 1.428,423.096 0,418.711 0,413.409 v -74.666 c 0,-8.979 3.264,-14.689 9.792,-17.137 l 94.86,-44.064 C 93.228,270.606 84.048,260.712 77.112,247.86 70.176,235.008 66.708,220.626 66.708,204.714 c 0,-11.016 1.836,-21.522 5.508,-31.518 3.672,-9.996 8.67,-18.666 14.994,-26.01 6.324,-7.344 13.668,-13.158 22.032,-17.442 8.364,-4.284 17.442,-6.426 27.234,-6.426 6.528,0 12.648,1.02 18.36,3.06 5.712,2.04 11.22,4.692 16.524,7.956 -6.936,17.136 -10.404,34.884 -10.404,53.244 0,14.28 2.04,28.05 6.12,41.31 4.08,13.26 9.792,25.194 17.136,35.802 -4.488,4.896 -9.18,8.772 -14.076,11.628 z m 438.193,15.301 c 6.525,3.264 9.791,8.977 9.791,17.137 v 74.664 c 0,5.303 -1.43,9.688 -4.283,13.158 -2.857,3.467 -6.529,5.199 -11.02,5.199 H 474.91 v -78.945 c 0,-10.201 -2.551,-19.482 -7.648,-27.85 -5.102,-8.361 -11.936,-14.586 -20.502,-18.666 l -60.588,-28.761 c -5.711,-3.264 -11.223,-7.956 -16.523,-14.076 6.938,-10.608 12.342,-22.338 16.217,-35.19 3.877,-12.852 5.814,-26.418 5.814,-40.698 0,-9.384 -0.816,-18.36 -2.447,-26.928 -1.633,-8.568 -4.08,-16.932 -7.344,-25.092 5.303,-3.672 11.016,-6.63 17.135,-8.874 6.121,-2.244 12.445,-3.366 18.975,-3.366 9.793,0 18.973,2.142 27.537,6.426 8.568,4.284 16.018,10.098 22.342,17.442 6.32,7.344 11.318,16.014 14.99,26.01 3.676,9.996 5.512,20.502 5.512,31.518 0,15.504 -3.471,29.682 -10.404,42.534 -6.939,12.852 -15.709,22.746 -26.316,29.682 z"
                     style="fill:#d43d21;fill-opacity:1"
                     inkscape:connector-curvature="0" />
                </g>
              </g>
              <g
                 id="g4538"
                 style="fill:#d43d21;fill-opacity:1" />
              <g
                 id="g4540"
                 style="fill:#d43d21;fill-opacity:1" />
              <g
                 id="g4542"
                 style="fill:#d43d21;fill-opacity:1" />
              <g
                 id="g4544"
                 style="fill:#d43d21;fill-opacity:1" />
              <g
                 id="g4546"
                 style="fill:#d43d21;fill-opacity:1" />
              <g
                 id="g4548"
                 style="fill:#d43d21;fill-opacity:1" />
              <g
                 id="g4550"
                 style="fill:#d43d21;fill-opacity:1" />
              <g
                 id="g4552"
                 style="fill:#d43d21;fill-opacity:1" />
              <g
                 id="g4554"
                 style="fill:#d43d21;fill-opacity:1" />
              <g
                 id="g4556"
                 style="fill:#d43d21;fill-opacity:1" />
              <g
                 id="g4558"
                 style="fill:#d43d21;fill-opacity:1" />
              <g
                 id="g4560"
                 style="fill:#d43d21;fill-opacity:1" />
              <g
                 id="g4562"
                 style="fill:#d43d21;fill-opacity:1" />
              <g
                 id="g4564"
                 style="fill:#d43d21;fill-opacity:1" />
              <g
                 id="g4566"
                 style="fill:#d43d21;fill-opacity:1" />
            </g>
          </g>
        </g>
      </g>
      <g
         id="g4842" />
      <g
         id="g4844" />
      <g
         id="g4846" />
      <g
         id="g4848" />
      <g
         id="g4850" />
      <g
         id="g4852" />
      <g
         id="g4854" />
      <g
         id="g4856" />
      <g
         id="g4858" />
      <g
         id="g4860" />
      <g
         id="g4862" />
      <g
         id="g4864" />
      <g
         id="g4866" />
      <g
         id="g4868" />
      <g
         id="g4870" />
    </g>
  </g>
</svg>
