<?xml version="1.0" encoding="UTF-8" standalone="no"?>
<!-- Generator: Adobe Illustrator 16.0.0, SVG Export Plug-In . SVG Version: 6.00 Build 0)  -->

<svg
   xmlns:dc="http://purl.org/dc/elements/1.1/"
   xmlns:cc="http://creativecommons.org/ns#"
   xmlns:rdf="http://www.w3.org/1999/02/22-rdf-syntax-ns#"
   xmlns:svg="http://www.w3.org/2000/svg"
   xmlns="http://www.w3.org/2000/svg"
   xmlns:sodipodi="http://sodipodi.sourceforge.net/DTD/sodipodi-0.dtd"
   xmlns:inkscape="http://www.inkscape.org/namespaces/inkscape"
   version="1.1"
   id="Capa_1"
   x="0px"
   y="0px"
   width="45.236858"
   height="36"
   viewBox="0 0 45.236858 36"
   xml:space="preserve"
   sodipodi:docname="home-address.svg"
   inkscape:version="0.92+devel unknown"><metadata
     id="metadata45"><rdf:RDF><cc:Work
         rdf:about=""><dc:format>image/svg+xml</dc:format><dc:type
           rdf:resource="http://purl.org/dc/dcmitype/StillImage" /><dc:title /></cc:Work></rdf:RDF></metadata><defs
     id="defs43" /><sodipodi:namedview
     pagecolor="#ffffff"
     bordercolor="#666666"
     inkscape:document-rotation="0"
     borderopacity="1"
     objecttolerance="10"
     gridtolerance="10"
     guidetolerance="10"
     inkscape:pageopacity="0"
     inkscape:pageshadow="2"
     inkscape:window-width="1920"
     inkscape:window-height="1012"
     id="namedview41"
     showgrid="false"
     inkscape:zoom="0.93417946"
     inkscape:cx="285.91787"
     inkscape:cy="93.468252"
     inkscape:window-x="0"
     inkscape:window-y="0"
     inkscape:window-maximized="1"
     inkscape:current-layer="g8"
     fit-margin-top="0"
     fit-margin-left="0"
     fit-margin-right="0"
     fit-margin-bottom="0" /><g
     id="g8"
     transform="translate(5.574698e-4,-377.304)"><g
       id="g6"
       style="fill:#e3e3e3;fill-opacity:1"
       transform="matrix(0.09827742,0,0,0.09827742,-5.0268311e-4,372.68555)"><path
         d="M 230.149,120.939 65.986,256.274 c 0,0.191 -0.048,0.472 -0.144,0.855 -0.094,0.38 -0.144,0.656 -0.144,0.852 v 137.041 c 0,4.948 1.809,9.236 5.426,12.847 3.616,3.613 7.898,5.431 12.847,5.431 h 109.63 V 303.664 h 73.097 v 109.64 h 109.629 c 4.948,0 9.236,-1.814 12.847,-5.435 3.617,-3.607 5.432,-7.898 5.432,-12.847 V 257.981 c 0,-0.76 -0.104,-1.334 -0.288,-1.707 z"
         id="path2"
         style="fill:#e3e3e3;fill-opacity:1"
         inkscape:connector-curvature="0" /><path
         d="M 457.122,225.438 394.6,173.476 V 56.989 c 0,-2.663 -0.856,-4.853 -2.574,-6.567 -1.704,-1.712 -3.894,-2.568 -6.563,-2.568 h -54.816 c -2.666,0 -4.855,0.856 -6.57,2.568 -1.711,1.714 -2.566,3.905 -2.566,6.567 v 55.673 L 251.849,54.417 c -6.084,-4.949 -13.318,-7.423 -21.694,-7.423 -8.375,0 -15.608,2.474 -21.698,7.423 L 3.172,225.438 c -1.903,1.52 -2.946,3.566 -3.14,6.136 -0.193,2.568 0.472,4.811 1.997,6.713 l 17.701,21.128 c 1.525,1.712 3.521,2.759 5.996,3.142 2.285,0.192 4.57,-0.476 6.855,-1.998 L 230.149,95.817 427.719,260.558 c 1.526,1.328 3.521,1.991 5.996,1.991 h 0.858 c 2.471,-0.376 4.463,-1.43 5.996,-3.138 l 17.703,-21.125 c 1.522,-1.906 2.189,-4.145 1.991,-6.716 -0.195,-2.563 -1.242,-4.609 -3.141,-6.132 z"
         id="path4"
         style="fill:#e3e3e3;fill-opacity:1"
         inkscape:connector-curvature="0" /></g></g><g
     id="g10"
     transform="translate(5.574698e-4,-377.304)" /><g
     id="g12"
     transform="translate(5.574698e-4,-377.304)" /><g
     id="g14"
     transform="translate(5.574698e-4,-377.304)" /><g
     id="g16"
     transform="translate(5.574698e-4,-377.304)" /><g
     id="g18"
     transform="translate(5.574698e-4,-377.304)" /><g
     id="g20"
     transform="translate(5.574698e-4,-377.304)" /><g
     id="g22"
     transform="translate(5.574698e-4,-377.304)" /><g
     id="g24"
     transform="translate(5.574698e-4,-377.304)" /><g
     id="g26"
     transform="translate(5.574698e-4,-377.304)" /><g
     id="g28"
     transform="translate(5.574698e-4,-377.304)" /><g
     id="g30"
     transform="translate(5.574698e-4,-377.304)" /><g
     id="g32"
     transform="translate(5.574698e-4,-377.304)" /><g
     id="g34"
     transform="translate(5.574698e-4,-377.304)" /><g
     id="g36"
     transform="translate(5.574698e-4,-377.304)" /><g
     id="g38"
     transform="translate(5.574698e-4,-377.304)" /></svg>