<?xml version="1.0" encoding="UTF-8" standalone="no"?>
<!-- Generator: Adobe Illustrator 19.0.0, SVG Export Plug-In . SVG Version: 6.00 Build 0)  -->

<svg
   xmlns:dc="http://purl.org/dc/elements/1.1/"
   xmlns:cc="http://creativecommons.org/ns#"
   xmlns:rdf="http://www.w3.org/1999/02/22-rdf-syntax-ns#"
   xmlns:svg="http://www.w3.org/2000/svg"
   xmlns="http://www.w3.org/2000/svg"
   xmlns:sodipodi="http://sodipodi.sourceforge.net/DTD/sodipodi-0.dtd"
   xmlns:inkscape="http://www.inkscape.org/namespaces/inkscape"
   version="1.1"
   id="Capa_1"
   x="0px"
   y="0px"
   viewBox="0 0 99.999998 99.999998"
   xml:space="preserve"
   sodipodi:docname="report.svg"
   width="100"
   height="100"
   inkscape:version="0.92+devel unknown"><metadata
     id="metadata60"><rdf:RDF><cc:Work
         rdf:about=""><dc:format>image/svg+xml</dc:format><dc:type
           rdf:resource="http://purl.org/dc/dcmitype/StillImage" /><dc:title></dc:title></cc:Work></rdf:RDF></metadata><defs
     id="defs58" /><sodipodi:namedview
     pagecolor="#ffffff"
     bordercolor="#666666"
     inkscape:document-rotation="0"
     borderopacity="1"
     objecttolerance="10"
     gridtolerance="10"
     guidetolerance="10"
     inkscape:pageopacity="0"
     inkscape:pageshadow="2"
     inkscape:window-width="1920"
     inkscape:window-height="1003"
     id="namedview56"
     showgrid="false"
     fit-margin-top="0"
     fit-margin-left="0"
     fit-margin-right="0"
     fit-margin-bottom="0"
     inkscape:zoom="1.0438257"
     inkscape:cx="-79.788539"
     inkscape:cy="115.37804"
     inkscape:window-x="0"
     inkscape:window-y="0"
     inkscape:window-maximized="1"
     inkscape:current-layer="Capa_1" /><circle
     style="fill:#f5f5f5;fill-opacity:1;stroke-width:0.15284213"
     id="path4319"
     cx="50"
     cy="50"
     r="50" /><g
     id="g25"
     transform="translate(-57.221077,-33.104851)" /><g
     id="g27"
     transform="translate(-57.221077,-33.104851)" /><g
     id="g29"
     transform="translate(-57.221077,-33.104851)" /><g
     id="g31"
     transform="translate(-57.221077,-33.104851)" /><g
     id="g33"
     transform="translate(-57.221077,-33.104851)" /><g
     id="g35"
     transform="translate(-57.221077,-33.104851)" /><g
     id="g37"
     transform="translate(-57.221077,-33.104851)" /><g
     id="g39"
     transform="translate(-57.221077,-33.104851)" /><g
     id="g41"
     transform="translate(-57.221077,-33.104851)" /><g
     id="g43"
     transform="translate(-57.221077,-33.104851)" /><g
     id="g45"
     transform="translate(-57.221077,-33.104851)" /><g
     id="g47"
     transform="translate(-57.221077,-33.104851)" /><g
     id="g49"
     transform="translate(-57.221077,-33.104851)" /><g
     id="g51"
     transform="translate(-57.221077,-33.104851)" /><g
     id="g53"
     transform="translate(-57.221077,-33.104851)" /><g
     id="g4669"
     transform="matrix(0.15373223,0,0,0.15373223,20.000001,20.000001)"><g
       id="g4596"><g
         id="Guides_For_Artboard_23_" /><g
         id="Artwork_22_" /><g
         id="Layer_2_22_"><g
           id="g4593"><path
             id="path4565"
             d="m 308.679,28.746 c -0.651,5.487 -5.312,9.746 -10.976,9.746 h -26.34 c -0.576,7.128 -6.532,12.737 -13.81,12.737 H 138.021 c -7.277,0 -13.234,-5.609 -13.809,-12.737 H 92.585 c -5.664,0 -10.325,-4.259 -10.976,-9.746 -9.474,4.153 -16.022,13.043 -16.022,23.342 v 178.63 133.726 c 0,14.274 12.577,25.845 28.09,25.845 H 265.1 v -31.512 c 0,-15.514 11.57,-28.09 25.845,-28.09 h 33.757 V 230.718 52.088 C 324.701,41.789 318.153,32.899 308.679,28.746 Z M 131,291.179 c 0,3.883 -3.148,7.031 -7.031,7.031 h -23.201 c -3.883,0 -7.03,-3.148 -7.03,-7.031 v -23.2 c 0,-3.883 3.147,-7.031 7.03,-7.031 h 23.201 c 3.883,0 7.031,3.148 7.031,7.031 z m 0,-55.893 c 0,3.883 -3.148,7.03 -7.031,7.03 h -23.201 c -3.883,0 -7.03,-3.147 -7.03,-7.03 v -23.201 c 0,-3.882 3.147,-7.03 7.03,-7.03 h 23.201 c 3.883,0 7.031,3.148 7.031,7.03 z m 0,-55.892 c 0,3.883 -3.148,7.03 -7.031,7.03 h -23.201 c -3.883,0 -7.03,-3.147 -7.03,-7.03 v -23.201 c 0,-3.882 3.147,-7.03 7.03,-7.03 h 23.201 c 3.883,0 7.031,3.148 7.031,7.03 z m 0,-55.893 c 0,3.882 -3.148,7.03 -7.031,7.03 h -23.201 c -3.883,0 -7.03,-3.148 -7.03,-7.03 V 100.3 c 0,-3.882 3.147,-7.03 7.03,-7.03 h 23.201 c 3.883,0 7.031,3.148 7.031,7.03 z m 88.948,219.779 c 0,3.493 -2.83,6.324 -6.325,6.324 h -10.039 v 10.04 c 0,3.493 -2.831,6.326 -6.324,6.326 h -3.652 -0.576 c -3.493,0 -6.325,-2.833 -6.325,-6.326 v -10.04 h -10.041 c -3.491,0 -6.323,-2.831 -6.323,-6.324 v -4.229 c 0,-3.492 2.832,-6.323 6.323,-6.323 h 10.041 v -10.041 c 0,-3.492 2.832,-6.324 6.325,-6.324 h 0.576 3.652 c 3.493,0 6.324,2.832 6.324,6.324 v 10.041 h 10.039 c 3.495,0 6.325,2.831 6.325,6.323 z m 77.655,-46.764 H 148.784 c -2.339,0 -4.234,-1.896 -4.234,-4.233 0,-2.34 1.896,-4.235 4.234,-4.235 h 148.819 c 2.339,0 4.234,1.896 4.234,4.235 0,2.337 -1.895,4.233 -4.234,4.233 z m 0,-55.893 H 148.784 c -2.339,0 -4.234,-1.896 -4.234,-4.233 0,-2.34 1.896,-4.235 4.234,-4.235 h 148.819 c 2.339,0 4.234,1.896 4.234,4.235 0,2.338 -1.895,4.233 -4.234,4.233 z m 0,-55.893 H 148.784 c -2.339,0 -4.234,-1.896 -4.234,-4.234 0,-2.338 1.896,-4.234 4.234,-4.234 h 148.819 c 2.339,0 4.234,1.896 4.234,4.234 0,2.338 -1.895,4.234 -4.234,4.234 z m 0,-55.892 H 148.784 c -2.339,0 -4.234,-1.896 -4.234,-4.234 0,-2.338 1.896,-4.235 4.234,-4.235 h 148.819 c 2.339,0 4.234,1.896 4.234,4.235 0,2.339 -1.895,4.234 -4.234,4.234 z"
             style="fill:#f7f1e6"
             inkscape:connector-curvature="0" /><path
             id="path4567"
             d="m 265.1,358.776 v 31.512 l 59.602,-59.602 h -33.757 c -14.275,0.001 -25.845,12.577 -25.845,28.09 z"
             style="fill:#e0dcd3"
             inkscape:connector-curvature="0" /><path
             id="path4569"
             d="m 270.364,39.492 h 27.34 c 5.664,0 10.324,-4.259 10.976,-9.746 0.051,-0.433 0.085,-0.869 0.085,-1.314 0,-6.109 -4.951,-11.062 -11.061,-11.062 h -27.283 c -10e-4,0 -0.028,21.749 -0.057,22.122 z"
             style="fill:#77a7a2"
             inkscape:connector-curvature="0" /><path
             id="path4571"
             d="m 92.585,39.492 h 32.627 c -0.03,-0.373 -0.057,-22.122 -0.057,-22.122 h -32.57 c -6.109,0 -11.061,4.952 -11.061,11.062 0,0.445 0.034,0.883 0.085,1.314 0.652,5.487 5.312,9.746 10.976,9.746 z"
             style="fill:#77a7a2"
             inkscape:connector-curvature="0" /><path
             id="path4573"
             d="m 123.969,93.27 h -23.201 c -3.883,0 -7.03,3.148 -7.03,7.03 v 23.201 c 0,3.882 3.147,7.03 7.03,7.03 h 23.201 c 3.883,0 7.031,-3.148 7.031,-7.03 V 100.3 c 0,-3.882 -3.148,-7.03 -7.031,-7.03 z"
             style="fill:#dec8ae"
             inkscape:connector-curvature="0" /><path
             id="path4575"
             d="M 297.603,120.368 H 148.784 c -2.339,0 -4.234,1.896 -4.234,4.235 0,2.339 1.896,4.234 4.234,4.234 h 148.819 c 2.339,0 4.234,-1.896 4.234,-4.234 0,-2.338 -1.895,-4.235 -4.234,-4.235 z"
             style="fill:#dec8ae"
             inkscape:connector-curvature="0" /><path
             id="path4577"
             d="m 123.969,149.162 h -23.201 c -3.883,0 -7.03,3.148 -7.03,7.03 v 23.201 c 0,3.883 3.147,7.03 7.03,7.03 h 23.201 c 3.883,0 7.031,-3.147 7.031,-7.03 v -23.201 c 0,-3.881 -3.148,-7.03 -7.031,-7.03 z"
             style="fill:#dec8ae"
             inkscape:connector-curvature="0" /><path
             id="path4579"
             d="M 297.603,176.262 H 148.784 c -2.339,0 -4.234,1.896 -4.234,4.234 0,2.338 1.896,4.234 4.234,4.234 h 148.819 c 2.339,0 4.234,-1.896 4.234,-4.234 0,-2.338 -1.895,-4.234 -4.234,-4.234 z"
             style="fill:#dec8ae"
             inkscape:connector-curvature="0" /><path
             id="path4581"
             d="m 123.969,205.055 h -23.201 c -3.883,0 -7.03,3.148 -7.03,7.03 v 23.201 c 0,3.883 3.147,7.03 7.03,7.03 h 23.201 c 3.883,0 7.031,-3.147 7.031,-7.03 v -23.201 c 0,-3.882 -3.148,-7.03 -7.031,-7.03 z"
             style="fill:#dec8ae"
             inkscape:connector-curvature="0" /><path
             id="path4583"
             d="M 297.603,232.154 H 148.784 c -2.339,0 -4.234,1.896 -4.234,4.235 0,2.338 1.896,4.233 4.234,4.233 h 148.819 c 2.339,0 4.234,-1.896 4.234,-4.233 0,-2.339 -1.895,-4.235 -4.234,-4.235 z"
             style="fill:#dec8ae"
             inkscape:connector-curvature="0" /><path
             id="path4585"
             d="m 123.969,260.947 h -23.201 c -3.883,0 -7.03,3.148 -7.03,7.031 v 23.2 c 0,3.883 3.147,7.031 7.03,7.031 h 23.201 c 3.883,0 7.031,-3.148 7.031,-7.031 v -23.2 c 0,-3.882 -3.148,-7.031 -7.031,-7.031 z"
             style="fill:#dec8ae"
             inkscape:connector-curvature="0" /><path
             id="path4587"
             d="M 297.603,288.047 H 148.784 c -2.339,0 -4.234,1.896 -4.234,4.235 0,2.338 1.896,4.233 4.234,4.233 h 148.819 c 2.339,0 4.234,-1.896 4.234,-4.233 0,-2.34 -1.895,-4.235 -4.234,-4.235 z"
             style="fill:#dec8ae"
             inkscape:connector-curvature="0" /><path
             id="path4589"
             d="m 124.155,38.364 c 0,0.381 0.027,0.755 0.057,1.128 0.575,7.128 6.532,12.737 13.809,12.737 h 119.533 c 7.277,0 13.233,-5.609 13.81,-12.737 0.029,-0.373 0.057,-0.747 0.057,-1.128 V 17.37 13.866 C 271.421,6.208 265.213,0 257.555,0 H 138.021 c -7.658,0 -13.866,6.208 -13.866,13.866 v 3.504 z"
             style="fill:#81b6b2"
             inkscape:connector-curvature="0" /><path
             id="path4591"
             d="m 213.622,332.728 h -10.039 v -10.041 c 0,-3.492 -2.831,-6.324 -6.324,-6.324 h -3.652 -0.576 c -3.493,0 -6.325,2.832 -6.325,6.324 v 10.041 h -10.041 c -3.491,0 -6.323,2.831 -6.323,6.323 v 4.229 c 0,3.493 2.832,6.324 6.323,6.324 h 10.041 v 10.04 c 0,3.493 2.832,6.326 6.325,6.326 h 0.576 3.652 c 3.493,0 6.324,-2.833 6.324,-6.326 v -10.04 h 10.039 c 3.495,0 6.325,-2.831 6.325,-6.324 v -4.229 c 0.001,-3.492 -2.83,-6.323 -6.325,-6.323 z"
             style="fill:#e74424"
             inkscape:connector-curvature="0" /></g></g></g><g
       id="g4598" /><g
       id="g4600" /><g
       id="g4602" /><g
       id="g4604" /><g
       id="g4606" /><g
       id="g4608" /><g
       id="g4610" /><g
       id="g4612" /><g
       id="g4614" /><g
       id="g4616" /><g
       id="g4618" /><g
       id="g4620" /><g
       id="g4622" /><g
       id="g4624" /><g
       id="g4626" /></g></svg>