<?xml version="1.0" encoding="UTF-8" standalone="no"?>
<!-- Generator: Adobe Illustrator 19.0.0, SVG Export Plug-In . SVG Version: 6.00 Build 0)  -->

<svg
   xmlns:dc="http://purl.org/dc/elements/1.1/"
   xmlns:cc="http://creativecommons.org/ns#"
   xmlns:rdf="http://www.w3.org/1999/02/22-rdf-syntax-ns#"
   xmlns:svg="http://www.w3.org/2000/svg"
   xmlns="http://www.w3.org/2000/svg"
   xmlns:sodipodi="http://sodipodi.sourceforge.net/DTD/sodipodi-0.dtd"
   xmlns:inkscape="http://www.inkscape.org/namespaces/inkscape"
   version="1.1"
   id="Layer_1"
   x="0px"
   y="0px"
   viewBox="0 0 40 68.658997"
   xml:space="preserve"
   sodipodi:docname="linkedin.svg"
   width="40"
   height="68.658997"
   inkscape:version="0.92+devel unknown"><metadata
     id="metadata41"><rdf:RDF><cc:Work
         rdf:about=""><dc:format>image/svg+xml</dc:format><dc:type
           rdf:resource="http://purl.org/dc/dcmitype/StillImage" /><dc:title></dc:title></cc:Work></rdf:RDF></metadata><defs
     id="defs39" /><sodipodi:namedview
     pagecolor="#ffffff"
     bordercolor="#666666"
     inkscape:document-rotation="0"
     borderopacity="1"
     objecttolerance="10"
     gridtolerance="10"
     guidetolerance="10"
     inkscape:pageopacity="0"
     inkscape:pageshadow="2"
     inkscape:window-width="1920"
     inkscape:window-height="1012"
     id="namedview37"
     showgrid="false"
     fit-margin-top="0"
     fit-margin-left="0"
     fit-margin-right="0"
     fit-margin-bottom="0"
     inkscape:zoom="1.3870968"
     inkscape:cx="-113.81291"
     inkscape:cy="47.029053"
     inkscape:window-x="0"
     inkscape:window-y="0"
     inkscape:window-maximized="1"
     inkscape:current-layer="Layer_1" /><g
     id="XMLID_801_"
     style="fill:#f4a535;fill-opacity:1"
     transform="matrix(0.1034534,0,0,0.1034534,3.964723,36.623722)"><path
       id="XMLID_802_"
       d="M 72.16,99.73 H 9.927 c -2.762,0 -5,2.239 -5,5 v 199.928 c 0,2.762 2.238,5 5,5 H 72.16 c 2.762,0 5,-2.238 5,-5 V 104.73 c 0,-2.761 -2.238,-5 -5,-5 z"
       style="fill:#f4a535;fill-opacity:1"
       inkscape:connector-curvature="0" /><path
       id="XMLID_803_"
       d="M 41.066,0.341 C 18.422,0.341 0,18.743 0,41.362 0,63.991 18.422,82.4 41.066,82.4 63.692,82.4 82.099,63.99 82.099,41.362 82.1,18.743 63.692,0.341 41.066,0.341 Z"
       style="fill:#f4a535;fill-opacity:1"
       inkscape:connector-curvature="0" /><path
       id="XMLID_804_"
       d="m 230.454,94.761 c -24.995,0 -43.472,10.745 -54.679,22.954 V 104.73 c 0,-2.761 -2.238,-5 -5,-5 h -59.599 c -2.762,0 -5,2.239 -5,5 v 199.928 c 0,2.762 2.238,5 5,5 h 62.097 c 2.762,0 5,-2.238 5,-5 V 205.74 c 0,-33.333 9.054,-46.319 32.29,-46.319 25.306,0 27.317,20.818 27.317,48.034 v 97.204 c 0,2.762 2.238,5 5,5 H 305 c 2.762,0 5,-2.238 5,-5 V 194.995 C 310,145.43 300.549,94.761 230.454,94.761 Z"
       style="fill:#f4a535;fill-opacity:1"
       inkscape:connector-curvature="0" /></g><g
     id="g6"
     transform="translate(0,-241)" /><g
     id="g8"
     transform="translate(0,-241)" /><g
     id="g10"
     transform="translate(0,-241)" /><g
     id="g12"
     transform="translate(0,-241)" /><g
     id="g14"
     transform="translate(0,-241)" /><g
     id="g16"
     transform="translate(0,-241)" /><g
     id="g18"
     transform="translate(0,-241)" /><g
     id="g20"
     transform="translate(0,-241)" /><g
     id="g22"
     transform="translate(0,-241)" /><g
     id="g24"
     transform="translate(0,-241)" /><g
     id="g26"
     transform="translate(0,-241)" /><g
     id="g28"
     transform="translate(0,-241)" /><g
     id="g30"
     transform="translate(0,-241)" /><g
     id="g32"
     transform="translate(0,-241)" /><g
     id="g34"
     transform="translate(0,-241)" /><g
     transform="matrix(0.1034534,0,0,0.1034534,3.964723,-0.03527761)"
     id="XMLID_801_-3"
     style="fill:#0077b5;fill-opacity:1"
     inkscape:transform-center-x="-11.336568"
     inkscape:transform-center-y="1.1933265"><path
       inkscape:connector-curvature="0"
       id="XMLID_802_-6"
       d="M 72.16,99.73 H 9.927 c -2.762,0 -5,2.239 -5,5 v 199.928 c 0,2.762 2.238,5 5,5 H 72.16 c 2.762,0 5,-2.238 5,-5 V 104.73 c 0,-2.761 -2.238,-5 -5,-5 z"
       style="fill:#0077b5;fill-opacity:1" /><path
       inkscape:connector-curvature="0"
       id="XMLID_803_-7"
       d="M 41.066,0.341 C 18.422,0.341 0,18.743 0,41.362 0,63.991 18.422,82.4 41.066,82.4 63.692,82.4 82.099,63.99 82.099,41.362 82.1,18.743 63.692,0.341 41.066,0.341 Z"
       style="fill:#0077b5;fill-opacity:1" /><path
       inkscape:connector-curvature="0"
       id="XMLID_804_-5"
       d="m 230.454,94.761 c -24.995,0 -43.472,10.745 -54.679,22.954 V 104.73 c 0,-2.761 -2.238,-5 -5,-5 h -59.599 c -2.762,0 -5,2.239 -5,5 v 199.928 c 0,2.762 2.238,5 5,5 h 62.097 c 2.762,0 5,-2.238 5,-5 V 205.74 c 0,-33.333 9.054,-46.319 32.29,-46.319 25.306,0 27.317,20.818 27.317,48.034 v 97.204 c 0,2.762 2.238,5 5,5 H 305 c 2.762,0 5,-2.238 5,-5 V 194.995 C 310,145.43 300.549,94.761 230.454,94.761 Z"
       style="fill:#0077b5;fill-opacity:1" /></g></svg>