<?xml version="1.0" encoding="UTF-8" standalone="no"?>
<!-- Created with Inkscape (http://www.inkscape.org/) -->

<svg
   xmlns:dc="http://purl.org/dc/elements/1.1/"
   xmlns:cc="http://creativecommons.org/ns#"
   xmlns:rdf="http://www.w3.org/1999/02/22-rdf-syntax-ns#"
   xmlns:svg="http://www.w3.org/2000/svg"
   xmlns="http://www.w3.org/2000/svg"
   xmlns:sodipodi="http://sodipodi.sourceforge.net/DTD/sodipodi-0.dtd"
   xmlns:inkscape="http://www.inkscape.org/namespaces/inkscape"
   width="35.207138"
   height="50"
   viewBox="0 0 9.3152222 13.229167"
   version="1.1"
   id="svg8"
   inkscape:version="0.92+devel unknown"
   sodipodi:docname="marker.svg">
  <defs
     id="defs2" />
  <sodipodi:namedview
     id="base"
     pagecolor="#ffffff"
     bordercolor="#666666"
     borderopacity="1.0"
     inkscape:pageopacity="0.0"
     inkscape:pageshadow="2"
     inkscape:zoom="5.6"
     inkscape:cx="13.405083"
     inkscape:cy="27.726641"
     inkscape:document-units="mm"
     inkscape:current-layer="g4837"
     inkscape:document-rotation="0"
     showgrid="false"
     fit-margin-top="0"
     fit-margin-left="0"
     fit-margin-right="0"
     fit-margin-bottom="0"
     units="px"
     inkscape:window-width="1920"
     inkscape:window-height="1012"
     inkscape:window-x="0"
     inkscape:window-y="0"
     inkscape:window-maximized="1" />
  <metadata
     id="metadata5">
    <rdf:RDF>
      <cc:Work
         rdf:about="">
        <dc:format>image/svg+xml</dc:format>
        <dc:type
           rdf:resource="http://purl.org/dc/dcmitype/StillImage" />
        <dc:title />
      </cc:Work>
    </rdf:RDF>
  </metadata>
  <g
     inkscape:label="Calque 1"
     inkscape:groupmode="layer"
     id="layer1"
     transform="translate(-10.822528,-124.44432)">
    <g
       id="g4902"
       transform="matrix(0.03081531,0,0,0.03081531,8.8655707,124.44432)">
      <g
         id="g4840">
        <g
           id="Guides_For_Artboard_25_" />
        <g
           id="Artwork_24_" />
        <g
           id="Layer_2_24_">
          <g
             id="g4837">
            <path
               id="path4831"
               d="M 214.652,0 C 131.177,0 63.506,67.671 63.506,151.146 c 0,83.476 103.891,278.159 151.146,278.159 47.255,0 151.146,-194.684 151.146,-278.159 C 365.798,67.671 298.127,0 214.652,0 Z m 0,256.502 c -56.819,0 -102.881,-46.062 -102.881,-102.881 0,-56.819 46.062,-102.879 102.881,-102.879 56.819,0 102.881,46.06 102.881,102.879 0,56.819 -46.062,102.881 -102.881,102.881 z"
               style="fill:#d43d21"
               inkscape:connector-curvature="0" />
            <path
               id="path4833"
               d="m 214.652,50.742 c -56.819,0 -102.881,46.06 -102.881,102.879 0,56.819 46.061,102.881 102.881,102.881 56.82,0 102.881,-46.062 102.881,-102.881 0,-56.819 -46.062,-102.879 -102.881,-102.879 z m 51.499,107.269 c 0,7.251 -5.878,13.129 -13.132,13.129 h -20.846 v 20.847 c 0,7.253 -5.877,13.133 -13.131,13.133 h -7.585 -1.195 c -7.252,0 -13.134,-5.88 -13.134,-13.133 V 171.14 h -20.846 c -7.248,0 -13.128,-5.878 -13.128,-13.129 v -8.784 c 0,-7.25 5.88,-13.129 13.128,-13.129 h 20.846 v -20.845 c 0,-7.254 5.882,-13.132 13.134,-13.132 h 1.195 7.585 c 7.254,0 13.131,5.878 13.131,13.132 v 20.845 h 20.846 c 7.254,0 13.132,5.879 13.132,13.129 z"
               style="fill:#f7f1e6"
               inkscape:connector-curvature="0" />
            <path
               id="path4835"
               d="m 253.019,136.098 h -20.846 v -20.845 c 0,-7.254 -5.877,-13.132 -13.131,-13.132 h -7.585 -1.195 c -7.252,0 -13.134,5.878 -13.134,13.132 v 20.845 h -20.846 c -7.248,0 -13.128,5.879 -13.128,13.129 v 8.784 c 0,7.251 5.88,13.129 13.128,13.129 h 20.846 v 20.847 c 0,7.253 5.882,13.133 13.134,13.133 h 1.195 7.585 c 7.254,0 13.131,-5.88 13.131,-13.133 V 171.14 h 20.846 c 7.254,0 13.132,-5.878 13.132,-13.129 v -8.784 c 0,-7.25 -5.878,-13.129 -13.132,-13.129 z"
               style="fill:#e74424"
               inkscape:connector-curvature="0" />
          </g>
        </g>
      </g>
      <g
         id="g4842" />
      <g
         id="g4844" />
      <g
         id="g4846" />
      <g
         id="g4848" />
      <g
         id="g4850" />
      <g
         id="g4852" />
      <g
         id="g4854" />
      <g
         id="g4856" />
      <g
         id="g4858" />
      <g
         id="g4860" />
      <g
         id="g4862" />
      <g
         id="g4864" />
      <g
         id="g4866" />
      <g
         id="g4868" />
      <g
         id="g4870" />
    </g>
  </g>
</svg>
