<?xml version="1.0" encoding="UTF-8" standalone="no"?>
<!-- Generator: Adobe Illustrator 19.0.0, SVG Export Plug-In . SVG Version: 6.00 Build 0)  -->

<svg
   xmlns:dc="http://purl.org/dc/elements/1.1/"
   xmlns:cc="http://creativecommons.org/ns#"
   xmlns:rdf="http://www.w3.org/1999/02/22-rdf-syntax-ns#"
   xmlns:svg="http://www.w3.org/2000/svg"
   xmlns="http://www.w3.org/2000/svg"
   xmlns:sodipodi="http://sodipodi.sourceforge.net/DTD/sodipodi-0.dtd"
   xmlns:inkscape="http://www.inkscape.org/namespaces/inkscape"
   version="1.1"
   id="Capa_1"
   x="0px"
   y="0px"
   viewBox="0 0 95.451246 99.999997"
   xml:space="preserve"
   sodipodi:docname="medicine.svg"
   width="95.451248"
   height="100"
   inkscape:version="0.92.1 r15371"><metadata
     id="metadata62"><rdf:RDF><cc:Work
         rdf:about=""><dc:format>image/svg+xml</dc:format><dc:type
           rdf:resource="http://purl.org/dc/dcmitype/StillImage" /><dc:title></dc:title></cc:Work></rdf:RDF></metadata><defs
     id="defs60" /><sodipodi:namedview
     pagecolor="#ffffff"
     bordercolor="#666666"
     borderopacity="1"
     objecttolerance="10"
     gridtolerance="10"
     guidetolerance="10"
     inkscape:pageopacity="0"
     inkscape:pageshadow="2"
     inkscape:window-width="2736"
     inkscape:window-height="1699"
     id="namedview58"
     showgrid="false"
     fit-margin-top="0"
     fit-margin-left="0"
     fit-margin-right="0"
     fit-margin-bottom="0"
     inkscape:zoom="0.6117381"
     inkscape:cx="184.11839"
     inkscape:cy="192.89252"
     inkscape:window-x="-13"
     inkscape:window-y="-13"
     inkscape:window-maximized="1"
     inkscape:current-layer="Capa_1" /><g
     id="g25"
     transform="matrix(0.25921138,0,0,0.25921138,-2.2744793,0)"><g
       id="Guides_For_Artboard_24_" /><g
       id="Artwork_23_" /><g
       id="Layer_2_23_"><g
         id="g22"><g
           id="g8"><path
             style="fill:#d43d21"
             d="m 182.171,125.785 c -0.39,0.058 -0.77,0.081 -1.153,0.12 v 66.619 c 8.89,1.581 18.783,0.154 25.84,-0.82 v -65.451 c -0.741,-0.095 -1.472,-0.24 -2.182,-0.46 -9.206,-2.845 -10.509,-1.786 -22.505,-0.008 z"
             id="path4"
             inkscape:connector-curvature="0" /><path
             style="fill:#d43d21"
             d="m 194.102,0 c -16.121,0 -29.189,13.068 -29.189,29.189 0,11.415 6.556,21.293 16.104,26.092 v 3.975 c 0.177,-0.007 0.354,-0.013 0.526,-0.021 h 24.007 c 0.421,0.021 0.859,0.034 1.307,0.041 V 55.451 C 216.586,50.717 223.292,40.737 223.292,29.19 223.292,13.068 210.224,0 194.102,0 Z"
             id="path6"
             inkscape:connector-curvature="0" /></g><path
           style="fill:none"
           d="m 216.928,264.451 c 6.499,-5.537 9.923,-11.332 9.923,-16.837 0,-5.238 1.412,-15.716 -19.993,-25.257 v 49.227 c 3.339,-1.914 6.817,-4.361 10.07,-7.133 z"
           id="path10"
           inkscape:connector-curvature="0" /><path
           style="fill:none"
           d="m 157.774,246.631 c 0,5.776 3.14,12.595 9.892,17.82 5.283,4.089 8.446,5.347 13.352,8.426 v -51.94 c -24.857,9.746 -23.244,20.061 -23.244,25.694 z"
           id="path12"
           inkscape:connector-curvature="0" /><path
           style="fill:#d43d21"
           d="m 181.017,219.936 v 53.94 c 10.144,6.057 18.985,2.208 23.113,0.17 0.893,-0.44 1.806,-0.936 2.727,-1.463 v -51.227 c -1.091,-0.486 -2.222,-0.971 -3.434,-1.451 l -0.001,0.091 c -7.174,-3.333 -11.525,-2.587 -20.475,-0.802 -0.664,0.247 -1.299,0.495 -1.93,0.742 z"
           id="path14"
           inkscape:connector-curvature="0" /><path
           style="fill:#d43d21"
           d="m 181.017,310.696 v 55.987 c -0.009,0.189 -0.028,0.377 -0.028,0.569 0,7.151 5.792,12.949 12.935,12.949 7.143,0 12.932,-5.797 12.934,-12.948 v -54.288 c -1.433,-1.116 -2.951,-2.203 -4.558,-3.251 -7.076,-3.891 -14.263,-3.786 -21.283,0.982 z"
           id="path16"
           inkscape:connector-curvature="0" /><path
           style="fill:#2b3237"
           d="m 203.423,220.997 0.001,-0.091 c 1.212,0.48 2.343,0.965 3.434,1.451 21.405,9.541 19.993,20.019 19.993,25.257 0,5.505 -3.424,11.3 -9.923,16.837 -3.253,2.772 -6.73,5.219 -10.07,7.133 -0.921,0.527 -1.834,1.022 -2.727,1.463 -4.128,2.038 -12.97,5.887 -23.113,-0.17 -4.905,-3.079 -8.068,-4.337 -13.352,-8.426 -6.752,-5.226 -9.892,-12.044 -9.892,-17.82 0,-5.633 -1.613,-15.947 23.243,-25.694 0.631,-0.247 1.266,-0.495 1.931,-0.741 8.949,-1.786 13.301,-2.532 20.475,0.801 z m -22.406,-29.473 c -0.579,-0.103 -1.155,-0.215 -1.725,-0.345 -9.918,-2.257 -19.629,-4.251 -40.388,-10.003 -19.88,-5.268 -41.76,-13.786 -45.014,-18.13 0.253,-0.25 0.627,-0.517 1.254,-0.767 1.747,-1 4.875,-1.859 8.375,-2.626 7.376,-1.5 17.256,-2.25 27.259,-2.75 19.882,-0.609 21.394,0.391 23.757,0.25 2.362,-0.142 14.446,-0.291 14.826,-9.478 0.379,-9.187 -6.162,-9.857 -11.287,-10.89 -8.125,-1.109 -4.666,-0.765 -15.669,-0.623 -18.253,1.375 -74.146,-3.143 -81.147,26.241 0,0.859 -0.124,1.376 -0.25,2.142 2.374,25.601 55.516,36.761 93.9,44.356 -13.004,8.909 -20.006,20.537 -22.754,35.667 -1.376,16.005 11.377,31.259 41.013,48.232 -22.507,15.88 -37.264,30.884 -36.011,48.921 1.82,13.42 12.942,30.984 34.096,43.347 2.104,1.229 5.139,1.093 2.952,-2.569 -5.301,-8.879 -14.496,-25.626 -15.294,-36.183 -1.096,-7.654 2.627,-18.535 18.176,-31.46 1.303,-1.229 2.614,-2.268 3.931,-3.162 7.02,-4.768 14.206,-4.873 21.282,-0.981 1.606,1.048 3.125,2.135 4.558,3.251 14.065,10.958 19.847,24.778 18.825,32.353 -0.792,10.494 -9.759,27.178 -15.199,36.021 -1.82,2.959 0.055,4.459 2.943,2.687 20.94,-12.849 32.188,-29.858 34.01,-43.303 1.254,-18.037 -13.504,-33.041 -35.916,-48.921 29.541,-16.974 42.295,-32.228 40.918,-48.232 -2.748,-15.004 -9.75,-26.633 -22.754,-35.667 38.385,-7.596 91.526,-18.756 93.9,-44.356 -0.126,-0.766 -0.25,-1.282 -0.25,-2.142 -7.002,-29.384 -62.895,-24.866 -81.146,-26.241 -11.004,-0.142 -9.636,-0.209 -14.786,-0.188 -5.151,0.02 -11.809,2.73 -11.976,10.941 -0.166,8.21 9.308,10.326 14.631,10.237 3.111,-0.052 3.875,-0.859 23.758,-0.125 10.002,0.375 19.882,1.125 27.131,2.625 3.628,0.767 6.629,1.626 8.503,2.626 0.5,0.25 1,0.517 1.253,0.767 -3.254,4.344 -25.134,12.862 -45.014,18.13 -18.237,5.054 -33.373,8.459 -37.405,9.332 -0.46,0.062 -0.937,0.128 -1.426,0.195 -7.056,0.975 -16.95,2.402 -25.84,0.821 z"
           id="path18"
           inkscape:connector-curvature="0" /><path
           style="fill:#e0dcd3"
           d="M 363.591,90.785 C 315.503,81.873 277.495,38.209 266.82,29.508 254.692,19.613 246.313,21.88 234.186,43.621 c -7.574,13.507 -19.405,15.781 -27.328,15.654 -0.447,-0.007 -0.886,-0.021 -1.307,-0.041 h -24.007 c -0.172,0.009 -0.35,0.015 -0.526,0.021 C 173.11,59.541 160.737,57.578 152.91,43.62 140.783,21.879 132.28,19.612 120.277,29.507 109.432,38.345 70.344,82.785 21.226,91.127 7.58,93.444 5.149,99.897 13.94,106.141 c 6.886,4.89 16.921,8.541 30.814,6.015 0,0 16.882,17.506 44.263,5.252 0,0 14.254,12.863 37.011,1.109 0,0 16.755,12.863 34.761,1.767 0,0 8.794,6.789 20.229,5.621 0.384,-0.039 0.764,-0.063 1.153,-0.12 11.996,-1.777 13.299,-2.837 22.505,0.008 0.71,0.22 1.44,0.365 2.182,0.46 8.868,1.138 19.449,-5.969 19.449,-5.969 17.882,11.097 34.761,-1.767 34.761,-1.767 22.756,11.754 36.884,-1.109 36.884,-1.109 27.509,12.254 44.39,-5.252 44.39,-5.252 11.498,2.091 20.354,-0.05 26.968,-3.622 11.582,-6.255 10.436,-14.755 -5.719,-17.749 z"
           id="path20"
           inkscape:connector-curvature="0" /></g></g></g><g
     id="g27"
     transform="translate(-8.7746121,-285.78553)" /><g
     id="g29"
     transform="translate(-8.7746121,-285.78553)" /><g
     id="g31"
     transform="translate(-8.7746121,-285.78553)" /><g
     id="g33"
     transform="translate(-8.7746121,-285.78553)" /><g
     id="g35"
     transform="translate(-8.7746121,-285.78553)" /><g
     id="g37"
     transform="translate(-8.7746121,-285.78553)" /><g
     id="g39"
     transform="translate(-8.7746121,-285.78553)" /><g
     id="g41"
     transform="translate(-8.7746121,-285.78553)" /><g
     id="g43"
     transform="translate(-8.7746121,-285.78553)" /><g
     id="g45"
     transform="translate(-8.7746121,-285.78553)" /><g
     id="g47"
     transform="translate(-8.7746121,-285.78553)" /><g
     id="g49"
     transform="translate(-8.7746121,-285.78553)" /><g
     id="g51"
     transform="translate(-8.7746121,-285.78553)" /><g
     id="g53"
     transform="translate(-8.7746121,-285.78553)" /><g
     id="g55"
     transform="translate(-8.7746121,-285.78553)" /></svg>