<?xml version="1.0" encoding="UTF-8" standalone="no"?>
<!-- Generator: Adobe Illustrator 19.0.0, SVG Export Plug-In . SVG Version: 6.00 Build 0)  -->

<svg
   xmlns:dc="http://purl.org/dc/elements/1.1/"
   xmlns:cc="http://creativecommons.org/ns#"
   xmlns:rdf="http://www.w3.org/1999/02/22-rdf-syntax-ns#"
   xmlns:svg="http://www.w3.org/2000/svg"
   xmlns="http://www.w3.org/2000/svg"
   xmlns:sodipodi="http://sodipodi.sourceforge.net/DTD/sodipodi-0.dtd"
   xmlns:inkscape="http://www.inkscape.org/namespaces/inkscape"
   version="1.1"
   id="Capa_1"
   x="0px"
   y="0px"
   viewBox="0 0 47.725623 49.999998"
   xml:space="preserve"
   sodipodi:docname="medicine-front.svg"
   width="47.725624"
   height="50"
   inkscape:version="0.92.1 r15371"><metadata
     id="metadata62"><rdf:RDF><cc:Work
         rdf:about=""><dc:format>image/svg+xml</dc:format><dc:type
           rdf:resource="http://purl.org/dc/dcmitype/StillImage" /><dc:title></dc:title></cc:Work></rdf:RDF></metadata><defs
     id="defs60" /><sodipodi:namedview
     pagecolor="#ffffff"
     bordercolor="#666666"
     borderopacity="1"
     objecttolerance="10"
     gridtolerance="10"
     guidetolerance="10"
     inkscape:pageopacity="0"
     inkscape:pageshadow="2"
     inkscape:window-width="2736"
     inkscape:window-height="1699"
     id="namedview58"
     showgrid="false"
     fit-margin-top="0"
     fit-margin-left="0"
     fit-margin-right="0"
     fit-margin-bottom="0"
     inkscape:zoom="6.9210265"
     inkscape:cx="10.407722"
     inkscape:cy="50.143521"
     inkscape:window-x="-13"
     inkscape:window-y="-13"
     inkscape:window-maximized="1"
     inkscape:current-layer="g22" /><g
     id="g25"
     transform="matrix(0.25921138,0,0,0.25921138,-2.2744793,-49.999999)"><g
       id="Guides_For_Artboard_24_" /><g
       id="Artwork_23_" /><g
       id="Layer_2_23_"><g
         id="g22"><g
           id="g8"
           transform="matrix(0.50000001,0,0,0.50000001,4.387306,192.89276)"><path
             style="fill:#d43d21"
             d="m 182.171,125.785 c -0.39,0.058 -0.77,0.081 -1.153,0.12 v 66.619 c 8.89,1.581 18.783,0.154 25.84,-0.82 v -65.451 c -0.741,-0.095 -1.472,-0.24 -2.182,-0.46 -9.206,-2.845 -10.509,-1.786 -22.505,-0.008 z"
             id="path4"
             inkscape:connector-curvature="0" /><path
             style="fill:#d43d21"
             d="m 194.102,0 c -16.121,0 -29.189,13.068 -29.189,29.189 0,11.415 6.556,21.293 16.104,26.092 v 3.975 c 0.177,-0.007 0.354,-0.013 0.526,-0.021 h 24.007 c 0.421,0.021 0.859,0.034 1.307,0.041 V 55.451 C 216.586,50.717 223.292,40.737 223.292,29.19 223.292,13.068 210.224,0 194.102,0 Z"
             id="path6"
             inkscape:connector-curvature="0" /></g><path
           style="fill:none;stroke-width:0.5"
           d="m 112.85131,325.11826 c 3.2495,-2.7685 4.9615,-5.666 4.9615,-8.4185 0,-2.619 0.706,-7.858 -9.9965,-12.6285 v 24.6135 c 1.6695,-0.957 3.4085,-2.1805 5.035,-3.5665 z"
           id="path10"
           inkscape:connector-curvature="0" /><path
           style="fill:none;stroke-width:0.5"
           d="m 83.274307,316.20826 c 0,2.888 1.57,6.2975 4.946,8.91 2.6415,2.0445 4.223,2.6735 6.676,4.213 v -25.97 c -12.4285,4.873 -11.622,10.0305 -11.622,12.847 z"
           id="path12"
           inkscape:connector-curvature="0" /><path
           style="fill:#d43d21;stroke-width:0.5"
           d="m 94.895807,302.86076 v 26.97 c 5.072,3.0285 9.492503,1.104 11.556503,0.085 0.4465,-0.22 0.903,-0.468 1.3635,-0.7315 v -25.6135 c -0.5455,-0.243 -1.111,-0.4855 -1.717,-0.7255 l -5e-4,0.0455 c -3.587,-1.6665 -5.7625,-1.2935 -10.237503,-0.401 -0.332,0.1235 -0.6495,0.2475 -0.965,0.371 z"
           id="path14"
           inkscape:connector-curvature="0" /><path
           style="fill:#d43d21;stroke-width:0.5"
           d="m 94.895807,348.24076 v 27.9935 c -0.0045,0.0945 -0.014,0.1885 -0.014,0.2845 0,3.5755 2.896,6.4745 6.467503,6.4745 3.5715,0 6.466,-2.8985 6.467,-6.474 v -27.144 c -0.7165,-0.558 -1.4755,-1.1015 -2.279,-1.6255 -3.538,-1.9455 -7.131503,-1.893 -10.641503,0.491 z"
           id="path16"
           inkscape:connector-curvature="0" /><path
           style="fill:#d43d21;fill-opacity:1;stroke-width:0.5"
           d="m 106.09881,303.39126 5e-4,-0.0455 c 0.606,0.24 1.1715,0.4825 1.717,0.7255 10.7025,4.7705 9.9965,10.0095 9.9965,12.6285 0,2.7525 -1.712,5.65 -4.9615,8.4185 -1.6265,1.386 -3.365,2.6095 -5.035,3.5665 -0.4605,0.2635 -0.917,0.511 -1.3635,0.7315 -2.064,1.019 -6.485003,2.9435 -11.556503,-0.085 -2.4525,-1.5395 -4.034,-2.1685 -6.676,-4.213 -3.376,-2.613 -4.946,-6.022 -4.946,-8.91 0,-2.8165 -0.8065,-7.9735 11.6215,-12.847 0.3155,-0.1235 0.633,-0.2475 0.9655,-0.3705 4.474503,-0.893 6.650503,-1.266 10.237503,0.4005 z m -11.203003,-14.7365 c -0.2895,-0.0515 -0.5775,-0.1075 -0.8625,-0.1725 -4.959,-1.1285 -9.8145,-2.1255 -20.194,-5.0015 -9.94,-2.634 -20.88,-6.893 -22.507,-9.065 0.1265,-0.125 0.3135,-0.2585 0.627,-0.3835 0.8735,-0.5 2.4375,-0.9295 4.1875,-1.313 3.688,-0.75 8.628,-1.125 13.6295,-1.375 9.941,-0.3045 10.697,0.1955 11.8785,0.125 1.181,-0.071 7.223,-0.1455 7.413,-4.739 0.1895,-4.5935 -3.081,-4.9285 -5.6435,-5.445 -4.0625,-0.5545 -2.333,-0.3825 -7.8345,-0.3115 -9.1265,0.6875 -37.073001,-1.5715 -40.573501,13.1205 0,0.4295 -0.062,0.688 -0.125,1.071 1.187,12.8005 27.758001,18.3805 46.950001,22.178 -6.502,4.4545 -10.003,10.2685 -11.377,17.8335 -0.688,8.0025 5.6885,15.6295 20.5065,24.116 -11.2535,7.94 -18.632,15.442 -18.0055,24.4605 0.91,6.71 6.471,15.492 17.048,21.6735 1.052,0.6145 2.5695,0.5465 1.476,-1.2845 -2.6505,-4.4395 -7.248,-12.813 -7.647,-18.0915 -0.548,-3.827 1.3135,-9.2675 9.088,-15.73 0.6515,-0.6145 1.307,-1.134 1.9655,-1.581 3.51,-2.384 7.103003,-2.4365 10.641003,-0.4905 0.803,0.524 1.5625,1.0675 2.279,1.6255 7.0325,5.479 9.9235,12.389 9.4125,16.1765 -0.396,5.247 -4.8795,13.589 -7.5995,18.0105 -0.91,1.4795 0.0275,2.2295 1.4715,1.3435 10.47,-6.4245 16.094,-14.929 17.005,-21.6515 0.627,-9.0185 -6.752,-16.5205 -17.958,-24.4605 14.7705,-8.487 21.1475,-16.114 20.459,-24.116 -1.374,-7.502 -4.875,-13.3165 -11.377,-17.8335 19.1925,-3.798 45.763,-9.378 46.95,-22.178 -0.063,-0.383 -0.125,-0.641 -0.125,-1.071 -3.501,-14.692 -31.4475,-12.433 -40.573,-13.1205 -5.502,-0.071 -4.818,-0.1045 -7.393,-0.094 -2.5755,0.01 -5.9045,1.365 -5.988,5.4705 -0.083,4.105 4.654,5.163 7.3155,5.1185 1.5555,-0.026 1.9375,-0.4295 11.879,-0.0625 5.001,0.1875 9.941,0.5625 13.5655,1.3125 1.814,0.3835 3.3145,0.813 4.2515,1.313 0.25,0.125 0.5,0.2585 0.6265,0.3835 -1.627,2.172 -12.567,6.431 -22.507,9.065 -9.1185,2.527 -16.6865,4.2295 -18.7025,4.666 -0.23,0.031 -0.4685,0.064 -0.713,0.0975 -3.528,0.4875 -8.475003,1.201 -12.920003,0.4105 z"
           id="path18"
           inkscape:connector-curvature="0" /><path
           style="fill:#e0dcd3;stroke-width:0.5"
           d="m 186.18281,238.28526 c -24.044,-4.456 -43.048,-26.288 -48.3855,-30.6385 -6.064,-4.9475 -10.2535,-3.814 -16.317,7.0565 -3.787,6.7535 -9.7025,7.8905 -13.664,7.827 -0.2235,-0.004 -0.443,-0.0105 -0.6535,-0.0205 H 95.159307 c -0.086,0.005 -0.175,0.007 -0.263,0.0105 -3.954,0.143 -10.1405,-0.8385 -14.054,-7.8175 -6.0635,-10.8705 -10.315,-12.004 -16.3165,-7.0565 -5.4225,4.419 -24.966501,26.639 -49.525501,30.81 -6.8229999,1.1585 -8.0384999,4.385 -3.643,7.507 3.443,2.445 8.4605,4.2705 15.407,3.0075 0,0 8.441,8.753 22.131501,2.626 0,0 7.127,6.4315 18.5055,0.5545 0,0 8.3775,6.4315 17.3805,0.8835 0,0 4.397,3.3945 10.1145,2.8105 0.192,-0.0195 0.382,-0.0315 0.5765,-0.06 5.998003,-0.8885 6.649503,-1.4185 11.252503,0.004 0.355,0.11 0.72,0.1825 1.091,0.23 4.434,0.569 9.7245,-2.9845 9.7245,-2.9845 8.941,5.5485 17.3805,-0.8835 17.3805,-0.8835 11.378,5.877 18.442,-0.5545 18.442,-0.5545 13.7545,6.127 22.195,-2.626 22.195,-2.626 5.749,1.0455 10.177,-0.025 13.484,-1.811 5.791,-3.1275 5.218,-7.3775 -2.8595,-8.8745 z"
           id="path20"
           inkscape:connector-curvature="0" /></g></g></g><g
     id="g27"
     transform="translate(-8.7746121,-335.78553)" /><g
     id="g29"
     transform="translate(-8.7746121,-335.78553)" /><g
     id="g31"
     transform="translate(-8.7746121,-335.78553)" /><g
     id="g33"
     transform="translate(-8.7746121,-335.78553)" /><g
     id="g35"
     transform="translate(-8.7746121,-335.78553)" /><g
     id="g37"
     transform="translate(-8.7746121,-335.78553)" /><g
     id="g39"
     transform="translate(-8.7746121,-335.78553)" /><g
     id="g41"
     transform="translate(-8.7746121,-335.78553)" /><g
     id="g43"
     transform="translate(-8.7746121,-335.78553)" /><g
     id="g45"
     transform="translate(-8.7746121,-335.78553)" /><g
     id="g47"
     transform="translate(-8.7746121,-335.78553)" /><g
     id="g49"
     transform="translate(-8.7746121,-335.78553)" /><g
     id="g51"
     transform="translate(-8.7746121,-335.78553)" /><g
     id="g53"
     transform="translate(-8.7746121,-335.78553)" /><g
     id="g55"
     transform="translate(-8.7746121,-335.78553)" /></svg>