<?xml version="1.0" encoding="UTF-8" standalone="no"?>
<!-- Generator: Adobe Illustrator 19.0.0, SVG Export Plug-In . SVG Version: 6.00 Build 0)  -->

<svg
   xmlns:dc="http://purl.org/dc/elements/1.1/"
   xmlns:cc="http://creativecommons.org/ns#"
   xmlns:rdf="http://www.w3.org/1999/02/22-rdf-syntax-ns#"
   xmlns:svg="http://www.w3.org/2000/svg"
   xmlns="http://www.w3.org/2000/svg"
   xmlns:sodipodi="http://sodipodi.sourceforge.net/DTD/sodipodi-0.dtd"
   xmlns:inkscape="http://www.inkscape.org/namespaces/inkscape"
   version="1.1"
   id="Layer_1"
   x="0px"
   y="0px"
   viewBox="0 0 81.261169 99.999993"
   xml:space="preserve"
   sodipodi:docname="organization.svg"
   width="81.261169"
   height="99.999992"
   inkscape:version="0.92.1 r15371"><metadata
     id="metadata421"><rdf:RDF><cc:Work
         rdf:about=""><dc:format>image/svg+xml</dc:format><dc:type
           rdf:resource="http://purl.org/dc/dcmitype/StillImage" /><dc:title></dc:title></cc:Work></rdf:RDF></metadata><defs
     id="defs419" /><sodipodi:namedview
     pagecolor="#ffffff"
     bordercolor="#666666"
     borderopacity="1"
     objecttolerance="10"
     gridtolerance="10"
     guidetolerance="10"
     inkscape:pageopacity="0"
     inkscape:pageshadow="2"
     inkscape:window-width="2736"
     inkscape:window-height="1699"
     id="namedview417"
     showgrid="false"
     inkscape:zoom="1.8582677"
     inkscape:cx="295.85043"
     inkscape:cy="153.09518"
     inkscape:window-x="-13"
     inkscape:window-y="-13"
     inkscape:window-maximized="1"
     inkscape:current-layer="Layer_1"
     fit-margin-top="0"
     fit-margin-left="0"
     fit-margin-right="0"
     fit-margin-bottom="0" /><g
     id="g76"
     style="fill:#f7f1e6;fill-opacity:1"
     transform="matrix(0.21832663,0,0,0.21832663,-14.824378,-4.4911293)"><path
       style="fill:#f7f1e6;fill-opacity:1"
       d="m 379.2,408 c 0,0 2,7.6 -0.8,9.6 0,0 -2.8,0.8 -2.8,4.8 0,0 0,4.8 -6,4.4 0,0 -16.4,2 -18.8,-2 0,0 -1.6,-2 -0.8,-5.6 l 18.8,-7.2 z"
       id="path4"
       inkscape:connector-curvature="0" /><path
       style="fill:#f7f1e6;fill-opacity:1"
       d="m 376.8,396.8 c 0,0 7.2,6 2,14 0,0 -3.6,5.2 -4,7.6 0,0 0.4,8 -8,6 0,0 -8.4,-6 -14.4,-1.2 0,0 -4.4,-0.4 -2.4,-6.4 0,0 4.8,-6 7.6,-11.6 0,0 1.6,-1.2 0.8,-5.6 z"
       id="path6"
       inkscape:connector-curvature="0" /><path
       style="fill:#f7f1e6;fill-opacity:1"
       d="m 396,408 c 0,0 -2,7.6 0.8,9.6 0,0 2.8,0.8 2.8,4.8 0,0 0,4.8 6,4.4 0,0 16.4,2 18.8,-2 0,0 1.6,-2 0.8,-5.6 L 406.4,412 Z"
       id="path8"
       inkscape:connector-curvature="0" /><path
       style="fill:#f7f1e6;fill-opacity:1"
       d="m 398.4,396.8 c 0,0 -7.2,6 -2,14 0,0 3.6,5.2 4,7.6 0,0 -0.4,8 8,6 0,0 8.4,-6 14.4,-1.2 0,0 4.4,-0.4 2.4,-6.4 0,0 -4.8,-6 -7.6,-11.6 0,0 -1.6,-1.2 -0.8,-5.6 z"
       id="path10"
       inkscape:connector-curvature="0" /><polygon
       style="fill:#f7f1e6;fill-opacity:1"
       points="403.2,131.2 370.4,131.2 386.8,195.2 "
       id="polygon12" /><polygon
       style="fill:#f7f1e6;fill-opacity:1"
       points="393.6,131.2 381.6,131.2 383.6,138 391.6,138 "
       id="polygon14" /><polygon
       style="fill:#f7f1e6;fill-opacity:1"
       points="399.6,186.8 391.6,138 387.6,138 383.6,138 375.6,186.8 387.6,195.2 "
       id="polygon16" /><path
       style="fill:#f7f1e6;fill-opacity:1"
       d="m 356.8,220.8 c -2.8,16.8 -6.4,46.4 -0.8,81.2 0,0 5.2,79.6 0.4,97.2 0,0 9.6,16.8 26,0 0,0 0.4,-131.2 4.8,-136.4 v -42 z"
       id="path18"
       inkscape:connector-curvature="0" /><path
       style="fill:#f7f1e6;fill-opacity:1"
       d="m 387.6,220.8 v 41.6 c 4.4,5.6 4.8,136.4 4.8,136.4 16.8,16.8 26,0 26,0 -4.8,-17.6 0.4,-97.2 0.4,-97.2 5.6,-34.8 2.4,-64.4 -0.8,-81.2 h -30.4 z"
       id="path20"
       inkscape:connector-curvature="0" /><polygon
       style="fill:#f7f1e6;fill-opacity:1"
       points="374.4,122.4 370.8,131.2 402.8,131.2 400.4,122.4 "
       id="polygon22" /><path
       style="fill:#f7f1e6;fill-opacity:1"
       d="m 372,128 -29.2,10.8 c 0,0 17.6,53.6 10,89.6 0,0 -3.2,18.4 -0.8,32.4 0,0 20.4,14.8 28,1.2 0,0 10.4,-32.4 8.4,-64 l -9.2,-24.4 z"
       id="path24"
       inkscape:connector-curvature="0" /><path
       style="fill:#f7f1e6;fill-opacity:1"
       d="m 374.4,122.4 -14,15.2 5.2,2.4 -4,4 c 0,0 13.2,40.4 26.8,54.4 0,-0.4 -14.8,-62.8 -14,-76 z"
       id="path26"
       inkscape:connector-curvature="0" /><path
       style="fill:#f7f1e6;fill-opacity:1"
       d="m 403.2,128 29.2,10.8 c 0,0 -17.6,53.6 -10,89.6 0,0 3.2,18.4 0.8,32.4 0,0 -20.4,14.8 -28,1.2 0,0 -10.4,-32.4 -8.4,-64 l 9.2,-24.4 z"
       id="path28"
       inkscape:connector-curvature="0" /><path
       style="fill:#f7f1e6;fill-opacity:1"
       d="m 400.4,122.4 14,15.2 -5.2,2.4 4,4 c 0,0 -13.2,40.4 -26.8,54.4 0,-0.4 14.8,-62.8 14,-76 z"
       id="path30"
       inkscape:connector-curvature="0" /><circle
       style="fill:#f7f1e6;fill-opacity:1"
       cx="391.60001"
       cy="200.8"
       r="2.8"
       id="circle32" /><polygon
       style="fill:#f7f1e6;fill-opacity:1"
       points="417.6,174.8 405.2,177.2 410,169.2 "
       id="polygon34" /><rect
       x="403.17099"
       y="174.42"
       transform="matrix(-0.9789,0.2042,-0.2042,-0.9789,850.0986,265.1172)"
       style="fill:#f7f1e6;fill-opacity:1"
       width="16.4"
       height="4"
       id="rect36" /><path
       style="fill:#f7f1e6;fill-opacity:1"
       d="m 434,256 c 0.4,3.2 0.4,5.6 0.4,5.6 0.8,0.8 2.8,3.6 2.8,3.6 4,3.2 2,5.6 2,5.6 l 0.4,2.4 c 0.8,1.2 0.4,3.2 0.4,3.2 -2,4 -3.6,0.8 -3.6,0.8 -2.4,2.8 -3.6,-0.8 -3.6,-0.8 -2.8,1.2 -3.6,-1.6 -3.6,-1.6 0,0 -4.8,0.8 -4,-10.4 0.4,-2.8 0.4,-5.6 0,-8.4 z"
       id="path38"
       inkscape:connector-curvature="0" /><path
       style="fill:#f7f1e6;fill-opacity:1"
       d="m 429.6,267.2 c 0,-0.4 0.4,-2 0.4,-2 -0.8,2.4 2,3.6 2,3.6 -0.4,0 -0.4,-1.6 -0.4,-1.6 0.4,2 3.6,3.2 3.6,3.2 0.4,-1.2 1.6,-2 1.6,-2 -0.8,1.2 -0.8,2 -0.8,2 0.4,0 1.2,0.8 1.2,0.8 -0.8,-0.8 -1.2,0 -1.2,0 1.6,0.4 1.2,2 1.2,2 0,-1.6 -0.8,-1.2 -0.8,-1.2 0.8,0.8 0.4,1.6 0.4,1.6 0,-1.2 -1.6,-1.2 -1.6,-1.2 0.8,-1.2 0,-0.8 0,-0.8 -1.2,-2 -2,0 -2,0.8 h -0.4 c 0.8,-2 0,-2.4 0,-2.4 -1.2,-1.2 -1.6,0.8 -1.6,0.8 0,3.2 -2,4.4 -2,4.4 h -0.4 c 1.2,-0.4 2,-2.4 2,-2.4 1.2,-3.2 -0.4,-3.2 -0.4,-3.2 -2.4,-0.4 -2,2 -2,2 -0.8,0.4 -2.4,0 -2.4,0 0.4,0 1.2,-0.4 1.2,-0.4 0.8,-0.8 -0.4,-2.4 -0.4,-2.4 0.8,0.8 3.6,0.8 3.6,0.8 0.8,-0.8 -0.4,-2 -0.8,-2.4 l -0.4,0.8 c 0,-0.4 -0.8,-2.4 -0.8,-2.4 0.4,0 1.2,1.2 1.2,1.6 z"
       id="path40"
       inkscape:connector-curvature="0" /><path
       style="fill:#f7f1e6;fill-opacity:1"
       d="m 439.2,271.6 c 0,0 -0.4,0.4 -1.2,2.4 0,0 -0.4,0.4 -0.4,0.8 -0.4,0.4 -0.8,0.8 -1.6,0.8 -0.8,-0.4 -2,-0.4 -2.8,-0.4 0,0 -0.8,0 -1.6,0 -0.4,0 -0.8,-0.4 -0.8,-0.8 0.4,-0.8 0.8,-1.6 2,-2 0,0 1.6,-0.4 2,0 0,0 -2.4,-0.8 -3.6,0.8 0,0 -1.6,1.6 -0.4,2 0,0 3.6,0 4,0.4 0,0 1.6,0.8 2.4,-0.4 0,0 0.4,-1.6 2,-1.2 0,0 -0.4,-0.4 -1.2,-0.4 0.4,0 0.8,-1.2 1.2,-2 z"
       id="path42"
       inkscape:connector-curvature="0" /><path
       style="fill:#f7f1e6;fill-opacity:1"
       d="m 436,275.2 c 0,0.8 0.4,2.8 0.4,2.8 -0.4,-0.4 -0.4,-0.8 -0.4,-0.8 0,0.4 -0.4,0.4 -0.4,0.4 0.4,-1.2 0,-2.4 0,-2.4 z"
       id="path44"
       inkscape:connector-curvature="0" /><path
       style="fill:#f7f1e6;fill-opacity:1"
       d="m 432.8,276.8 c -0.4,0 -0.4,0 0,0 -0.4,-0.4 -0.4,-0.4 -0.4,0 0.4,-0.8 0.4,-2 0.4,-2 h 0.4 c 0,1.2 -0.4,2 -0.4,2 z"
       id="path46"
       inkscape:connector-curvature="0" /><rect
       x="423.60001"
       y="250.39999"
       style="fill:#f7f1e6;fill-opacity:1"
       width="12"
       height="8.3999996"
       id="rect48" /><path
       style="fill:#f7f1e6;fill-opacity:1"
       d="m 341.6,256 c -0.4,3.2 -0.4,5.6 -0.4,5.6 -1.2,0.4 -3.2,3.6 -3.2,3.6 -4,3.2 -2,5.6 -2,5.6 l -0.4,2.4 c -0.8,1.2 -0.4,3.2 -0.4,3.2 2,4 3.6,0.8 3.6,0.8 2.4,2.8 3.6,-0.8 3.6,-0.8 2.8,1.2 3.6,-1.6 3.6,-1.6 0,0 4.8,0.8 4,-10.4 -0.4,-2.8 -0.4,-5.6 0,-8.4 z"
       id="path50"
       inkscape:connector-curvature="0" /><path
       style="fill:#f7f1e6;fill-opacity:1"
       d="m 345.6,267.2 c 0,-0.4 -0.4,-2 -0.4,-2 0.8,2.4 -2,3.6 -2,3.6 0.4,0 0.4,-1.6 0.4,-1.6 -0.4,2 -3.6,3.2 -3.6,3.2 -0.4,-1.2 -1.6,-2 -1.6,-2 0.8,1.2 0.8,2 0.8,2 -0.4,0 -1.2,0.8 -1.2,0.8 0.8,-0.8 1.2,0 1.2,0 -1.6,0.4 -1.2,2 -1.2,2 0,-1.6 0.8,-1.2 0.8,-1.2 -0.8,0.8 -0.4,1.6 -0.4,1.6 0,-1.2 1.6,-1.2 1.6,-1.2 -0.8,-1.2 0,-0.8 0,-0.8 1.2,-2 2,0 2,0.8 h 0.4 c -0.8,-2 0,-2.4 0,-2.4 1.2,-1.2 1.6,0.8 1.6,0.8 0,3.2 2,4.4 2,4.4 h 0.4 c -1.2,-0.4 -2,-2.4 -2,-2.4 -1.2,-3.2 0.4,-3.2 0.4,-3.2 2.4,-0.4 2,2 2,2 0.8,0.4 2.4,0 2.4,0 -0.4,0 -1.2,-0.4 -1.2,-0.4 -0.8,-0.8 0.4,-2.4 0.4,-2.4 -0.8,0.8 -3.6,0.8 -3.6,0.8 -0.4,-0.8 0.8,-2 0.8,-2.4 l 0.4,0.8 c 0,-0.4 0.8,-2.4 0.8,-2.4 -0.4,0 -0.8,1.2 -1.2,1.6 z"
       id="path52"
       inkscape:connector-curvature="0" /><path
       style="fill:#f7f1e6;fill-opacity:1"
       d="m 336,271.6 c 0,0 0.4,0.4 1.2,2.4 0,0 0,0.4 0.4,0.8 0.4,0.4 0.8,0.8 1.6,0.8 0.8,-0.4 2,-0.4 2.8,-0.4 0,0 0.8,0 1.6,0 0.4,0 0.8,-0.4 0.8,-0.8 -0.4,-0.8 -0.8,-1.6 -2,-2 0,0 -1.6,-0.4 -2,0 0,0 2.4,-0.8 3.6,0.8 0,0 1.6,1.6 0.4,2 0,0 -3.6,0 -4,0.4 0,0 -1.6,0.8 -2.4,-0.4 0,0 -0.4,-1.6 -2,-1.2 0,0 0.4,-0.4 1.2,-0.4 -0.4,0 -0.4,-1.2 -1.2,-2 z"
       id="path54"
       inkscape:connector-curvature="0" /><path
       style="fill:#f7f1e6;fill-opacity:1"
       d="m 339.2,275.2 c 0,0.8 -0.4,2.8 -0.4,2.8 0.4,-0.4 0.4,-0.8 0.4,-0.8 0,0.4 0.4,0.4 0.4,0.4 -0.4,-1.2 0,-2.4 0,-2.4 z"
       id="path56"
       inkscape:connector-curvature="0" /><path
       style="fill:#f7f1e6;fill-opacity:1"
       d="m 342.8,276.8 c 0,0 0.4,0 0,0 0.4,-0.4 0.4,-0.4 0.4,0 -0.4,-0.8 -0.4,-2 -0.4,-2 h -0.4 c 0,1.2 0.4,2 0.4,2 z"
       id="path58"
       inkscape:connector-curvature="0" /><rect
       x="340"
       y="250.39999"
       style="fill:#f7f1e6;fill-opacity:1"
       width="12"
       height="8.3999996"
       id="rect60" /><path
       style="fill:#f7f1e6;fill-opacity:1"
       d="m 438,255.2 h -16.8 c 0,0 -0.4,-43.6 2,-51.6 0,0 0.8,-8.4 -1.2,-15.2 2.8,-26 10.4,-49.2 10.8,-49.6 -0.4,-0.4 8,21.2 5.2,116.4 z"
       id="path62"
       inkscape:connector-curvature="0" /><path
       style="fill:#f7f1e6;fill-opacity:1"
       d="M 336.8,255.2 H 354 c 0,0 0.4,-43.6 -2,-51.6 0,0 -0.8,-8.4 1.2,-15.2 -2.8,-26 -10.4,-49.2 -10.8,-49.6 0.4,-0.4 -8,21.2 -5.6,116.4 z"
       id="path64"
       inkscape:connector-curvature="0" /><ellipse
       style="fill:#f7f1e6;fill-opacity:1"
       cx="387.60001"
       cy="119.2"
       rx="11.2"
       ry="12"
       id="ellipse66" /><path
       style="fill:#f7f1e6;fill-opacity:1"
       d="m 398.4,117.2 c 0,0 2,10.4 -10.8,14.4 0,0 7.2,1.6 10.4,10.4 0,0 8.8,-14 0.4,-24.8 z"
       id="path68"
       inkscape:connector-curvature="0" /><path
       style="fill:#f7f1e6;fill-opacity:1"
       d="m 376.8,117.2 c 0,0 -2,10.4 10.8,14.4 0,0 -7.2,1.6 -10.4,10.4 0,0 -8.8,-14 -0.4,-24.8 z"
       id="path70"
       inkscape:connector-curvature="0" /><path
       style="fill:#f7f1e6;fill-opacity:1"
       d="m 403.2,108 c -1.6,4.4 -2,7.2 -2.4,8 v 0 c -3.6,4.8 -8,8 -13.2,8 -4.8,0 -8.8,-2.8 -12.4,-7.2 -7.2,-9.2 -2.4,-25.6 -2.4,-25.6 3.6,4.4 15.6,4.4 15.6,4.4 -4.8,-0.8 -6,-4.4 -6,-4.8 0.8,2.4 12.4,4 12.4,4 12.4,1.6 8.4,13.2 8.4,13.2 z"
       id="path72"
       inkscape:connector-curvature="0" /><path
       style="fill:#f7f1e6;fill-opacity:1"
       d="m 380.8,73.6 c 0,0 16.4,-6.4 24.4,8.4 8.8,15.6 -2.4,32.8 -4.4,34 0,0 0.4,-2.8 2.4,-8 0,0 4,-11.6 -8,-13.6 0,0 -11.6,-1.6 -12.4,-4 0,0 0.8,4 6,5.2 0,0 -12,-0.4 -15.6,-4.4 0,0 -5.2,16.8 2.4,25.6 0,0 -12.8,-10.4 -11.2,-26 0,0 -0.8,-21.6 16.4,-17.2 z"
       id="path74"
       inkscape:connector-curvature="0" /></g><g
     id="g150"
     transform="matrix(0.21832663,0,0,0.21832663,-14.824378,-4.4911293)"><path
       style="fill:#e6e9ee"
       d="m 318.8,414.4 c 0,0 2,7.6 -0.8,10 0,0 -3.2,0.8 -2.8,5.2 0,0 0,4.8 -6.4,4.8 0,0 -17.2,2 -19.6,-2 0,0 -2,-2.4 -0.8,-5.6 l 19.6,-7.2 z"
       id="path78"
       inkscape:connector-curvature="0" /><path
       style="fill:#e6e9ee"
       d="m 316.4,402.8 c 0,0 7.2,6.4 2,14.4 0,0 -4,5.2 -4,8 0,0 0.4,8.4 -8.4,6.4 0,0 -8.8,-6.4 -15.2,-1.2 0,0 -4.4,-0.4 -2.4,-6.8 0,0 5.2,-6.4 8,-12.4 0,0 1.6,-1.2 0.8,-5.6 z"
       id="path80"
       inkscape:connector-curvature="0" /><path
       style="fill:#e6e9ee"
       d="m 336.4,414.4 c 0,0 -2,7.6 0.8,10 0,0 3.2,0.8 2.8,5.2 0,0 0,4.8 6.4,4.8 0,0 17.2,2 19.6,-2 0,0 2,-2.4 0.8,-5.6 l -19.6,-7.2 z"
       id="path82"
       inkscape:connector-curvature="0" /><path
       style="fill:#e6e9ee"
       d="m 339.2,402.8 c 0,0 -7.2,6.4 -2,14.4 0,0 4,5.2 4,8 0,0 -0.4,8.4 8.4,6.4 0,0 8.8,-6.4 15.2,-1.2 0,0 4.4,-0.4 2.4,-6.8 0,0 -5.2,-6.4 -8,-12.4 0,0 -1.6,-1.2 -0.8,-5.6 z"
       id="path84"
       inkscape:connector-curvature="0" /><polygon
       style="fill:#e6e9ee"
       points="344,126.4 309.6,126.4 326.8,192.8 "
       id="polygon86" /><polygon
       style="fill:#e6e9ee"
       points="334,126.4 321.2,126.4 323.6,133.6 331.6,133.6 "
       id="polygon88" /><polygon
       style="fill:#e6e9ee"
       points="340.4,184 331.6,133.6 327.6,133.6 323.6,133.6 314.8,184 327.6,192.8 "
       id="polygon90" /><path
       style="fill:#e6e9ee"
       d="m 295.6,219.6 c -3.2,17.2 -6.4,48.4 -0.8,84.4 0,0 5.2,83.2 0.4,101.6 0,0 9.6,17.6 27.2,0 0,0 0.4,-136.8 5.2,-142.4 v -43.6 z"
       id="path92"
       inkscape:connector-curvature="0" /><path
       style="fill:#e6e9ee"
       d="m 327.6,219.6 v 43.6 c 4.8,5.6 5.2,142.4 5.2,142.4 17.2,17.6 27.2,0 27.2,0 -4.8,-18.4 0.4,-101.6 0.4,-101.6 5.6,-36 2.4,-67.2 -0.8,-84.4 z"
       id="path94"
       inkscape:connector-curvature="0" /><polygon
       style="fill:#e6e9ee"
       points="314,116.8 310,126.4 343.2,126.4 341.2,116.8 "
       id="polygon96" /><path
       style="fill:#e6e9ee"
       d="M 311.2,122.8 280.8,134 c 0,0 18.4,56 10.4,93.6 0,0 -3.2,18.8 -0.8,33.6 0,0 21.2,15.2 29.2,1.2 0,0 10.8,-33.6 8.8,-66.4 l -9.6,-25.6 z"
       id="path98"
       inkscape:connector-curvature="0" /><path
       style="fill:#e6e9ee"
       d="m 314,116.8 -14.8,15.6 5.6,2.4 -4.4,4 c 0,0 13.6,42 28,56.4 0,0.4 -15.2,-64.8 -14.4,-78.4 z"
       id="path100"
       inkscape:connector-curvature="0" /><path
       style="fill:#e6e9ee"
       d="m 344,122.8 30.4,11.2 c 0,0 -18.4,56 -10.4,93.6 0,0 3.2,18.8 0.8,33.6 0,0 -21.2,15.2 -29.2,1.2 0,0 -10.8,-33.6 -8.8,-66.4 l 9.6,-25.6 z"
       id="path102"
       inkscape:connector-curvature="0" /><path
       style="fill:#e6e9ee"
       d="m 341.2,116.8 14.8,15.6 -5.6,2.4 4.4,4 c 0,0 -13.6,42 -28,56.4 -0.4,0.4 15.2,-64.8 14.4,-78.4 z"
       id="path104"
       inkscape:connector-curvature="0" /><circle
       style="fill:#e6e9ee"
       cx="332"
       cy="198.8"
       r="3.2"
       id="circle106" /><polygon
       style="fill:#e6e9ee"
       points="359.2,171.6 346,174 351.2,165.6 "
       id="polygon108" /><rect
       x="343.94601"
       y="171.214"
       transform="matrix(-0.9789,0.2042,-0.2042,-0.9789,733.0341,270.786)"
       style="fill:#e6e9ee"
       width="17.200001"
       height="4"
       id="rect110" /><path
       style="fill:#e6e9ee"
       d="m 376,256.4 c 0.4,3.2 0.4,5.6 0.4,5.6 0.8,0.8 3.2,4 3.2,4 4.4,3.6 2,6 2,6 l 0.4,2.8 c 1.2,1.2 0.4,3.2 0.4,3.2 -2,4.4 -4,0.8 -4,0.8 -2.4,3.2 -4,-0.8 -4,-0.8 -2.8,1.2 -3.6,-1.6 -3.6,-1.6 0,0 -5.2,0.8 -4,-11.2 0.4,-2.8 0.4,-6 0,-8.8 z"
       id="path112"
       inkscape:connector-curvature="0" /><path
       style="fill:#e6e9ee"
       d="m 371.6,268 c 0,-0.4 0.4,-2.4 0.4,-2.4 -0.8,2.4 2,4 2,4 -0.4,0 -0.4,-1.6 -0.4,-1.6 0.4,2 4,3.6 4,3.6 0.4,-1.2 1.6,-2 1.6,-2 -1.2,0.8 -1.2,2 -1.2,2 0.8,0 1.2,0.8 1.2,0.8 -0.8,-0.8 -1.2,0 -1.2,0 1.6,0.4 1.2,2 1.2,2 0,-1.6 -1.2,-1.6 -1.2,-1.6 0.8,0.8 0.4,1.6 0.4,1.6 0,-1.2 -1.6,-1.6 -1.6,-1.6 0.8,-1.2 0,-0.8 0,-0.8 -1.2,-2 -2,0 -2,0.8 h -0.4 c 0.8,-2 0,-2.4 0,-2.4 -1.6,-1.2 -1.6,0.8 -1.6,0.8 0,3.2 -2,4.4 -2,4.4 H 370 c 1.2,-0.4 2,-2.4 2,-2.4 1.2,-3.2 -0.4,-3.6 -0.4,-3.6 -2.8,-0.4 -2,2 -2,2 -1.2,0.4 -2.4,0 -2.4,0 0.4,0 1.2,-0.8 1.2,-0.8 0.8,-0.8 -0.4,-2.8 -0.4,-2.8 0.8,0.8 3.6,0.8 3.6,0.8 1.6,0 0.4,-1.6 0.4,-1.6 l -0.8,0.4 c 0,-0.4 -0.8,-2.4 -0.8,-2.4 0.4,1.2 0.8,2.4 1.2,2.8 z"
       id="path114"
       inkscape:connector-curvature="0" /><path
       style="fill:#e6e9ee"
       d="m 381.6,272.4 c 0,0 -0.4,0.4 -1.2,2.4 0,0 -0.4,0.4 -0.4,0.8 -0.4,0.8 -0.8,0.8 -1.6,0.8 -0.8,-0.4 -2,-0.4 -2.8,-0.4 0,0 -0.8,0 -1.6,0 -0.4,0 -0.8,-0.4 -0.8,-0.8 0.4,-0.8 0.8,-1.6 2.4,-2 0,0 1.6,-0.4 2,0 0,0 -2.4,-0.8 -4,0.8 0,0 -1.6,1.6 -0.4,2.4 0,0 4,0 4,0.4 0,0 1.6,0.8 2.4,-0.4 0,0 0.4,-1.6 2,-1.6 0,0 -0.4,-0.4 -1.2,-0.4 0.4,0 0.4,-1.2 1.2,-2 z"
       id="path116"
       inkscape:connector-curvature="0" /><path
       style="fill:#e6e9ee"
       d="m 378.4,276.4 c -0.4,0.8 0.4,2.8 0.4,2.8 -0.4,-0.4 -0.4,-0.8 -0.4,-0.8 0,0.4 -0.4,0.4 -0.4,0.4 0.4,-1.2 0,-2.8 0,-2.8 h 0.4 z"
       id="path118"
       inkscape:connector-curvature="0" /><path
       style="fill:#e6e9ee"
       d="m 374.4,278 v 0 c 0,0 0,0 -0.4,0 0.4,-0.8 0.4,-2 0.4,-2 h 0.4 c 0.4,0.8 -0.4,2 -0.4,2 z"
       id="path120"
       inkscape:connector-curvature="0" /><rect
       x="365.20001"
       y="250.39999"
       style="fill:#e6e9ee"
       width="12.8"
       height="8.8000002"
       id="rect122" /><path
       style="fill:#e6e9ee"
       d="m 279.6,256.4 c -0.4,3.2 -0.4,5.6 -0.4,5.6 -0.8,0.8 -3.2,4 -3.2,4 -4.4,3.6 -2,6 -2,6 v 2.4 c -1.2,1.2 -0.4,3.2 -0.4,3.2 2,4.4 4,0.8 4,0.8 2.4,3.2 4,-0.8 4,-0.8 2.8,1.2 3.6,-1.6 3.6,-1.6 0,0 5.2,0.8 4,-11.2 -0.4,-2.8 -0.4,-6 0,-8.8 h -9.6 z"
       id="path124"
       inkscape:connector-curvature="0" /><path
       style="fill:#e6e9ee"
       d="m 284,268 c 0,-0.4 -0.4,-2.4 -0.4,-2.4 0.8,2.4 -2,4 -2,4 0.4,0 0.4,-1.6 0.4,-1.6 -0.4,2 -4,3.6 -4,3.6 -0.4,-1.2 -1.6,-2 -1.6,-2 0.8,1.2 1.2,2 1.2,2 -0.8,0 -1.2,0.8 -1.2,0.8 0.8,-0.8 1.2,0 1.2,0 -1.6,0.4 -1.2,2 -1.2,2 0,-1.6 1.2,-1.6 1.2,-1.6 -0.8,0.8 -0.4,1.6 -0.4,1.6 0,-1.2 1.6,-1.6 1.6,-1.6 -0.8,-1.2 0,-0.8 0,-0.8 1.2,-2 2,0 2,0.8 h 0.4 c -0.8,-2 0,-2.4 0,-2.4 1.6,-1.2 1.6,0.8 1.6,0.8 0,3.2 2,4.4 2,4.4 h 0.8 c -1.6,-0.4 -2,-2.4 -2,-2.4 -1.2,-3.2 0.4,-3.6 0.4,-3.6 2.8,-0.4 2,2 2,2 1.2,0.4 2.4,0 2.4,0 -0.4,0 -1.2,-0.8 -1.2,-0.8 -0.8,-0.8 0.4,-2.8 0.4,-2.8 -0.4,2 -3.6,2 -3.6,2 -1.6,0 -0.4,-1.6 -0.4,-1.6 l 0.8,0.4 c 0,-0.4 0.8,-2.4 0.8,-2.4 -0.4,0 -0.8,1.2 -1.2,1.6 z"
       id="path126"
       inkscape:connector-curvature="0" /><path
       style="fill:#e6e9ee"
       d="m 274,272.4 c 0,0 0.4,0.4 1.2,2.4 0,0 0.4,0.4 0.4,0.8 0.4,0.8 0.8,0.8 1.6,0.8 0.8,-0.4 2,-0.4 2.8,-0.4 0,0 0.8,0 1.6,0 0.4,0 0.8,-0.4 0.8,-0.8 -0.4,-0.8 -0.8,-1.6 -2.4,-2 0,0 -1.6,-0.4 -2,0 0,0 2.4,-0.8 4,0.8 0,0 1.6,1.6 0.4,2.4 0,0 -4,0 -4,0.4 0,0 -1.6,0.8 -2.4,-0.4 0,0 -0.4,-1.6 -2,-1.6 0,0 0.4,-0.4 1.2,-0.4 -0.4,0 -0.4,-1.2 -1.2,-2 z"
       id="path128"
       inkscape:connector-curvature="0" /><path
       style="fill:#e6e9ee"
       d="m 277.2,276.4 c 0.4,0.8 -0.4,2.8 -0.4,2.8 0.4,-0.4 0.4,-0.8 0.4,-0.8 0,0.4 0.4,0.4 0.4,0.4 -0.4,-1.2 0,-2.8 0,-2.8 h -0.4 z"
       id="path130"
       inkscape:connector-curvature="0" /><path
       style="fill:#e6e9ee"
       d="m 281.2,278 v 0 c 0.4,-0.4 0.4,-0.4 0.4,0 -0.4,-0.8 -0.4,-2 -0.4,-2 h -0.4 c -0.4,0.8 0.4,2 0.4,2 z"
       id="path132"
       inkscape:connector-curvature="0" /><rect
       x="278"
       y="250.39999"
       style="fill:#e6e9ee"
       width="12.8"
       height="8.8000002"
       id="rect134" /><path
       style="fill:#e6e9ee"
       d="m 380.4,255.6 h -17.6 c 0,0 -0.4,-45.2 2,-54 0,0 0.8,-8.8 -1.6,-16 3.2,-27.2 10.8,-51.2 11.2,-52 0,0.4 8.8,22.8 6,122 z"
       id="path136"
       inkscape:connector-curvature="0" /><path
       style="fill:#e6e9ee"
       d="m 274.8,255.6 h 17.6 c 0,0 0.4,-45.2 -2,-54 0,0 -0.8,-8.8 1.6,-16 -3.2,-27.2 -10.8,-51.2 -11.2,-52 0,0.4 -8.8,22.8 -6,122 z"
       id="path138"
       inkscape:connector-curvature="0" /><ellipse
       style="fill:#e6e9ee"
       cx="327.60001"
       cy="113.6"
       rx="11.6"
       ry="12.4"
       id="ellipse140" /><path
       style="fill:#e6e9ee"
       d="m 338.8,111.6 c 0,0 2.4,10.8 -11.2,14.8 0,0 7.6,1.6 10.8,10.8 0.4,0 9.2,-14 0.4,-25.6 z"
       id="path142"
       inkscape:connector-curvature="0" /><path
       style="fill:#e6e9ee"
       d="m 316.4,111.6 c 0,0 -2.4,10.8 11.2,14.8 0,0 -7.6,1.6 -10.8,10.8 0,0 -8.8,-14 -0.4,-25.6 z"
       id="path144"
       inkscape:connector-curvature="0" /><path
       style="fill:#e6e9ee"
       d="m 344,102 c -1.6,4.8 -2,7.6 -2.4,8 v 0 c -3.6,5.2 -8.4,8.4 -13.6,8.4 -4.8,0 -9.2,-2.8 -12.8,-7.6 -7.6,-9.6 -2.4,-26.8 -2.4,-26.8 4,4.4 16.4,4.8 16.4,4.8 -5.2,-0.8 -6,-4.8 -6.4,-5.2 1.2,2.4 12.8,4.4 12.8,4.4 12.4,2 8.4,14 8.4,14 z"
       id="path146"
       inkscape:connector-curvature="0" /><path
       style="fill:#e6e9ee"
       d="m 320.8,66 c 0,0 16.8,-6.8 25.6,8.4 9.2,16.4 -2.4,34 -4.8,35.6 0,0 0.8,-2.8 2.4,-8.4 0,0 4,-12 -8.4,-14 0,0 -12,-1.6 -12.8,-4.4 0,0 0.8,4.4 6.4,5.2 0,0 -12.4,-0.4 -16.4,-4.8 0,0 -5.2,17.6 2.4,26.8 0,0 -13.2,-10.8 -11.6,-27.2 0,0.8 -0.8,-21.6 17.2,-17.2 z"
       id="path148"
       inkscape:connector-curvature="0" /></g><g
     id="g224"
     style="fill:#f7f1e6;fill-opacity:1"
     transform="matrix(0.21832663,0,0,0.21832663,-14.824378,-4.4911293)"><path
       style="fill:#f7f1e6;fill-opacity:1"
       d="m 128.8,408 c 0,0 -2,7.6 0.8,9.6 0,0 2.8,0.8 2.8,4.8 0,0 0,4.8 6,4.4 0,0 16.4,2 18.8,-2 0,0 1.6,-2 0.8,-5.6 L 139.2,412 Z"
       id="path152"
       inkscape:connector-curvature="0" /><path
       style="fill:#f7f1e6;fill-opacity:1"
       d="m 131.2,396.8 c 0,0 -7.2,6 -2,14 0,0 3.6,5.2 4,7.6 0,0 -0.4,8 8,6 0,0 8.4,-6 14.4,-1.2 0,0 4.4,-0.4 2.4,-6.4 0,0 -4.8,-6 -7.6,-11.6 0,0 -1.6,-1.2 -0.8,-5.6 z"
       id="path154"
       inkscape:connector-curvature="0" /><path
       style="fill:#f7f1e6;fill-opacity:1"
       d="m 112,408 c 0,0 2,7.6 -0.8,9.6 0,0 -2.8,0.8 -2.8,4.8 0,0 0,4.8 -6,4.4 0,0 -16.4,2 -18.8,-2 0,0 -1.6,-2 -0.8,-5.6 l 18.8,-7.2 z"
       id="path156"
       inkscape:connector-curvature="0" /><path
       style="fill:#f7f1e6;fill-opacity:1"
       d="m 109.6,396.8 c 0,0 7.2,6 2,14 0,0 -3.6,5.2 -4,7.6 0,0 0.4,8 -8,6 0,0 -8.4,-6 -14.4,-1.2 0,0 -4.4,-0.4 -2.4,-6.4 0,0 4.8,-6 7.6,-11.6 0,0 1.6,-1.2 0.8,-5.6 z"
       id="path158"
       inkscape:connector-curvature="0" /><polygon
       style="fill:#f7f1e6;fill-opacity:1"
       points="104.8,131.2 137.6,131.2 121.2,195.2 "
       id="polygon160" /><polygon
       style="fill:#f7f1e6;fill-opacity:1"
       points="114.4,131.2 126.4,131.2 124.4,138 116.4,138 "
       id="polygon162" /><polygon
       style="fill:#f7f1e6;fill-opacity:1"
       points="108.4,186.8 116.4,138 120.4,138 124.4,138 132.4,186.8 120.4,195.2 "
       id="polygon164" /><path
       style="fill:#f7f1e6;fill-opacity:1"
       d="m 151.2,220.8 c 2.8,16.8 6.4,46.4 0.8,81.2 0,0 -5.2,79.6 -0.4,97.2 0,0 -9.6,16.8 -26,0 0,0 -0.4,-131.2 -4.8,-136.4 v -42 z"
       id="path166"
       inkscape:connector-curvature="0" /><path
       style="fill:#f7f1e6;fill-opacity:1"
       d="m 120.4,220.8 v 41.6 c -4.4,5.6 -4.8,136.4 -4.8,136.4 -16.8,16.8 -26,0 -26,0 C 94,381.6 89.2,302 89.2,302 83.6,267.2 86.8,237.6 90,220.8 Z"
       id="path168"
       inkscape:connector-curvature="0" /><polygon
       style="fill:#f7f1e6;fill-opacity:1"
       points="133.6,122.4 137.2,131.2 105.2,131.2 107.6,122.4 "
       id="polygon170" /><path
       style="fill:#f7f1e6;fill-opacity:1"
       d="m 136,128 29.2,10.8 c 0,0 -17.6,53.6 -10,89.6 0,0 3.2,18.4 0.8,32.4 0,0 -20.4,14.8 -28,1.2 0,0 -10.4,-32.4 -8.4,-64 l 9.2,-24.4 z"
       id="path172"
       inkscape:connector-curvature="0" /><path
       style="fill:#f7f1e6;fill-opacity:1"
       d="m 133.6,122.4 14,15.2 -5.2,2.4 4,4 c 0,0 -13.2,40.4 -26.8,54.4 0,-0.4 14.8,-62.8 14,-76 z"
       id="path174"
       inkscape:connector-curvature="0" /><path
       style="fill:#f7f1e6;fill-opacity:1"
       d="m 104.8,128 -29.2,10.8 c 0,0 17.6,53.6 10,89.6 0,0 -3.2,18.4 -0.8,32.4 0,0 20.4,14.8 28,1.2 0,0 10.4,-32.4 8.4,-64 L 112,173.6 Z"
       id="path176"
       inkscape:connector-curvature="0" /><path
       style="fill:#f7f1e6;fill-opacity:1"
       d="m 107.6,122.4 -14,15.2 5.2,2.4 -4,4 c 0,0 13.2,40.4 26.8,54.4 0,-0.4 -14.8,-62.8 -14,-76 z"
       id="path178"
       inkscape:connector-curvature="0" /><circle
       style="fill:#f7f1e6;fill-opacity:1"
       cx="116.4"
       cy="200.8"
       r="2.8"
       id="circle180" /><polygon
       style="fill:#f7f1e6;fill-opacity:1"
       points="90.4,174.8 102.8,177.2 98,169.2 "
       id="polygon182" /><rect
       x="88.150002"
       y="174.55"
       transform="matrix(0.9789,0.2042,-0.2042,0.9789,38.0829,-15.9549)"
       style="fill:#f7f1e6;fill-opacity:1"
       width="16.4"
       height="4"
       id="rect184" /><path
       style="fill:#f7f1e6;fill-opacity:1"
       d="m 74,256 c -0.4,3.2 -0.4,5.6 -0.4,5.6 -0.8,0.8 -2.8,3.6 -2.8,3.6 -4,3.2 -2,5.6 -2,5.6 l -0.4,2.4 c -0.8,1.2 -0.4,3.2 -0.4,3.2 2,4 3.6,0.8 3.6,0.8 2.4,2.8 3.6,-0.8 3.6,-0.8 2.8,1.2 3.6,-1.6 3.6,-1.6 0,0 4.8,0.8 4,-10.4 -0.4,-2.8 -0.4,-5.6 0,-8.4 z"
       id="path186"
       inkscape:connector-curvature="0" /><path
       style="fill:#f7f1e6;fill-opacity:1"
       d="m 78.4,267.2 c 0,-0.4 -0.4,-2 -0.4,-2 0.8,2.4 -2,3.6 -2,3.6 0.4,0 0.4,-1.6 0.4,-1.6 -0.4,2 -3.6,3.2 -3.6,3.2 -0.4,-1.2 -1.6,-2 -1.6,-2 0.8,1.2 0.8,2 0.8,2 -0.4,0 -1.2,0.8 -1.2,0.8 0.8,-0.8 1.2,0 1.2,0 -1.6,0.4 -1.2,2 -1.2,2 0,-1.6 0.8,-1.2 0.8,-1.2 -0.8,0.8 -0.4,1.6 -0.4,1.6 0,-1.2 1.6,-1.2 1.6,-1.2 -0.8,-1.2 0,-0.8 0,-0.8 1.2,-2 2,0 2,0.8 h 0.4 c -0.8,-2 0,-2.4 0,-2.4 1.2,-1.2 1.6,0.8 1.6,0.8 0,3.2 2,4.4 2,4.4 h 0.4 c -1.2,-0.4 -2,-2.4 -2,-2.4 -1.2,-3.2 0.4,-3.2 0.4,-3.2 2.4,-0.4 2,2 2,2 0.8,0.4 2.4,0 2.4,0 -0.4,0 -1.2,-0.4 -1.2,-0.4 -0.4,-1.2 1.2,-2.8 1.2,-2.8 -0.8,0.8 -3.6,0.8 -3.6,0.8 -1.6,-0.4 -0.4,-1.6 0,-2 l 0.4,0.8 c 0,-0.4 0.8,-2.4 0.8,-2.4 -0.4,0 -1.2,1.2 -1.2,1.6 z"
       id="path188"
       inkscape:connector-curvature="0" /><path
       style="fill:#f7f1e6;fill-opacity:1"
       d="m 68.8,271.6 c 0,0 0.4,0.4 1.2,2.4 0,0 0.4,0.4 0.4,0.8 0.4,0.4 0.8,0.8 1.6,0.8 0.8,-0.4 2,-0.4 2.8,-0.4 0,0 0.8,0 1.6,0 0.4,0 0.8,-0.4 0.8,-0.8 -0.4,-0.8 -0.8,-1.6 -2,-2 0,0 -1.6,-0.4 -2,0 0,0 2.4,-0.8 3.6,0.8 0,0 1.6,1.6 0.4,2 0,0 -3.6,0 -4,0.4 0,0 -1.6,0.8 -2.4,-0.4 0,0 -0.4,-1.6 -2,-1.2 0,0 0.4,-0.4 1.2,-0.4 -0.4,0 -0.8,-1.2 -1.2,-2 z"
       id="path190"
       inkscape:connector-curvature="0" /><path
       style="fill:#f7f1e6;fill-opacity:1"
       d="m 72,275.2 c 0,0.8 -0.4,2.8 -0.4,2.8 0.4,-0.4 0.4,-0.8 0.4,-0.8 0,0.4 0.4,0.4 0.4,0.4 -0.4,-1.2 0,-2.4 0,-2.4 z"
       id="path192"
       inkscape:connector-curvature="0" /><path
       style="fill:#f7f1e6;fill-opacity:1"
       d="m 75.2,276.8 c 0.4,0 0.4,0 0,0 0.4,-0.4 0.4,-0.4 0.4,0 -0.4,-0.8 -0.4,-2 -0.4,-2 h -0.4 c 0,1.2 0.4,2 0.4,2 z"
       id="path194"
       inkscape:connector-curvature="0" /><rect
       x="72.400002"
       y="250.39999"
       style="fill:#f7f1e6;fill-opacity:1"
       width="12"
       height="8.3999996"
       id="rect196" /><path
       style="fill:#f7f1e6;fill-opacity:1"
       d="m 166.4,256 c 0.4,3.2 0.4,5.6 0.4,5.6 0.8,0.8 2.8,3.6 2.8,3.6 4,3.2 2,5.6 2,5.6 l 0.4,2.4 c 0.8,1.2 0.4,3.2 0.4,3.2 -2,4 -3.6,0.8 -3.6,0.8 -2.4,2.8 -3.6,-0.8 -3.6,-0.8 -2.8,1.2 -3.6,-1.6 -3.6,-1.6 0,0 -4.8,0.8 -4,-10.4 0.4,-2.8 0.4,-5.6 0,-8.4 z"
       id="path198"
       inkscape:connector-curvature="0" /><path
       style="fill:#f7f1e6;fill-opacity:1"
       d="m 162.4,267.2 c 0,-0.4 0.4,-2 0.4,-2 -0.8,2.4 2,3.6 2,3.6 -0.4,0 -0.4,-1.6 -0.4,-1.6 0.4,2 3.6,3.2 3.6,3.2 0.4,-1.2 1.6,-2 1.6,-2 -0.8,1.2 -0.8,2 -0.8,2 0.4,0 1.2,0.8 1.2,0.8 -0.8,-0.8 -1.2,0 -1.2,0 1.6,0.4 1.2,2 1.2,2 0,-1.6 -0.8,-1.2 -0.8,-1.2 0.8,0.8 0.4,1.6 0.4,1.6 0,-1.2 -1.6,-1.2 -1.6,-1.2 0.8,-1.2 0,-0.8 0,-0.8 -1.2,-2 -2,0 -2,0.8 h -0.4 c 0.8,-2 0,-2.4 0,-2.4 -1.2,-1.2 -1.6,0.8 -1.6,0.8 0,3.2 -2,4.4 -2,4.4 h -0.4 c 1.2,-0.4 2,-2.4 2,-2.4 1.2,-3.2 -0.4,-3.2 -0.4,-3.2 -2.4,-0.4 -2,2 -2,2 -0.8,0.4 -2.4,0 -2.4,0 0.4,0 1.2,-0.4 1.2,-0.4 0.8,-0.8 -0.4,-2.4 -0.4,-2.4 0.8,0.8 3.6,0.8 3.6,0.8 0.4,-0.8 -0.8,-2 -0.8,-2.4 L 162,268 c 0,-0.4 -0.8,-2.4 -0.8,-2.4 0.4,0 0.8,1.2 1.2,1.6 z"
       id="path200"
       inkscape:connector-curvature="0" /><path
       style="fill:#f7f1e6;fill-opacity:1"
       d="m 172,271.6 c 0,0 -0.4,0.4 -1.2,2.4 0,0 0,0.4 -0.4,0.8 -0.4,0.4 -0.8,0.8 -1.6,0.8 -0.8,-0.4 -2,-0.4 -2.8,-0.4 0,0 -0.8,0 -1.6,0 -0.4,0 -0.8,-0.4 -0.8,-0.8 0.4,-0.8 0.8,-1.6 2,-2 0,0 1.6,-0.4 2,0 0,0 -2.4,-0.8 -3.6,0.8 0,0 -1.6,1.6 -0.4,2 0,0 3.6,0 4,0.4 0,0 1.6,0.8 2.4,-0.4 0,0 0.4,-1.6 2,-1.2 0,0 -0.4,-0.4 -1.2,-0.4 0.4,0 0.4,-1.2 1.2,-2 z"
       id="path202"
       inkscape:connector-curvature="0" /><path
       style="fill:#f7f1e6;fill-opacity:1"
       d="m 168.8,275.2 c 0,0.8 0.4,2.8 0.4,2.8 -0.4,-0.4 -0.4,-0.8 -0.4,-0.8 0,0.4 -0.4,0.4 -0.4,0.4 0.4,-1.2 0,-2.4 0,-2.4 z"
       id="path204"
       inkscape:connector-curvature="0" /><path
       style="fill:#f7f1e6;fill-opacity:1"
       d="m 165.2,276.8 c 0,0 -0.4,0 0,0 -0.4,-0.4 -0.4,-0.4 -0.4,0 0.4,-0.8 0.4,-2 0.4,-2 h 0.4 c 0,1.2 -0.4,2 -0.4,2 z"
       id="path206"
       inkscape:connector-curvature="0" /><rect
       x="156"
       y="250.39999"
       style="fill:#f7f1e6;fill-opacity:1"
       width="12"
       height="8.3999996"
       id="rect208" /><path
       style="fill:#f7f1e6;fill-opacity:1"
       d="m 70,255.2 h 16.8 c 0,0 0.4,-43.6 -2,-51.6 0,0 -0.8,-8.4 1.2,-15.2 -2.8,-26 -10.4,-49.2 -10.8,-49.6 0.4,-0.4 -8,21.2 -5.2,116.4 z"
       id="path210"
       inkscape:connector-curvature="0" /><path
       style="fill:#f7f1e6;fill-opacity:1"
       d="M 171.2,255.2 H 154 c 0,0 -0.4,-43.6 2,-51.6 0,0 0.8,-8.4 -1.2,-15.2 2.8,-26 10.4,-49.2 10.8,-49.6 -0.4,-0.4 8,21.2 5.6,116.4 z"
       id="path212"
       inkscape:connector-curvature="0" /><ellipse
       style="fill:#f7f1e6;fill-opacity:1"
       cx="120.4"
       cy="119.2"
       rx="11.2"
       ry="12"
       id="ellipse214" /><path
       style="fill:#f7f1e6;fill-opacity:1"
       d="m 109.6,117.2 c 0,0 -2,10.4 10.8,14.4 0,0 -7.2,1.6 -10.4,10.4 0,0 -8.8,-14 -0.4,-24.8 z"
       id="path216"
       inkscape:connector-curvature="0" /><path
       style="fill:#f7f1e6;fill-opacity:1"
       d="m 131.2,117.2 c 0,0 2,10.4 -10.8,14.4 0,0 7.2,1.6 10.4,10.4 0,0 8.8,-14 0.4,-24.8 z"
       id="path218"
       inkscape:connector-curvature="0" /><path
       style="fill:#f7f1e6;fill-opacity:1"
       d="m 104.8,108 c 1.6,4.4 2,7.2 2.4,8 v 0 c 3.6,4.8 8,8 13.2,8 4.8,0 8.8,-2.8 12.4,-7.2 7.2,-9.2 2.4,-25.6 2.4,-25.6 -3.6,4.4 -15.6,4.4 -15.6,4.4 4.8,-0.8 6,-4.4 6,-4.8 -0.8,2.4 -12.4,4 -12.4,4 -12.4,1.6 -8.4,13.2 -8.4,13.2 z"
       id="path220"
       inkscape:connector-curvature="0" /><path
       style="fill:#f7f1e6;fill-opacity:1"
       d="m 127.2,73.6 c 0,0 -16.4,-6.4 -24.4,8.4 -8.8,15.6 2.4,32.8 4.4,34 0,0 -0.4,-2.8 -2.4,-8 0,0 -4,-11.6 8,-13.6 0,0 11.6,-1.6 12.4,-4 0,0 -0.8,4 -6,5.2 0,0 12,-0.4 15.6,-4.4 0,0 5.2,16.8 -2.4,25.6 0,0 12.8,-10.4 11.2,-26 0,0 0.8,-21.6 -16.4,-17.2 z"
       id="path222"
       inkscape:connector-curvature="0" /></g><g
     id="g298"
     transform="matrix(0.21832663,0,0,0.21832663,-14.824378,-4.4911293)"><path
       style="fill:#e6e9ee"
       d="m 189.2,414.4 c 0,0 -2,7.6 0.8,10 0,0 3.2,0.8 2.8,5.2 0,0 0,4.8 6.4,4.8 0,0 17.2,2 19.6,-2 0,0 2,-2.4 0.8,-5.6 L 200,419.6 Z"
       id="path226"
       inkscape:connector-curvature="0" /><path
       style="fill:#e6e9ee"
       d="m 191.6,402.8 c 0,0 -7.2,6.4 -2,14.4 0,0 4,5.2 4,8 0,0 -0.4,8.4 8.4,6.4 0,0 8.8,-6.4 15.2,-1.2 0,0 4.4,-0.4 2.4,-6.8 0,0 -5.2,-6.4 -8,-12.4 0,0 -1.6,-1.2 -0.8,-5.6 z"
       id="path228"
       inkscape:connector-curvature="0" /><path
       style="fill:#e6e9ee"
       d="m 171.6,414.4 c 0,0 2,7.6 -0.8,10 0,0 -3.2,0.8 -2.8,5.2 0,0 0,4.8 -6.4,4.8 0,0 -17.2,2 -19.6,-2 0,0 -2,-2.4 -0.8,-5.6 l 19.6,-7.2 z"
       id="path230"
       inkscape:connector-curvature="0" /><path
       style="fill:#e6e9ee"
       d="m 168.8,402.8 c 0,0 7.2,6.4 2,14.4 0,0 -4,5.2 -4,8 0,0 0.4,8.4 -8.4,6.4 0,0 -8.8,-6.4 -15.2,-1.2 0,0 -4.4,-0.4 -2.4,-6.8 0,0 5.2,-6.4 8,-12.4 0,0 1.6,-1.2 0.8,-5.6 z"
       id="path232"
       inkscape:connector-curvature="0" /><polygon
       style="fill:#e6e9ee"
       points="164,126.4 198.4,126.4 181.2,192.8 "
       id="polygon234" /><polygon
       style="fill:#e6e9ee"
       points="174,126.4 186.8,126.4 184.4,133.6 176.4,133.6 "
       id="polygon236" /><polygon
       style="fill:#e6e9ee"
       points="167.6,184 176.4,133.6 180.4,133.6 184.4,133.6 193.2,184 180.4,192.8 "
       id="polygon238" /><path
       style="fill:#e6e9ee"
       d="m 212.4,219.6 c 3.2,17.2 6.4,48.4 0.8,84.4 0,0 -5.2,83.2 -0.4,101.6 0,0 -9.6,17.6 -27.2,0 0,0 -0.4,-136.8 -5.2,-142.4 v -43.6 z"
       id="path240"
       inkscape:connector-curvature="0" /><path
       style="fill:#e6e9ee"
       d="m 180.4,219.6 v 43.6 c -4.8,5.6 -5.2,142.4 -5.2,142.4 -17.2,17.6 -27.2,0 -27.2,0 4.8,-18.4 -0.4,-101.6 -0.4,-101.6 -5.6,-36 -2.4,-67.2 0.8,-84.4 z"
       id="path242"
       inkscape:connector-curvature="0" /><polygon
       style="fill:#e6e9ee"
       points="194,116.8 198,126.4 164.8,126.4 166.8,116.8 "
       id="polygon244" /><path
       style="fill:#e6e9ee"
       d="m 196.8,122.8 30.4,11.2 c 0,0 -18.4,56 -10.4,93.6 0,0 3.2,18.8 0.8,33.6 0,0 -21.2,15.2 -29.2,1.2 0,0 -10.8,-33.6 -8.8,-66.4 l 9.6,-25.6 z"
       id="path246"
       inkscape:connector-curvature="0" /><path
       style="fill:#e6e9ee"
       d="m 194,116.8 14.8,15.6 -5.6,2.4 4.4,4 c 0,0 -13.6,42 -28,56.4 0,0.4 15.2,-64.8 14.4,-78.4 z"
       id="path248"
       inkscape:connector-curvature="0" /><path
       style="fill:#e6e9ee"
       d="M 164,122.8 133.6,134 c 0,0 18.4,56 10.4,93.6 0,0 -3.2,18.8 -0.8,33.6 0,0 21.2,15.2 29.2,1.2 0,0 10.8,-33.6 8.8,-66.4 l -9.6,-25.6 z"
       id="path250"
       inkscape:connector-curvature="0" /><path
       style="fill:#e6e9ee"
       d="m 166.8,116.8 -14.8,15.6 5.6,2.4 -4.4,4 c 0,0 13.6,42 28,56.4 0.4,0.4 -15.2,-64.8 -14.4,-78.4 z"
       id="path252"
       inkscape:connector-curvature="0" /><circle
       style="fill:#e6e9ee"
       cx="176"
       cy="198.8"
       r="3.2"
       id="circle254" /><polygon
       style="fill:#e6e9ee"
       points="148.8,171.6 162,174 156.8,165.6 "
       id="polygon256" /><rect
       x="146.80499"
       y="171.59599"
       transform="matrix(0.9789,0.2042,-0.2042,0.9789,38.7239,-28.0766)"
       style="fill:#e6e9ee"
       width="17.200001"
       height="4"
       id="rect258" /><path
       style="fill:#e6e9ee"
       d="m 132,256.4 c -0.4,3.2 -0.4,5.6 -0.4,5.6 -0.8,0.8 -3.2,4 -3.2,4 -4.4,3.6 -2,6 -2,6 l -0.4,2.8 c -1.2,1.2 -0.4,3.2 -0.4,3.2 2,4.4 4,0.8 4,0.8 2.4,3.2 4,-0.8 4,-0.8 2.8,1.2 3.6,-1.6 3.6,-1.6 0,0 5.2,0.8 4,-11.2 -0.4,-2.8 -0.4,-6 0,-8.8 z"
       id="path260"
       inkscape:connector-curvature="0" /><path
       style="fill:#e6e9ee"
       d="m 136.4,268 c 0,-0.4 -0.4,-2.4 -0.4,-2.4 0.8,2.4 -2,4 -2,4 0.4,0 0.4,-1.6 0.4,-1.6 -0.4,2 -4,3.6 -4,3.6 -0.4,-1.2 -1.6,-2 -1.6,-2 0.8,1.2 1.2,2 1.2,2 -0.8,0 -1.2,0.8 -1.2,0.8 0.8,-0.8 1.2,0 1.2,0 -1.6,0.4 -1.2,2 -1.2,2 0,-1.6 1.2,-1.6 1.2,-1.6 -0.8,0.8 -0.4,1.6 -0.4,1.6 0,-1.2 1.6,-1.6 1.6,-1.6 -0.8,-1.2 0,-0.8 0,-0.8 1.2,-2 2,0 2,0.8 h 0.4 c -0.8,-2 0,-2.4 0,-2.4 1.6,-1.2 1.6,0.8 1.6,0.8 0,3.2 2,4.4 2,4.4 h 0.8 c -1.2,-0.4 -2,-2.4 -2,-2.4 -1.2,-3.2 0.4,-3.6 0.4,-3.6 2.8,-0.4 2,2 2,2 1.2,0.4 2.4,0 2.4,0 -0.4,0 -1.2,-0.8 -1.2,-0.8 -0.8,-0.8 0.4,-2.8 0.4,-2.8 -0.4,2 -3.6,2 -3.6,2 -1.6,0 -0.4,-1.6 -0.4,-1.6 l 0.8,0.4 c 0,-0.4 0.8,-2.4 0.8,-2.4 -0.4,0 -0.8,1.2 -1.2,1.6 z"
       id="path262"
       inkscape:connector-curvature="0" /><path
       style="fill:#e6e9ee"
       d="m 126.4,272.4 c 0,0 0.4,0.4 1.2,2.4 0,0 0.4,0.4 0.4,0.8 0.4,0.8 0.8,0.8 1.6,0.8 0.8,-0.4 2,-0.4 2.8,-0.4 0,0 0.8,0 1.6,0 0.4,0 0.8,-0.4 0.8,-0.8 -0.4,-0.8 -0.8,-1.6 -2.4,-2 0,0 -1.6,-0.4 -2,0 0,0 2.4,-0.8 4,0.8 0,0 1.6,1.6 0.4,2.4 0,0 -4,0 -4,0.4 0,0 -1.6,0.8 -2.4,-0.4 0,0 -0.4,-1.6 -2,-1.6 0,0 0.4,-0.4 1.2,-0.4 -0.4,0 -0.4,-1.2 -1.2,-2 z"
       id="path264"
       inkscape:connector-curvature="0" /><path
       style="fill:#e6e9ee"
       d="m 129.6,276.4 c 0.4,0.8 -0.4,2.8 -0.4,2.8 0.4,-0.4 0.4,-0.8 0.4,-0.8 0,0.4 0.4,0.4 0.4,0.4 -0.4,-1.2 0,-2.8 0,-2.8 h -0.4 z"
       id="path266"
       inkscape:connector-curvature="0" /><path
       style="fill:#e6e9ee"
       d="m 133.6,278 v 0 c 0.4,-0.4 0.4,-0.4 0.4,0 -0.4,-0.8 -0.4,-2 -0.4,-2 h -0.4 c -0.4,0.8 0.4,2 0.4,2 z"
       id="path268"
       inkscape:connector-curvature="0" /><rect
       x="130.39999"
       y="250.39999"
       style="fill:#e6e9ee"
       width="12.8"
       height="8.8000002"
       id="rect270" /><path
       style="fill:#e6e9ee"
       d="m 228.4,256.4 c 0.4,3.2 0.4,5.6 0.4,5.6 0.8,0.8 3.2,4 3.2,4 4.4,3.6 2,6 2,6 l 0.4,2.8 c 1.2,1.2 0.4,3.2 0.4,3.2 -2,4.4 -4,0.8 -4,0.8 -2.4,3.2 -4,-0.8 -4,-0.8 -2.8,1.2 -3.6,-1.6 -3.6,-1.6 0,0 -5.2,0.8 -4,-11.2 0.4,-2.8 0.4,-6 0,-8.8 z"
       id="path272"
       inkscape:connector-curvature="0" /><path
       style="fill:#e6e9ee"
       d="m 224,268 c 0,-0.4 0.4,-2.4 0.4,-2.4 -0.8,2.4 2,4 2,4 -0.4,0 -0.4,-1.6 -0.4,-1.6 0.4,2 4,3.6 4,3.6 0.4,-1.2 1.6,-2 1.6,-2 -0.8,1.2 -1.2,2 -1.2,2 0.8,0 1.2,0.8 1.2,0.8 -0.8,-0.8 -1.2,0 -1.2,0 1.6,0.4 1.2,2 1.2,2 0,-1.6 -1.2,-1.6 -1.2,-1.6 0.8,0.8 0.4,1.6 0.4,1.6 0,-1.2 -1.6,-1.6 -1.6,-1.6 0.8,-1.2 0,-0.8 0,-0.8 -1.2,-2 -2,0 -2,0.8 h -0.4 c 0.8,-2 0,-2.4 0,-2.4 -1.6,-1.2 -1.6,0.8 -1.6,0.8 0,3.2 -2,4.4 -2,4.4 h -0.8 c 1.6,-0.4 2,-2.4 2,-2.4 1.2,-3.2 -0.4,-3.6 -0.4,-3.6 -2.4,0.4 -2,2.8 -2,2.8 -1.2,0.4 -2.4,0 -2.4,0 0.4,0 1.2,-0.8 1.2,-0.8 0.8,-0.8 -0.4,-2.8 -0.4,-2.8 0.8,0.8 3.6,0.8 3.6,0.8 1.6,0 0.4,-1.6 0.4,-1.6 l -0.8,0.4 c 0,-0.4 -0.8,-2.4 -0.8,-2.4 0.4,0.4 0.8,1.6 1.2,2 z"
       id="path274"
       inkscape:connector-curvature="0" /><path
       style="fill:#e6e9ee"
       d="m 234,272.4 c 0,0 -0.4,0.4 -1.2,2.4 0,0 -0.4,0.4 -0.4,0.8 -0.4,0.8 -0.8,0.8 -1.6,0.8 -0.8,-0.4 -2,-0.4 -2.8,-0.4 0,0 -0.8,0 -1.6,0 -0.4,0 -0.8,-0.4 -0.8,-0.8 0.4,-0.8 0.8,-1.6 2.4,-2 0,0 1.6,-0.4 2,0 0,0 -2.4,-0.8 -4,0.8 0,0 -1.6,1.6 -0.4,2.4 0,0 4,0 4,0.4 0,0 1.6,0.8 2.4,-0.4 0,0 0.4,-1.6 2,-1.6 0,0 -0.4,-0.4 -1.2,-0.4 0.4,0 0.4,-1.2 1.2,-2 z"
       id="path276"
       inkscape:connector-curvature="0" /><path
       style="fill:#e6e9ee"
       d="m 230.8,276.4 c -0.4,0.8 0.4,2.8 0.4,2.8 -0.4,-0.4 -0.4,-0.8 -0.4,-0.8 0,0.4 -0.4,0.4 -0.4,0.4 0.4,-1.2 0,-2.8 0,-2.8 h 0.4 z"
       id="path278"
       inkscape:connector-curvature="0" /><path
       style="fill:#e6e9ee"
       d="m 226.8,278 v 0 c -0.4,-0.4 -0.4,-0.4 -0.4,0 0.4,-0.8 0.4,-2 0.4,-2 h 0.4 c 0.4,0.8 -0.4,2 -0.4,2 z"
       id="path280"
       inkscape:connector-curvature="0" /><rect
       x="217.60001"
       y="250.39999"
       style="fill:#e6e9ee"
       width="12.8"
       height="8.8000002"
       id="rect282" /><path
       style="fill:#e6e9ee"
       d="m 127.6,255.6 h 17.6 c 0,0 0.4,-45.2 -2,-54 0,0 -0.8,-8.8 1.6,-16 C 142,158.4 134,134.4 133.6,134 c 0,0 -8.8,22.4 -6,121.6 z"
       id="path284"
       inkscape:connector-curvature="0" /><path
       style="fill:#e6e9ee"
       d="m 233.2,255.6 h -17.6 c 0,0 -0.4,-45.2 2,-54 0,0 0.8,-8.8 -1.6,-16 3.2,-27.2 10.8,-51.2 11.2,-52 0,0.4 8.8,22.8 6,122 z"
       id="path286"
       inkscape:connector-curvature="0" /><ellipse
       style="fill:#e6e9ee"
       cx="180.39999"
       cy="113.6"
       rx="11.6"
       ry="12.4"
       id="ellipse288" /><path
       style="fill:#e6e9ee"
       d="m 169.2,111.6 c 0,0 -2.4,10.8 11.2,14.8 0,0 -7.6,1.6 -10.8,10.8 -0.4,0 -9.2,-14 -0.4,-25.6 z"
       id="path290"
       inkscape:connector-curvature="0" /><path
       style="fill:#e6e9ee"
       d="m 191.6,111.6 c 0,0 2.4,10.8 -11.2,14.8 0,0 7.6,1.6 10.8,10.8 0,0 8.8,-14 0.4,-25.6 z"
       id="path292"
       inkscape:connector-curvature="0" /><path
       style="fill:#e6e9ee"
       d="m 164,102 c 1.6,4.8 2,7.6 2.4,8 v 0 c 3.6,5.2 8.4,8.4 13.6,8.4 4.8,0 9.2,-2.8 12.8,-7.6 7.6,-9.6 2.4,-26.8 2.4,-26.8 -4,4.4 -16.4,4.8 -16.4,4.8 5.2,-0.8 6,-4.8 6.4,-5.2 C 184,86 172.4,88 172.4,88 160,90 164,102 164,102 Z"
       id="path294"
       inkscape:connector-curvature="0" /><path
       style="fill:#e6e9ee"
       d="m 187.2,66 c 0,0 -16.8,-6.8 -25.6,8.4 -9.2,16.4 2.4,34 4.8,35.6 0,0 -0.8,-2.8 -2.4,-8.4 0,0 -4,-12 8.4,-14 0,0 12,-1.6 12.8,-4.4 0,0 -0.8,4.4 -6.4,5.2 0,0 12.4,-0.4 16.4,-4.8 0,0 5.2,17.6 -2.4,26.8 0,0 13.2,-10.8 11.6,-27.2 0,0.8 0.8,-21.6 -17.2,-17.2 z"
       id="path296"
       inkscape:connector-curvature="0" /></g><g
     id="g308"
     transform="matrix(0.21832663,0,0,0.21832663,-14.824378,-4.4911293)"><path
       style="fill:#324a5e"
       d="m 242.8,453.6 c 0,0 2.8,9.6 -1.2,12.4 0,0 -4,0.8 -3.6,6.4 0,0 0,6 -8,5.6 0,0 -21.2,2.4 -24,-2.4 0,0 -2.4,-2.8 -0.8,-7.2 l 24.4,-9.2 z"
       id="path300"
       inkscape:connector-curvature="0" /><path
       style="fill:#324a5e"
       d="m 239.6,439.2 c 0,0 9.2,7.6 2.4,18 0,0 -4.8,6.4 -4.8,10 0,0 0.8,10.4 -10.4,8 0,0 -11.2,-8 -18.4,-1.2 0,0 -5.6,-0.4 -2.8,-8 0,0 6.4,-8 10,-15.2 0,0 2.4,-1.6 1.2,-7.2 z"
       id="path302"
       inkscape:connector-curvature="0" /><path
       style="fill:#324a5e"
       d="m 264.8,453.6 c 0,0 -2.8,9.6 1.2,12.4 0,0 4,0.8 3.6,6.4 0,0 0,6 8,5.6 0,0 21.2,2.4 24,-2.4 0,0 2.4,-2.8 0.8,-7.2 L 278,459.2 Z"
       id="path304"
       inkscape:connector-curvature="0" /><path
       style="fill:#324a5e"
       d="m 268,439.2 c 0,0 -9.2,7.6 -2.4,18 0,0 4.8,6.4 4.8,10 0,0 -0.8,10.4 10.4,8 0,0 11.2,-8 18.4,-1.2 0,0 5.6,-0.4 2.8,-8 0,0 -6.4,-8 -10,-15.2 0,0 -2.4,-1.6 -1.2,-7.2 z"
       id="path306"
       inkscape:connector-curvature="0" /></g><polygon
     style="fill:#e6e9ee"
     points="273.6,96.8 231.6,96.8 252.8,179.2 "
     id="polygon310"
     transform="matrix(0.21832663,0,0,0.21832663,-14.824378,-4.4911293)" /><polygon
     style="fill:#f1543f"
     points="261.6,96.8 246,96.8 248.8,106 258.8,106 "
     id="polygon312"
     transform="matrix(0.21832663,0,0,0.21832663,-14.824378,-4.4911293)" /><polygon
     style="fill:#ff7058"
     points="269.6,168.4 258.8,106 254,106 248.8,106 238,168.4 254,179.2 "
     id="polygon314"
     transform="matrix(0.21832663,0,0,0.21832663,-14.824378,-4.4911293)" /><g
     id="g320"
     transform="matrix(0.21832663,0,0,0.21832663,-14.824378,-4.4911293)"><path
       style="fill:#2b3b4e"
       d="m 214,212.4 c -4,21.6 -8,60 -0.8,104.4 0,0 6.4,102.8 0.4,125.6 0,0 12,21.6 33.6,0 0,0 0.8,-169.2 6.4,-176 v -54 z"
       id="path316"
       inkscape:connector-curvature="0" /><path
       style="fill:#2b3b4e"
       d="m 253.6,212.4 v 54 c 5.6,7.2 6.4,176 6.4,176 21.6,21.6 33.6,0 33.6,0 -6,-22.8 0.4,-125.6 0.4,-125.6 7.2,-44.8 2.8,-83.2 -0.8,-104.4 z"
       id="path318"
       inkscape:connector-curvature="0" /></g><polygon
     style="fill:#ced5e0"
     points="236.8,85.6 232,96.8 273.2,96.8 270.4,85.6 "
     id="polygon322"
     transform="matrix(0.21832663,0,0,0.21832663,-14.824378,-4.4911293)" /><path
     style="fill:#324a5e;stroke-width:0.21832663"
     d="m 36.176722,15.769581 -8.20908,2.96925 c 0,0 4.97785,15.1082 2.79458,25.23856 0,0 -0.8733,5.1525 -0.17466,9.08238 0,0 5.67649,4.10454 7.94709,0.262 0,0 2.88191,-9.08239 2.44526,-17.99012 l -2.53259,-6.89912 z"
     id="path324"
     inkscape:connector-curvature="0" /><path
     style="fill:#2b3b4e;stroke-width:0.21832663"
     d="m 36.875372,14.197631 -4.01721,4.27921 1.48462,0.69864 -1.1353,1.04797 c 0,0 3.75522,11.35298 7.59777,15.28286 0,-0.0873 -4.10454,-17.64079 -3.92988,-21.30868 z"
     id="path326"
     inkscape:connector-curvature="0" /><path
     style="fill:#324a5e;stroke-width:0.21832663"
     d="m 44.997122,15.769581 8.20908,2.96925 c 0,0 -4.97785,15.1082 -2.79458,25.23856 0,0 0.8733,5.1525 0.17466,9.08238 0,0 -5.67649,4.10454 -7.94709,0.262 0,0 -2.88191,-9.08239 -2.44526,-17.99012 l 2.53259,-6.89912 z"
     id="path328"
     inkscape:connector-curvature="0" /><g
     id="g334"
     transform="matrix(0.21832663,0,0,0.21832663,-14.824378,-4.4911293)"><path
       style="fill:#2b3b4e"
       d="m 270.4,85.6 18.4,19.6 -6.8,2.8 5.2,4.8 c 0,0 -17.2,52 -34.8,70 0,0 19.2,-80.4 18,-97.2 z"
       id="path330"
       inkscape:connector-curvature="0" /><circle
       style="fill:#2b3b4e"
       cx="258.79999"
       cy="186.8"
       r="3.5999999"
       id="circle332" /></g><polygon
     style="fill:#ffffff"
     points="292.8,152.8 276.8,156.4 282.8,145.6 "
     id="polygon336"
     transform="matrix(0.21832663,0,0,0.21832663,-14.824378,-4.4911293)" /><rect
     x="-42.622673"
     y="-39.048752"
     transform="rotate(168.21699)"
     style="fill:#2b3b4e;stroke-width:0.2183204"
     width="4.6281738"
     height="1.1352659"
     id="rect338" /><g
     id="g350"
     transform="matrix(0.21832663,0,0,0.21832663,-14.824378,-4.4911293)"><path
       style="fill:#ffd05b"
       d="m 313.6,258 c 0.4,4 0.4,6.8 0.4,6.8 1.2,1.2 4,4.8 4,4.8 5.2,4.4 2.4,7.6 2.4,7.6 l 0.4,3.2 c 1.2,1.6 0.4,4 0.4,4 -2.8,5.2 -4.8,0.8 -4.8,0.8 -3.2,3.6 -4.8,-0.8 -4.8,-0.8 -3.6,1.6 -4.8,-2 -4.8,-2 0,0 -6.4,0.8 -4.8,-13.6 0.4,-3.2 0.4,-7.2 0,-11.2 h 11.6 z"
       id="path340"
       inkscape:connector-curvature="0" /><path
       style="fill:#ffd05b"
       d="m 308,272.4 c 0,-0.8 0.4,-2.8 0.4,-2.8 -0.8,2.8 2.4,4.8 2.4,4.8 -0.4,0 -0.4,-2 -0.4,-2 0.4,2.4 4.8,4.4 4.8,4.4 0.8,-1.6 2,-2.8 2,-2.8 -1.2,1.2 -1.2,2.8 -1.2,2.8 0.8,0 1.6,0.8 1.6,0.8 -1.2,-0.8 -1.6,0 -1.6,0 2,0.4 1.2,2.4 1.2,2.4 0,-2 -1.2,-1.6 -1.2,-1.6 1.2,0.8 0.8,2 0.8,2 0,-1.6 -2,-1.6 -2,-1.6 0.8,-1.2 0.4,-1.2 0.4,-1.2 -1.6,-2.4 -2.4,0.4 -2.8,1.2 -0.4,0 -0.4,0 -0.8,0.4 1.2,-2.4 0,-2.8 0,-2.8 -1.6,-1.6 -2,0.8 -2,0.8 0,4 -2.8,5.6 -2.8,5.6 H 306 c 1.6,-0.8 2.4,-2.8 2.4,-2.8 1.6,-4 -0.4,-4.4 -0.4,-4.4 -3.2,-0.4 -2.4,2.4 -2.4,2.4 -1.2,0.4 -2.8,0.4 -2.8,0.4 0.8,-0.4 1.2,-0.8 1.2,-0.8 1.2,-1.2 -0.8,-3.2 -0.8,-3.2 0.8,0.8 4.4,0.8 4.4,0.8 1.6,0 0.4,-2 0.4,-2 l -0.8,0.4 c 0,-0.4 -0.8,-2.8 -0.8,-2.8 0.8,-0.4 1.6,1.2 1.6,1.6 z"
       id="path342"
       inkscape:connector-curvature="0" /><path
       style="fill:#ffd05b"
       d="m 320.8,278 c 0,0 -0.8,0.4 -1.6,2.8 0,0 -0.4,0.4 -0.4,1.2 -0.4,0.8 -1.2,1.2 -2,0.8 -1.2,-0.4 -2.4,-0.8 -3.6,-0.4 0,0 -1.2,0 -2,0 -0.8,0 -1.2,-0.4 -0.8,-1.2 0.4,-0.8 1.2,-2 2.8,-2.4 0,0 2,-0.4 2.8,0 0,0 -3.2,-1.2 -4.8,0.8 0,0 -2,2 -0.4,2.8 0,0 4.8,0 5.2,0.4 0,0 2,0.8 2.8,-0.4 0,0 0.4,-2 2.4,-1.6 0,0 -0.8,-0.4 -1.6,-0.4 0,0 0.4,-1.2 1.2,-2.4 z"
       id="path344"
       inkscape:connector-curvature="0" /><path
       style="fill:#ffd05b"
       d="m 316.4,282.8 c -0.4,0.8 0.8,3.6 0.8,3.6 -0.4,-0.4 -0.8,-0.8 -0.8,-0.8 -0.4,0.4 -0.4,0.4 -0.8,0.8 0.4,-1.2 0,-3.2 0,-3.2 h 0.8 z"
       id="path346"
       inkscape:connector-curvature="0" /><path
       style="fill:#ffd05b"
       d="m 312,284.8 c -0.4,0 -0.4,-0.4 0,0 -0.4,-0.4 -0.4,-0.4 -0.4,-0.4 0.4,-0.8 0.4,-2.4 0.4,-2.4 h 0.8 c 0,1.6 -0.8,2.8 -0.8,2.8 z"
       id="path348"
       inkscape:connector-curvature="0" /></g><rect
     x="50.673618"
     y="50.177864"
     style="fill:#ffffff;stroke-width:0.21832663"
     width="3.4058955"
     height="2.3579276"
     id="rect352" /><g
     id="g364"
     transform="matrix(0.21832663,0,0,0.21832663,-14.824378,-4.4911293)"><path
       style="fill:#ffd05b"
       d="m 194.4,258 c -0.4,4 -0.4,6.8 -0.4,6.8 -1.2,1.2 -4,4.8 -4,4.8 -5.2,4.4 -2.4,7.6 -2.4,7.6 l -0.4,3.2 c -1.2,1.6 -0.4,4 -0.4,4 2.8,5.2 4.8,0.8 4.8,0.8 3.2,3.6 4.8,-0.8 4.8,-0.8 3.6,1.6 4.8,-2 4.8,-2 0,0 6.4,0.8 4.8,-13.6 -0.4,-3.2 -0.4,-7.2 0,-11.2 h -11.6 z"
       id="path354"
       inkscape:connector-curvature="0" /><path
       style="fill:#ffd05b"
       d="m 200,272.4 c 0,-0.8 -0.4,-2.8 -0.4,-2.8 0.8,2.8 -2.4,4.8 -2.4,4.8 0.4,0 0.4,-2 0.4,-2 -0.4,2.4 -4.8,4.4 -4.8,4.4 -0.8,-1.6 -2,-2.8 -2,-2.8 1.2,1.2 1.2,2.8 1.2,2.8 -0.8,0 -1.6,0.8 -1.6,0.8 1.2,-0.8 1.6,0 1.6,0 -2,0.4 -1.2,2.4 -1.2,2.4 0,-2 1.2,-1.6 1.2,-1.6 -1.2,0.8 -0.8,2 -0.8,2 0,-1.6 2,-1.6 2,-1.6 -0.8,-1.2 -0.4,-1.2 -0.4,-1.2 1.6,-2.4 2.4,0.4 2.8,1.2 0.4,0 0.4,0 0.8,0.4 -1.2,-2.4 0,-2.8 0,-2.8 1.6,-1.6 2,0.8 2,0.8 0,4 2.8,5.6 2.8,5.6 h 0.8 c -1.6,-0.8 -2.4,-2.8 -2.4,-2.8 -1.6,-4 0.4,-4.4 0.4,-4.4 3.2,-0.4 2.4,2.4 2.4,2.4 1.2,0.4 2.8,0.4 2.8,0.4 -0.8,-0.4 -1.2,-0.8 -1.2,-0.8 -1.2,-1.2 0.8,-3.2 0.8,-3.2 -0.8,0.8 -4.4,0.8 -4.4,0.8 -1.6,0 -0.4,-2 -0.4,-2 l 0.8,0.4 c 0,-0.4 0.8,-2.8 0.8,-2.8 -0.8,-0.4 -1.6,1.2 -1.6,1.6 z"
       id="path356"
       inkscape:connector-curvature="0" /><path
       style="fill:#ffd05b"
       d="m 187.2,278 c 0,0 0.8,0.4 1.6,2.8 0,0 0.4,0.4 0.4,1.2 0.4,0.8 1.2,1.2 2,0.8 1.2,-0.4 2.4,-0.8 3.6,-0.4 0,0 1.2,0 2,0 0.8,0 1.2,-0.4 0.8,-1.2 -0.4,-0.8 -1.2,-2 -2.8,-2.4 0,0 -2,-0.4 -2.8,0 0,0 3.2,-1.2 4.8,0.8 0,0 2,2 0.4,2.8 0,0 -4.8,0 -5.2,0.4 0,0 -2,0.8 -2.8,-0.4 0,0 -0.4,-2 -2.4,-1.6 0,0 0.8,-0.4 1.6,-0.4 0,0 -0.4,-1.2 -1.2,-2.4 z"
       id="path358"
       inkscape:connector-curvature="0" /><path
       style="fill:#ffd05b"
       d="m 191.6,282.8 c 0.4,0.8 -0.8,3.6 -0.8,3.6 0.4,-0.4 0.8,-0.8 0.8,-0.8 0.4,0.4 0.4,0.4 0.8,0.8 -0.4,-1.2 0,-3.2 0,-3.2 h -0.8 z"
       id="path360"
       inkscape:connector-curvature="0" /><path
       style="fill:#ffd05b"
       d="m 196,284.8 c 0.4,0 0.4,-0.4 0,0 0.4,-0.4 0.4,-0.4 0.4,-0.4 C 196,283.6 196,282 196,282 h -0.8 c 0,1.6 0.8,2.8 0.8,2.8 z"
       id="path362"
       inkscape:connector-curvature="0" /></g><rect
     x="27.094336"
     y="50.177864"
     style="fill:#ffffff;stroke-width:0.21832663"
     width="3.4058955"
     height="2.3579276"
     id="rect366" /><g
     id="g372"
     transform="matrix(0.21832663,0,0,0.21832663,-14.824378,-4.4911293)"><path
       style="fill:#324a5e"
       d="m 319.2,256.8 h -22 c 0,0 -0.4,-56 2.4,-66.8 0,0 0.8,-11.2 -1.6,-19.6 4,-33.6 13.6,-63.6 13.6,-64 0,0 10.8,27.6 7.6,150.4 z"
       id="path368"
       inkscape:connector-curvature="0" /><path
       style="fill:#324a5e"
       d="m 188.4,256.8 h 22 c 0,0 0.4,-56 -2.4,-66.8 0,0 -0.8,-11.2 1.6,-19.6 -4,-33.6 -13.6,-63.6 -13.6,-64 0,0 -11.2,27.6 -7.6,150.4 z"
       id="path370"
       inkscape:connector-curvature="0" /></g><ellipse
     style="fill:#f9b54c;stroke-width:0.21832663"
     cx="40.630589"
     cy="13.324317"
     rx="3.1439033"
     ry="3.4058955"
     id="ellipse374" /><g
     id="g380"
     transform="matrix(0.21832663,0,0,0.21832663,-14.824378,-4.4911293)"><path
       style="fill:#ffffff"
       d="m 267.6,78.4 c 0,0 2.8,13.6 -14,18.4 0,0 9.6,2 13.6,13.6 0.4,0 11.2,-17.6 0.4,-32 z"
       id="path376"
       inkscape:connector-curvature="0" /><path
       style="fill:#ffffff"
       d="m 240,78.4 c 0,0 -2.8,13.6 14,18.4 0,0 -9.6,2 -13.6,13.6 0,0 -11.2,-17.6 -0.4,-32 z"
       id="path378"
       inkscape:connector-curvature="0" /></g><path
     style="fill:#ffd05b;stroke-width:0.21832663"
     d="m 44.997122,10.093091 c -0.43666,1.30996 -0.61132,2.00861 -0.61132,2.18327 v 0 c -0.96063,1.39729 -2.27059,2.2706 -3.66788,2.2706 -1.30996,0 -2.53259,-0.78598 -3.49323,-2.00861 -2.09594,-2.53259 -0.61131,-7.2484403 -0.61131,-7.2484403 1.04796,1.22263 4.36653,1.22263 4.36653,1.22263 -1.39729,-0.17467 -1.65928,-1.30996 -1.65928,-1.39729 0.26199,0.69864 3.49322,1.13529 3.49322,1.13529 3.31857,0.61132 2.18327,3.8425503 2.18327,3.8425503 z"
     id="path382"
     inkscape:connector-curvature="0" /><path
     style="fill:#324a5e;stroke-width:0.21832663"
     d="m 38.709312,0.39939065 c 0,0 4.5412,-1.83393995 6.89912,2.35793005 2.44526,4.45386 -0.61131,9.2570503 -1.30996,9.6063703 0,0 0.17466,-0.78598 0.61132,-2.2706 0,0 1.1353,-3.3185603 -2.2706,-3.7552203 0,0 -3.23123,-0.43665 -3.49323,-1.13529 0,0 0.262,1.22263 1.65929,1.39729 0,0 -3.31857,-0.0873 -4.36654,-1.22263 0,0 -1.39729,4.7158503 0.61132,7.2484403 0,0 -3.58056,-2.8819103 -3.1439,-7.3357703 0.17466,0 -0.0873,-6.11315005 4.80318,-4.89052005 z"
     id="path384"
     inkscape:connector-curvature="0" /><g
     id="g386"
     transform="translate(-67.899998,-378.6)" /><g
     id="g388"
     transform="translate(-67.899998,-378.6)" /><g
     id="g390"
     transform="translate(-67.899998,-378.6)" /><g
     id="g392"
     transform="translate(-67.899998,-378.6)" /><g
     id="g394"
     transform="translate(-67.899998,-378.6)" /><g
     id="g396"
     transform="translate(-67.899998,-378.6)" /><g
     id="g398"
     transform="translate(-67.899998,-378.6)" /><g
     id="g400"
     transform="translate(-67.899998,-378.6)" /><g
     id="g402"
     transform="translate(-67.899998,-378.6)" /><g
     id="g404"
     transform="translate(-67.899998,-378.6)" /><g
     id="g406"
     transform="translate(-67.899998,-378.6)" /><g
     id="g408"
     transform="translate(-67.899998,-378.6)" /><g
     id="g410"
     transform="translate(-67.899998,-378.6)" /><g
     id="g412"
     transform="translate(-67.899998,-378.6)" /><g
     id="g414"
     transform="translate(-67.899998,-378.6)" /></svg>