<?xml version="1.0" encoding="UTF-8" standalone="no"?>
<!-- Generator: Adobe Illustrator 19.0.0, SVG Export Plug-In . SVG Version: 6.00 Build 0)  -->

<svg
   xmlns:dc="http://purl.org/dc/elements/1.1/"
   xmlns:cc="http://creativecommons.org/ns#"
   xmlns:rdf="http://www.w3.org/1999/02/22-rdf-syntax-ns#"
   xmlns:svg="http://www.w3.org/2000/svg"
   xmlns="http://www.w3.org/2000/svg"
   xmlns:sodipodi="http://sodipodi.sourceforge.net/DTD/sodipodi-0.dtd"
   xmlns:inkscape="http://www.inkscape.org/namespaces/inkscape"
   version="1.1"
   id="Capa_1"
   x="0px"
   y="0px"
   viewBox="0 0 100 100"
   xml:space="preserve"
   sodipodi:docname="patients.svg"
   width="100"
   height="100"
   inkscape:version="0.92.1 r15371"><metadata
     id="metadata50"><rdf:RDF><cc:Work
         rdf:about=""><dc:format>image/svg+xml</dc:format><dc:type
           rdf:resource="http://purl.org/dc/dcmitype/StillImage" /><dc:title></dc:title></cc:Work></rdf:RDF></metadata><defs
     id="defs48" /><sodipodi:namedview
     pagecolor="#ffffff"
     bordercolor="#666666"
     borderopacity="1"
     objecttolerance="10"
     gridtolerance="10"
     guidetolerance="10"
     inkscape:pageopacity="0"
     inkscape:pageshadow="2"
     inkscape:window-width="2736"
     inkscape:window-height="1699"
     id="namedview46"
     showgrid="false"
     fit-margin-top="0"
     fit-margin-left="0"
     fit-margin-right="0"
     fit-margin-bottom="0"
     inkscape:zoom="2.2991585"
     inkscape:cx="-22.066707"
     inkscape:cy="44.098666"
     inkscape:window-x="-13"
     inkscape:window-y="-13"
     inkscape:window-maximized="1"
     inkscape:current-layer="Capa_1" /><circle
     style="fill:#f5f5f5;fill-opacity:1;stroke:none;stroke-width:0.35375857;stroke-miterlimit:4;stroke-dasharray:none;stroke-opacity:1"
     id="path4528"
     cx="50"
     cy="50"
     r="50" /><g
     id="g15"
     transform="translate(-155.2925,-155.2925)" /><g
     id="g17"
     transform="translate(-155.2925,-155.2925)" /><g
     id="g19"
     transform="translate(-155.2925,-155.2925)" /><g
     id="g21"
     transform="translate(-155.2925,-155.2925)" /><g
     id="g23"
     transform="translate(-155.2925,-155.2925)" /><g
     id="g25"
     transform="translate(-155.2925,-155.2925)" /><g
     id="g27"
     transform="translate(-155.2925,-155.2925)" /><g
     id="g29"
     transform="translate(-155.2925,-155.2925)" /><g
     id="g31"
     transform="translate(-155.2925,-155.2925)" /><g
     id="g33"
     transform="translate(-155.2925,-155.2925)" /><g
     id="g35"
     transform="translate(-155.2925,-155.2925)" /><g
     id="g37"
     transform="translate(-155.2925,-155.2925)" /><g
     id="g39"
     transform="translate(-155.2925,-155.2925)" /><g
     id="g41"
     transform="translate(-155.2925,-155.2925)" /><g
     id="g43"
     transform="translate(-155.2925,-155.2925)" /><g
     id="g4636"
     transform="matrix(0.17271107,0,0,0.17271107,14.543707,14.543713)"><g
       id="g4574"><g
         id="Guides_For_Artboard_27_" /><g
         id="Artwork_26_" /><g
         id="Layer_2_26_"><g
           id="g4571"><path
             id="path4565"
             d="M 245.685,215.694 C 277.588,185.682 317.19,148.41 322.636,115.248 326.454,91.802 322.73,72.467 311.542,57.786 300.244,42.967 283.083,34.511 259.03,31.934 c -2.312,-0.232 -4.423,-0.342 -6.518,-0.342 -17.022,0 -34.186,6.331 -47.376,17.039 -13.173,-10.708 -30.352,-17.039 -47.341,-17.039 -2.114,0 -4.208,0.109 -6.536,0.342 -24.054,2.576 -41.23,11.032 -52.513,25.852 -11.187,14.681 -14.913,34.016 -11.096,57.462 5.447,33.178 45.048,70.435 76.953,100.446 0,0 15.921,15.983 20.699,20.08 3.604,3.088 11.395,9.295 19.849,9.295 8.442,0 16.248,-6.207 19.833,-9.295 4.779,-4.097 20.701,-20.08 20.701,-20.08 z"
             style="fill:#d43d21"
             inkscape:connector-curvature="0" /><path
             id="path4567"
             d="m 148.829,267.338 c -1.736,-1.334 -15.503,-11.746 -53.69,-14.293 -2.096,-0.17 -4.223,-1.66 -6.086,-2.9 -0.454,-0.303 -0.911,-0.611 -1.367,-0.922 -1.924,-1.316 -3.816,-2.73 -5.275,-4.463 -2.915,-3.492 -6.22,-6.426 -8.998,-10.305 -18.558,-25.883 -36.76,-31.066 -39.479,-32.105 -3.614,-1.736 -6.082,-2.244 -6.887,-4.717 -0.327,-1.148 -3.477,-31.205 -4.038,-36.25 -1.564,-14.494 -3.117,-25.232 -11.42,-28.148 -2.14,-0.762 -3.662,-0.512 -5.243,1.178 -1.896,1.988 -3.011,12.51 -3.556,19.166 0,0 -3.128,38.89 -2.76,52.373 0.368,13.483 23.699,67.345 36.2,79.914 12.501,12.569 70.358,45.453 70.358,45.453 2.081,1.736 13.642,10.629 13.642,22.299 v 13.152 c 0,0 -1.649,12.17 11.686,12.17 13.335,0 31.834,0.053 45.001,0.053 13.167,0 10.598,-11.891 10.608,-16.057 0.008,-2.965 0.014,-5.328 0.017,-6.451 0.001,-0.455 0.001,-0.711 0.001,-0.711 0.157,-4.299 0.887,-8.566 1.399,-12.834 1.458,-4.887 0.295,-14.121 -0.389,-17.705 -7.822,-34.867 -36.592,-55.459 -39.724,-57.897 z"
             style="fill:#dec8ae"
             inkscape:connector-curvature="0" /><path
             id="path4569"
             d="m 407.497,153.579 c -0.545,-6.656 -1.66,-17.178 -3.556,-19.166 -1.581,-1.689 -3.103,-1.939 -5.243,-1.178 -8.304,2.916 -9.856,13.654 -11.42,28.148 -0.561,5.045 -3.711,35.102 -4.038,36.25 -0.805,2.473 -3.273,2.98 -6.887,4.717 -2.719,1.039 -20.921,6.223 -39.479,32.105 -2.778,3.879 -6.083,6.813 -8.998,10.305 -1.459,1.732 -3.351,3.146 -5.275,4.463 -0.456,0.311 -0.913,0.619 -1.367,0.922 -1.864,1.24 -3.99,2.73 -6.086,2.9 -38.187,2.547 -51.954,12.959 -53.69,14.293 -3.132,2.438 -31.902,23.029 -39.724,57.896 -0.684,3.584 -1.847,12.818 -0.389,17.705 0.512,4.268 1.242,8.535 1.399,12.834 0,0 0,0.256 0.001,0.711 0.003,1.123 0.009,3.486 0.017,6.451 0.011,4.166 -2.559,16.057 10.608,16.057 13.167,0 31.666,-0.053 45.001,-0.053 13.335,0 11.686,-12.17 11.686,-12.17 v -13.152 c 0,-11.67 11.561,-20.563 13.642,-22.299 0,0 62.396,-35.971 70.358,-45.453 7.962,-9.482 34.675,-66.764 36.2,-79.914 1.525,-13.15 -2.76,-52.372 -2.76,-52.372 z"
             style="fill:#dec8ae"
             inkscape:connector-curvature="0" /></g></g></g><g
       id="g4576" /><g
       id="g4578" /><g
       id="g4580" /><g
       id="g4582" /><g
       id="g4584" /><g
       id="g4586" /><g
       id="g4588" /><g
       id="g4590" /><g
       id="g4592" /><g
       id="g4594" /><g
       id="g4596" /><g
       id="g4598" /><g
       id="g4600" /><g
       id="g4602" /><g
       id="g4604" /></g></svg>