<?xml version="1.0" encoding="UTF-8" standalone="no"?>
<!-- Generator: Adobe Illustrator 19.0.0, SVG Export Plug-In . SVG Version: 6.00 Build 0)  -->

<svg
   xmlns:dc="http://purl.org/dc/elements/1.1/"
   xmlns:cc="http://creativecommons.org/ns#"
   xmlns:rdf="http://www.w3.org/1999/02/22-rdf-syntax-ns#"
   xmlns:svg="http://www.w3.org/2000/svg"
   xmlns="http://www.w3.org/2000/svg"
   xmlns:sodipodi="http://sodipodi.sourceforge.net/DTD/sodipodi-0.dtd"
   xmlns:inkscape="http://www.inkscape.org/namespaces/inkscape"
   version="1.1"
   id="Layer_1"
   x="0px"
   y="0px"
   viewBox="0 0 29.457163 99.999993"
   xml:space="preserve"
   sodipodi:docname="personal_use.svg"
   width="29.457163"
   height="99.999992"
   inkscape:version="0.92.1 r15371"><metadata
     id="metadata421"><rdf:RDF><cc:Work
         rdf:about=""><dc:format>image/svg+xml</dc:format><dc:type
           rdf:resource="http://purl.org/dc/dcmitype/StillImage" /><dc:title></dc:title></cc:Work></rdf:RDF></metadata><defs
     id="defs419" /><sodipodi:namedview
     pagecolor="#ffffff"
     bordercolor="#666666"
     borderopacity="1"
     objecttolerance="10"
     gridtolerance="10"
     guidetolerance="10"
     inkscape:pageopacity="0"
     inkscape:pageshadow="2"
     inkscape:window-width="2736"
     inkscape:window-height="1699"
     id="namedview417"
     showgrid="false"
     inkscape:zoom="10.51195"
     inkscape:cx="22.693474"
     inkscape:cy="47.120334"
     inkscape:window-x="-13"
     inkscape:window-y="-13"
     inkscape:window-maximized="1"
     inkscape:current-layer="Layer_1"
     fit-margin-top="0"
     fit-margin-left="0"
     fit-margin-right="0"
     fit-margin-bottom="0" /><g
     id="g308"
     transform="matrix(0.21832663,0,0,0.21832663,-40.726382,-4.4911293)"><path
       style="fill:#324a5e"
       d="m 242.8,453.6 c 0,0 2.8,9.6 -1.2,12.4 0,0 -4,0.8 -3.6,6.4 0,0 0,6 -8,5.6 0,0 -21.2,2.4 -24,-2.4 0,0 -2.4,-2.8 -0.8,-7.2 l 24.4,-9.2 z"
       id="path300"
       inkscape:connector-curvature="0" /><path
       style="fill:#324a5e"
       d="m 239.6,439.2 c 0,0 9.2,7.6 2.4,18 0,0 -4.8,6.4 -4.8,10 0,0 0.8,10.4 -10.4,8 0,0 -11.2,-8 -18.4,-1.2 0,0 -5.6,-0.4 -2.8,-8 0,0 6.4,-8 10,-15.2 0,0 2.4,-1.6 1.2,-7.2 z"
       id="path302"
       inkscape:connector-curvature="0" /><path
       style="fill:#324a5e"
       d="m 264.8,453.6 c 0,0 -2.8,9.6 1.2,12.4 0,0 4,0.8 3.6,6.4 0,0 0,6 8,5.6 0,0 21.2,2.4 24,-2.4 0,0 2.4,-2.8 0.8,-7.2 L 278,459.2 Z"
       id="path304"
       inkscape:connector-curvature="0" /><path
       style="fill:#324a5e"
       d="m 268,439.2 c 0,0 -9.2,7.6 -2.4,18 0,0 4.8,6.4 4.8,10 0,0 -0.8,10.4 10.4,8 0,0 11.2,-8 18.4,-1.2 0,0 5.6,-0.4 2.8,-8 0,0 -6.4,-8 -10,-15.2 0,0 -2.4,-1.6 -1.2,-7.2 z"
       id="path306"
       inkscape:connector-curvature="0" /></g><polygon
     style="fill:#e6e9ee"
     points="252.8,179.2 273.6,96.8 231.6,96.8 "
     id="polygon310"
     transform="matrix(0.21832663,0,0,0.21832663,-40.726382,-4.4911293)" /><polygon
     style="fill:#f1543f"
     points="248.8,106 258.8,106 261.6,96.8 246,96.8 "
     id="polygon312"
     transform="matrix(0.21832663,0,0,0.21832663,-40.726382,-4.4911293)" /><polygon
     style="fill:#ff7058"
     points="254,106 248.8,106 238,168.4 254,179.2 269.6,168.4 258.8,106 "
     id="polygon314"
     transform="matrix(0.21832663,0,0,0.21832663,-40.726382,-4.4911293)" /><g
     id="g320"
     transform="matrix(0.21832663,0,0,0.21832663,-40.726382,-4.4911293)"><path
       style="fill:#2b3b4e"
       d="m 214,212.4 c -4,21.6 -8,60 -0.8,104.4 0,0 6.4,102.8 0.4,125.6 0,0 12,21.6 33.6,0 0,0 0.8,-169.2 6.4,-176 v -54 z"
       id="path316"
       inkscape:connector-curvature="0" /><path
       style="fill:#2b3b4e"
       d="m 253.6,212.4 v 54 c 5.6,7.2 6.4,176 6.4,176 21.6,21.6 33.6,0 33.6,0 -6,-22.8 0.4,-125.6 0.4,-125.6 7.2,-44.8 2.8,-83.2 -0.8,-104.4 z"
       id="path318"
       inkscape:connector-curvature="0" /></g><polygon
     style="fill:#ced5e0"
     points="273.2,96.8 270.4,85.6 236.8,85.6 232,96.8 "
     id="polygon322"
     transform="matrix(0.21832663,0,0,0.21832663,-40.726382,-4.4911293)" /><path
     style="fill:#324a5e;stroke-width:0.21832663"
     d="m 10.274718,15.769581 -8.2090802,2.96925 c 0,0 4.97785,15.1082 2.79458,25.23856 0,0 -0.8733,5.1525 -0.17466,9.08238 0,0 5.6764902,4.10454 7.9470902,0.262 0,0 2.88191,-9.08239 2.44526,-17.99012 l -2.53259,-6.89912 z"
     id="path324"
     inkscape:connector-curvature="0" /><path
     style="fill:#2b3b4e;stroke-width:0.21832663"
     d="m 10.973368,14.197631 -4.0172102,4.27921 1.48462,0.69864 -1.1353,1.04797 c 0,0 3.7552202,11.35298 7.5977702,15.28286 0,-0.0873 -4.10454,-17.64079 -3.92988,-21.30868 z"
     id="path326"
     inkscape:connector-curvature="0" /><path
     style="fill:#324a5e;stroke-width:0.21832663"
     d="m 19.095118,15.769581 8.20908,2.96925 c 0,0 -4.97785,15.1082 -2.79458,25.23856 0,0 0.8733,5.1525 0.17466,9.08238 0,0 -5.67649,4.10454 -7.94709,0.262 0,0 -2.88191,-9.08239 -2.44526,-17.99012 l 2.53259,-6.89912 z"
     id="path328"
     inkscape:connector-curvature="0" /><g
     id="g334"
     transform="matrix(0.21832663,0,0,0.21832663,-40.726382,-4.4911293)"><path
       style="fill:#2b3b4e"
       d="m 270.4,85.6 18.4,19.6 -6.8,2.8 5.2,4.8 c 0,0 -17.2,52 -34.8,70 0,0 19.2,-80.4 18,-97.2 z"
       id="path330"
       inkscape:connector-curvature="0" /><circle
       style="fill:#2b3b4e"
       cx="258.79999"
       cy="186.8"
       r="3.5999999"
       id="circle332" /></g><polygon
     style="fill:#ffffff"
     points="282.8,145.6 292.8,152.8 276.8,156.4 "
     id="polygon336"
     transform="matrix(0.21832663,0,0,0.21832663,-40.726382,-4.4911293)" /><rect
     x="-17.266476"
     y="-33.759415"
     transform="rotate(168.21699)"
     style="fill:#2b3b4e;stroke-width:0.2183204"
     width="4.6281738"
     height="1.1352659"
     id="rect338" /><g
     id="g350"
     transform="matrix(0.21832663,0,0,0.21832663,-40.726382,-4.4911293)"><path
       style="fill:#ffd05b"
       d="m 313.6,258 c 0.4,4 0.4,6.8 0.4,6.8 1.2,1.2 4,4.8 4,4.8 5.2,4.4 2.4,7.6 2.4,7.6 l 0.4,3.2 c 1.2,1.6 0.4,4 0.4,4 -2.8,5.2 -4.8,0.8 -4.8,0.8 -3.2,3.6 -4.8,-0.8 -4.8,-0.8 -3.6,1.6 -4.8,-2 -4.8,-2 0,0 -6.4,0.8 -4.8,-13.6 0.4,-3.2 0.4,-7.2 0,-11.2 h 11.6 z"
       id="path340"
       inkscape:connector-curvature="0" /><path
       style="fill:#ffd05b"
       d="m 308,272.4 c 0,-0.8 0.4,-2.8 0.4,-2.8 -0.8,2.8 2.4,4.8 2.4,4.8 -0.4,0 -0.4,-2 -0.4,-2 0.4,2.4 4.8,4.4 4.8,4.4 0.8,-1.6 2,-2.8 2,-2.8 -1.2,1.2 -1.2,2.8 -1.2,2.8 0.8,0 1.6,0.8 1.6,0.8 -1.2,-0.8 -1.6,0 -1.6,0 2,0.4 1.2,2.4 1.2,2.4 0,-2 -1.2,-1.6 -1.2,-1.6 1.2,0.8 0.8,2 0.8,2 0,-1.6 -2,-1.6 -2,-1.6 0.8,-1.2 0.4,-1.2 0.4,-1.2 -1.6,-2.4 -2.4,0.4 -2.8,1.2 -0.4,0 -0.4,0 -0.8,0.4 1.2,-2.4 0,-2.8 0,-2.8 -1.6,-1.6 -2,0.8 -2,0.8 0,4 -2.8,5.6 -2.8,5.6 H 306 c 1.6,-0.8 2.4,-2.8 2.4,-2.8 1.6,-4 -0.4,-4.4 -0.4,-4.4 -3.2,-0.4 -2.4,2.4 -2.4,2.4 -1.2,0.4 -2.8,0.4 -2.8,0.4 0.8,-0.4 1.2,-0.8 1.2,-0.8 1.2,-1.2 -0.8,-3.2 -0.8,-3.2 0.8,0.8 4.4,0.8 4.4,0.8 1.6,0 0.4,-2 0.4,-2 l -0.8,0.4 c 0,-0.4 -0.8,-2.8 -0.8,-2.8 0.8,-0.4 1.6,1.2 1.6,1.6 z"
       id="path342"
       inkscape:connector-curvature="0" /><path
       style="fill:#ffd05b"
       d="m 320.8,278 c 0,0 -0.8,0.4 -1.6,2.8 0,0 -0.4,0.4 -0.4,1.2 -0.4,0.8 -1.2,1.2 -2,0.8 -1.2,-0.4 -2.4,-0.8 -3.6,-0.4 0,0 -1.2,0 -2,0 -0.8,0 -1.2,-0.4 -0.8,-1.2 0.4,-0.8 1.2,-2 2.8,-2.4 0,0 2,-0.4 2.8,0 0,0 -3.2,-1.2 -4.8,0.8 0,0 -2,2 -0.4,2.8 0,0 4.8,0 5.2,0.4 0,0 2,0.8 2.8,-0.4 0,0 0.4,-2 2.4,-1.6 0,0 -0.8,-0.4 -1.6,-0.4 0,0 0.4,-1.2 1.2,-2.4 z"
       id="path344"
       inkscape:connector-curvature="0" /><path
       style="fill:#ffd05b"
       d="m 316.4,282.8 c -0.4,0.8 0.8,3.6 0.8,3.6 -0.4,-0.4 -0.8,-0.8 -0.8,-0.8 -0.4,0.4 -0.4,0.4 -0.8,0.8 0.4,-1.2 0,-3.2 0,-3.2 h 0.8 z"
       id="path346"
       inkscape:connector-curvature="0" /><path
       style="fill:#ffd05b"
       d="m 312,284.8 c -0.4,0 -0.4,-0.4 0,0 -0.4,-0.4 -0.4,-0.4 -0.4,-0.4 0.4,-0.8 0.4,-2.4 0.4,-2.4 h 0.8 c 0,1.6 -0.8,2.8 -0.8,2.8 z"
       id="path348"
       inkscape:connector-curvature="0" /></g><rect
     x="24.771614"
     y="50.177864"
     style="fill:#ffffff;stroke-width:0.21832663"
     width="3.4058955"
     height="2.3579276"
     id="rect352" /><g
     id="g364"
     transform="matrix(0.21832663,0,0,0.21832663,-40.726382,-4.4911293)"><path
       style="fill:#ffd05b"
       d="m 194.4,258 c -0.4,4 -0.4,6.8 -0.4,6.8 -1.2,1.2 -4,4.8 -4,4.8 -5.2,4.4 -2.4,7.6 -2.4,7.6 l -0.4,3.2 c -1.2,1.6 -0.4,4 -0.4,4 2.8,5.2 4.8,0.8 4.8,0.8 3.2,3.6 4.8,-0.8 4.8,-0.8 3.6,1.6 4.8,-2 4.8,-2 0,0 6.4,0.8 4.8,-13.6 -0.4,-3.2 -0.4,-7.2 0,-11.2 h -11.6 z"
       id="path354"
       inkscape:connector-curvature="0" /><path
       style="fill:#ffd05b"
       d="m 200,272.4 c 0,-0.8 -0.4,-2.8 -0.4,-2.8 0.8,2.8 -2.4,4.8 -2.4,4.8 0.4,0 0.4,-2 0.4,-2 -0.4,2.4 -4.8,4.4 -4.8,4.4 -0.8,-1.6 -2,-2.8 -2,-2.8 1.2,1.2 1.2,2.8 1.2,2.8 -0.8,0 -1.6,0.8 -1.6,0.8 1.2,-0.8 1.6,0 1.6,0 -2,0.4 -1.2,2.4 -1.2,2.4 0,-2 1.2,-1.6 1.2,-1.6 -1.2,0.8 -0.8,2 -0.8,2 0,-1.6 2,-1.6 2,-1.6 -0.8,-1.2 -0.4,-1.2 -0.4,-1.2 1.6,-2.4 2.4,0.4 2.8,1.2 0.4,0 0.4,0 0.8,0.4 -1.2,-2.4 0,-2.8 0,-2.8 1.6,-1.6 2,0.8 2,0.8 0,4 2.8,5.6 2.8,5.6 h 0.8 c -1.6,-0.8 -2.4,-2.8 -2.4,-2.8 -1.6,-4 0.4,-4.4 0.4,-4.4 3.2,-0.4 2.4,2.4 2.4,2.4 1.2,0.4 2.8,0.4 2.8,0.4 -0.8,-0.4 -1.2,-0.8 -1.2,-0.8 -1.2,-1.2 0.8,-3.2 0.8,-3.2 -0.8,0.8 -4.4,0.8 -4.4,0.8 -1.6,0 -0.4,-2 -0.4,-2 l 0.8,0.4 c 0,-0.4 0.8,-2.8 0.8,-2.8 -0.8,-0.4 -1.6,1.2 -1.6,1.6 z"
       id="path356"
       inkscape:connector-curvature="0" /><path
       style="fill:#ffd05b"
       d="m 187.2,278 c 0,0 0.8,0.4 1.6,2.8 0,0 0.4,0.4 0.4,1.2 0.4,0.8 1.2,1.2 2,0.8 1.2,-0.4 2.4,-0.8 3.6,-0.4 0,0 1.2,0 2,0 0.8,0 1.2,-0.4 0.8,-1.2 -0.4,-0.8 -1.2,-2 -2.8,-2.4 0,0 -2,-0.4 -2.8,0 0,0 3.2,-1.2 4.8,0.8 0,0 2,2 0.4,2.8 0,0 -4.8,0 -5.2,0.4 0,0 -2,0.8 -2.8,-0.4 0,0 -0.4,-2 -2.4,-1.6 0,0 0.8,-0.4 1.6,-0.4 0,0 -0.4,-1.2 -1.2,-2.4 z"
       id="path358"
       inkscape:connector-curvature="0" /><path
       style="fill:#ffd05b"
       d="m 191.6,282.8 c 0.4,0.8 -0.8,3.6 -0.8,3.6 0.4,-0.4 0.8,-0.8 0.8,-0.8 0.4,0.4 0.4,0.4 0.8,0.8 -0.4,-1.2 0,-3.2 0,-3.2 h -0.8 z"
       id="path360"
       inkscape:connector-curvature="0" /><path
       style="fill:#ffd05b"
       d="m 196,284.8 c 0.4,0 0.4,-0.4 0,0 0.4,-0.4 0.4,-0.4 0.4,-0.4 C 196,283.6 196,282 196,282 h -0.8 c 0,1.6 0.8,2.8 0.8,2.8 z"
       id="path362"
       inkscape:connector-curvature="0" /></g><rect
     x="1.1923313"
     y="50.177864"
     style="fill:#ffffff;stroke-width:0.21832663"
     width="3.4058955"
     height="2.3579276"
     id="rect366" /><g
     id="g372"
     transform="matrix(0.21832663,0,0,0.21832663,-40.726382,-4.4911293)"><path
       style="fill:#324a5e"
       d="m 319.2,256.8 h -22 c 0,0 -0.4,-56 2.4,-66.8 0,0 0.8,-11.2 -1.6,-19.6 4,-33.6 13.6,-63.6 13.6,-64 0,0 10.8,27.6 7.6,150.4 z"
       id="path368"
       inkscape:connector-curvature="0" /><path
       style="fill:#324a5e"
       d="m 188.4,256.8 h 22 c 0,0 0.4,-56 -2.4,-66.8 0,0 -0.8,-11.2 1.6,-19.6 -4,-33.6 -13.6,-63.6 -13.6,-64 0,0 -11.2,27.6 -7.6,150.4 z"
       id="path370"
       inkscape:connector-curvature="0" /></g><ellipse
     style="fill:#f9b54c;stroke-width:0.21832663"
     cx="14.728584"
     cy="13.324317"
     rx="3.1439033"
     ry="3.4058955"
     id="ellipse374" /><g
     id="g380"
     transform="matrix(0.21832663,0,0,0.21832663,-40.726382,-4.4911293)"><path
       style="fill:#ffffff"
       d="m 267.6,78.4 c 0,0 2.8,13.6 -14,18.4 0,0 9.6,2 13.6,13.6 0.4,0 11.2,-17.6 0.4,-32 z"
       id="path376"
       inkscape:connector-curvature="0" /><path
       style="fill:#ffffff"
       d="m 240,78.4 c 0,0 -2.8,13.6 14,18.4 0,0 -9.6,2 -13.6,13.6 0,0 -11.2,-17.6 -0.4,-32 z"
       id="path378"
       inkscape:connector-curvature="0" /></g><path
     style="fill:#ffd05b;stroke-width:0.21832663"
     d="m 19.095118,10.093091 c -0.43666,1.30996 -0.61132,2.00861 -0.61132,2.18327 v 0 c -0.96063,1.39729 -2.27059,2.2706 -3.66788,2.2706 -1.30996,0 -2.53259,-0.78598 -3.49323,-2.00861 -2.0959402,-2.53259 -0.61131,-7.2484403 -0.61131,-7.2484403 1.04796,1.22263 4.36653,1.22263 4.36653,1.22263 -1.39729,-0.17467 -1.65928,-1.30996 -1.65928,-1.39729 0.26199,0.69864 3.49322,1.13529 3.49322,1.13529 3.31857,0.61132 2.18327,3.8425503 2.18327,3.8425503 z"
     id="path382"
     inkscape:connector-curvature="0" /><path
     style="fill:#324a5e;stroke-width:0.21832663"
     d="m 12.807308,0.39939063 c 0,0 4.5412,-1.83393993 6.89912,2.35793007 2.44526,4.45386 -0.61131,9.2570503 -1.30996,9.6063703 0,0 0.17466,-0.78598 0.61132,-2.2706 0,0 1.1353,-3.3185603 -2.2706,-3.7552203 0,0 -3.23123,-0.43665 -3.49323,-1.13529 0,0 0.262,1.22263 1.65929,1.39729 0,0 -3.31857,-0.0873 -4.36654,-1.22263 0,0 -1.3972902,4.7158503 0.61132,7.2484403 0,0 -3.5805602,-2.8819103 -3.1439002,-7.3357703 0.17466,0 -0.0873,-6.11315007 4.8031802,-4.89052007 z"
     id="path384"
     inkscape:connector-curvature="0" /><g
     id="g386"
     transform="translate(-93.802002,-378.6)" /><g
     id="g388"
     transform="translate(-93.802002,-378.6)" /><g
     id="g390"
     transform="translate(-93.802002,-378.6)" /><g
     id="g392"
     transform="translate(-93.802002,-378.6)" /><g
     id="g394"
     transform="translate(-93.802002,-378.6)" /><g
     id="g396"
     transform="translate(-93.802002,-378.6)" /><g
     id="g398"
     transform="translate(-93.802002,-378.6)" /><g
     id="g400"
     transform="translate(-93.802002,-378.6)" /><g
     id="g402"
     transform="translate(-93.802002,-378.6)" /><g
     id="g404"
     transform="translate(-93.802002,-378.6)" /><g
     id="g406"
     transform="translate(-93.802002,-378.6)" /><g
     id="g408"
     transform="translate(-93.802002,-378.6)" /><g
     id="g410"
     transform="translate(-93.802002,-378.6)" /><g
     id="g412"
     transform="translate(-93.802002,-378.6)" /><g
     id="g414"
     transform="translate(-93.802002,-378.6)" /></svg>