<?xml version="1.0" encoding="UTF-8" standalone="no"?>
<!-- Generator: Adobe Illustrator 19.1.0, SVG Export Plug-In . SVG Version: 6.00 Build 0)  -->

<svg
   xmlns:dc="http://purl.org/dc/elements/1.1/"
   xmlns:cc="http://creativecommons.org/ns#"
   xmlns:rdf="http://www.w3.org/1999/02/22-rdf-syntax-ns#"
   xmlns:svg="http://www.w3.org/2000/svg"
   xmlns="http://www.w3.org/2000/svg"
   xmlns:sodipodi="http://sodipodi.sourceforge.net/DTD/sodipodi-0.dtd"
   xmlns:inkscape="http://www.inkscape.org/namespaces/inkscape"
   version="1.1"
   id="Capa_1"
   x="0px"
   y="0px"
   viewBox="0 0 49.990329 36"
   xml:space="preserve"
   sodipodi:docname="position.svg"
   width="49.99033"
   height="36"
   inkscape:version="0.92+devel unknown"><metadata
     id="metadata51"><rdf:RDF><cc:Work
         rdf:about=""><dc:format>image/svg+xml</dc:format><dc:type
           rdf:resource="http://purl.org/dc/dcmitype/StillImage" /><dc:title /></cc:Work></rdf:RDF></metadata><defs
     id="defs49" /><sodipodi:namedview
     pagecolor="#ffffff"
     bordercolor="#666666"
     inkscape:document-rotation="0"
     borderopacity="1"
     objecttolerance="10"
     gridtolerance="10"
     guidetolerance="10"
     inkscape:pageopacity="0"
     inkscape:pageshadow="2"
     inkscape:window-width="1920"
     inkscape:window-height="1012"
     id="namedview47"
     showgrid="false"
     fit-margin-top="0"
     fit-margin-left="0"
     fit-margin-right="0"
     fit-margin-bottom="0"
     inkscape:zoom="3.523868"
     inkscape:cx="39.300668"
     inkscape:cy="10.974677"
     inkscape:window-x="0"
     inkscape:window-y="0"
     inkscape:window-maximized="1"
     inkscape:current-layer="Capa_1" /><g
     id="g14"
     transform="matrix(0.10241821,0,0,0.10241821,0,-6.9951637)"
     style="fill:#e3e3e3;fill-opacity:1"><g
       id="g12"
       style="fill:#e3e3e3;fill-opacity:1"><path
         d="m 327.7,342.8 -4.3,-4.3 c -0.2,-0.2 -0.3,-0.3 -0.5,-0.5 -23.8,14.1 -51.2,21.7 -79.3,21.7 -35.3,0 -68.9,-11.7 -96.2,-33.3 -7.4,5.1 -15,10.8 -22.4,16.9 -5.9,4.8 -9.3,12.1 -9.3,19.7 v 36.1 H 244 372.2 v -11.9 l -37.7,-37.7 z"
         id="path2"
         inkscape:connector-curvature="0"
         style="fill:#e3e3e3;fill-opacity:1" /><path
         d="m 249.7,122.3 h -5.7 -5.7 c -26.2,0 -47.5,21.3 -47.5,47.5 v 52.7 c 0,8.3 4.2,15.5 10.6,19.8 v 45 c 12.9,6.6 27.3,10.2 42.3,10.2 15.2,0 29.8,-3.6 42.8,-10.4 v -44.7 c 6.4,-4.3 10.6,-11.5 10.6,-19.8 v -52.7 c 0.1,-26.4 -21.2,-47.6 -47.4,-47.6 z"
         id="path4"
         inkscape:connector-curvature="0"
         style="fill:#e3e3e3;fill-opacity:1" /><path
         d="m 480.3,307.7 c -27.4,-22.5 -56.9,-37.4 -62.9,-40.4 -0.7,-0.3 -1.1,-1 -1.1,-1.8 v -42.6 c 5.4,-3.6 8.9,-9.7 8.9,-16.6 v -44.2 c 0,-22 -17.8,-39.8 -39.8,-39.8 h -4.8 -4.4 c 14,22.7 22.1,48.7 23.1,75.8 1.2,30.2 -6.4,59.8 -21.6,85.4 0.2,0.2 0.3,0.3 0.5,0.5 l 2,2 2.3,2.3 6.8,6.8 59.6,59.6 h 39.2 v -30.3 c 0,-6.5 -2.9,-12.6 -7.8,-16.7 z"
         id="path6"
         inkscape:connector-curvature="0"
         style="fill:#e3e3e3;fill-opacity:1" /><path
         d="m 453.9,387.7 -78.7,-78.7 -6.8,-6.8 -2.3,-2.3 v 0 l -2,-2 -5.3,5.3 -11.4,-11.4 c 45.2,-53.3 42.7,-133.3 -7.7,-183.7 -26.5,-26.5 -61.3,-39.8 -96,-39.8 -34.7,0 -69.5,13.3 -96,39.8 -53,53 -53,139 0,192 26.5,26.5 61.3,39.8 96,39.8 31.2,0 62.4,-10.7 87.7,-32.1 l 11.4,11.4 -5.3,5.3 v 0 0 l 4.3,4.3 6.8,6.8 78.7,78.7 c 3.7,3.7 8.5,5.5 13.3,5.5 4.8,0 9.6,-1.8 13.3,-5.5 7.3,-7.3 7.3,-19.2 0,-26.6 0,0.1 0,0 0,0 z M 323.7,284.2 c -22.1,22.1 -51.1,33.1 -80,33.1 -29,0 -57.9,-11 -80,-33.1 -44.2,-44.2 -44.2,-115.8 0,-160 22.1,-22.1 51.1,-33.1 80,-33.1 29,0 57.9,11 80,33.1 44.2,44.1 44.2,115.8 0,160 z"
         id="path8"
         inkscape:connector-curvature="0"
         style="fill:#e3e3e3;fill-opacity:1" /><path
         d="m 111.4,122.3 h -3.9 -4.8 c -22,0 -39.8,17.8 -39.8,39.8 v 44.2 c 0,6.9 3.5,13 8.9,16.6 v 42.6 c 0,0.8 -0.4,1.4 -1.1,1.8 -6,2.9 -35.5,17.9 -62.9,40.4 C 2.9,311.8 0,317.9 0,324.3 v 30.3 h 97.2 c 2,-10.3 7.4,-19.6 15.6,-26.3 6.6,-5.4 13.3,-10.5 19.9,-15.2 -51.1,-52 -58.2,-131.2 -21.3,-190.8 z"
         id="path10"
         inkscape:connector-curvature="0"
         style="fill:#e3e3e3;fill-opacity:1" /></g></g><g
     id="g16"
     transform="translate(0,-383.8)" /><g
     id="g18"
     transform="translate(0,-383.8)" /><g
     id="g20"
     transform="translate(0,-383.8)" /><g
     id="g22"
     transform="translate(0,-383.8)" /><g
     id="g24"
     transform="translate(0,-383.8)" /><g
     id="g26"
     transform="translate(0,-383.8)" /><g
     id="g28"
     transform="translate(0,-383.8)" /><g
     id="g30"
     transform="translate(0,-383.8)" /><g
     id="g32"
     transform="translate(0,-383.8)" /><g
     id="g34"
     transform="translate(0,-383.8)" /><g
     id="g36"
     transform="translate(0,-383.8)" /><g
     id="g38"
     transform="translate(0,-383.8)" /><g
     id="g40"
     transform="translate(0,-383.8)" /><g
     id="g42"
     transform="translate(0,-383.8)" /><g
     id="g44"
     transform="translate(0,-383.8)" /></svg>