<?xml version="1.0" encoding="UTF-8" standalone="no"?>
<!-- Generator: Adobe Illustrator 19.0.0, SVG Export Plug-In . SVG Version: 6.00 Build 0)  -->

<svg
   xmlns:dc="http://purl.org/dc/elements/1.1/"
   xmlns:cc="http://creativecommons.org/ns#"
   xmlns:rdf="http://www.w3.org/1999/02/22-rdf-syntax-ns#"
   xmlns:svg="http://www.w3.org/2000/svg"
   xmlns="http://www.w3.org/2000/svg"
   xmlns:sodipodi="http://sodipodi.sourceforge.net/DTD/sodipodi-0.dtd"
   xmlns:inkscape="http://www.inkscape.org/namespaces/inkscape"
   version="1.1"
   id="Capa_1"
   x="0px"
   y="0px"
   viewBox="0 0 12 12"
   xml:space="preserve"
   sodipodi:docname="puce.svg"
   width="12"
   height="12"
   inkscape:version="0.92+devel unknown"><metadata
     id="metadata39"><rdf:RDF><cc:Work
         rdf:about=""><dc:format>image/svg+xml</dc:format><dc:type
           rdf:resource="http://purl.org/dc/dcmitype/StillImage" /><dc:title></dc:title></cc:Work></rdf:RDF></metadata><defs
     id="defs37" /><sodipodi:namedview
     pagecolor="#ffffff"
     bordercolor="#666666"
     inkscape:document-rotation="0"
     borderopacity="1"
     objecttolerance="10"
     gridtolerance="10"
     guidetolerance="10"
     inkscape:pageopacity="0"
     inkscape:pageshadow="2"
     inkscape:window-width="1920"
     inkscape:window-height="1012"
     id="namedview35"
     showgrid="false"
     fit-margin-top="0"
     fit-margin-left="0"
     fit-margin-right="0"
     fit-margin-bottom="0"
     inkscape:zoom="7.2394266"
     inkscape:cx="40.719574"
     inkscape:cy="28.501237"
     inkscape:window-x="0"
     inkscape:window-y="0"
     inkscape:window-maximized="1"
     inkscape:current-layer="Capa_1" /><g
     id="g4"
     transform="translate(5.3142395,-35.31424)" /><g
     id="g6"
     transform="translate(5.3142395,-35.31424)" /><g
     id="g8"
     transform="translate(5.3142395,-35.31424)" /><g
     id="g10"
     transform="translate(5.3142395,-35.31424)" /><g
     id="g12"
     transform="translate(5.3142395,-35.31424)" /><g
     id="g14"
     transform="translate(5.3142395,-35.31424)" /><g
     id="g16"
     transform="translate(5.3142395,-35.31424)" /><g
     id="g18"
     transform="translate(5.3142395,-35.31424)" /><g
     id="g20"
     transform="translate(5.3142395,-35.31424)" /><g
     id="g22"
     transform="translate(5.3142395,-35.31424)" /><g
     id="g24"
     transform="translate(5.3142395,-35.31424)" /><g
     id="g26"
     transform="translate(5.3142395,-35.31424)" /><g
     id="g28"
     transform="translate(5.3142395,-35.31424)" /><g
     id="g30"
     transform="translate(5.3142395,-35.31424)" /><g
     id="g32"
     transform="translate(5.3142395,-35.31424)" /><g
     id="g4282"
     transform="scale(1.5)"><circle
       r="4"
       cy="4"
       cx="4"
       id="path4298"
       style="fill:#fcb54d;fill-opacity:1;stroke:none;stroke-width:0.15200895" /><path
       inkscape:connector-curvature="0"
       id="path2"
       d="m 6.4411118,3.2399555 h -1.681067 v -1.681067 c 0,-0.413009 -0.3468845,-0.751077 -0.7600448,-0.751077 -0.4131603,0 -0.7600448,0.338068 -0.7600448,0.751077 v 1.681067 h -1.681067 c -0.4130083,0 -0.7510762,0.346884 -0.7510762,0.760045 0,0.41316 0.3380679,0.760044 0.7510762,0.760044 h 1.681067 v 1.681067 c 0,0.413009 0.3468845,0.751077 0.7600448,0.751077 0.4131603,0 0.7600448,-0.338068 0.7600448,-0.751077 v -1.681067 h 1.681067 c 0.4130083,0 0.7510762,-0.346884 0.7510762,-0.760044 0,-0.413161 -0.3380679,-0.760045 -0.7510762,-0.760045 z"
       style="fill:#ffffff;fill-opacity:1;stroke:none;stroke-width:0.15200895;stroke-opacity:1" /></g></svg>