<?xml version="1.0" encoding="UTF-8" standalone="no"?>
<!-- Created with Inkscape (http://www.inkscape.org/) -->

<svg
   xmlns:dc="http://purl.org/dc/elements/1.1/"
   xmlns:cc="http://creativecommons.org/ns#"
   xmlns:rdf="http://www.w3.org/1999/02/22-rdf-syntax-ns#"
   xmlns:svg="http://www.w3.org/2000/svg"
   xmlns="http://www.w3.org/2000/svg"
   xmlns:sodipodi="http://sodipodi.sourceforge.net/DTD/sodipodi-0.dtd"
   xmlns:inkscape="http://www.inkscape.org/namespaces/inkscape"
   width="35.207138"
   height="50"
   viewBox="0 0 9.3152222 13.229167"
   version="1.1"
   id="svg8"
   inkscape:version="0.92+devel unknown"
   sodipodi:docname="question-mark.svg">
  <defs
     id="defs2" />
  <sodipodi:namedview
     id="base"
     pagecolor="#ffffff"
     bordercolor="#666666"
     borderopacity="1.0"
     inkscape:pageopacity="0.0"
     inkscape:pageshadow="2"
     inkscape:zoom="5.6"
     inkscape:cx="13.405083"
     inkscape:cy="27.726641"
     inkscape:document-units="mm"
     inkscape:current-layer="g4837"
     inkscape:document-rotation="0"
     showgrid="false"
     fit-margin-top="0"
     fit-margin-left="0"
     fit-margin-right="0"
     fit-margin-bottom="0"
     units="px"
     inkscape:window-width="1920"
     inkscape:window-height="1012"
     inkscape:window-x="0"
     inkscape:window-y="0"
     inkscape:window-maximized="1" />
  <metadata
     id="metadata5">
    <rdf:RDF>
      <cc:Work
         rdf:about="">
        <dc:format>image/svg+xml</dc:format>
        <dc:type
           rdf:resource="http://purl.org/dc/dcmitype/StillImage" />
        <dc:title></dc:title>
      </cc:Work>
    </rdf:RDF>
  </metadata>
  <g
     inkscape:label="Calque 1"
     inkscape:groupmode="layer"
     id="layer1"
     transform="translate(-10.822528,-124.44432)">
    <g
       id="g4902"
       transform="matrix(0.03081531,0,0,0.03081531,8.8655707,124.44432)">
      <g
         id="g4840">
        <g
           id="Guides_For_Artboard_25_" />
        <g
           id="Artwork_24_" />
        <g
           id="Layer_2_24_">
          <g
             id="g4837">
            <g
               id="g4430"
               transform="matrix(4.7700606,0,0,4.7700606,-7.1562246e-4,-1.0398554e-6)"
               style="fill:#d43d21;fill-opacity:1">
              <g
                 id="g4373"
                 style="fill:#d43d21;fill-opacity:1">
                <g
                   id="g4371"
                   style="fill:#d43d21;fill-opacity:1">
                  <path
                     id="path4369"
                     d="M 65.449,6.169 C 59.748,2.057 52.588,0 43.971,0 37.412,0 31.881,1.449 27.383,4.34 20.25,8.871 16.457,16.562 16,27.412 h 16.531 c 0,-3.158 0.922,-6.203 2.766,-9.137 1.846,-2.932 4.975,-4.396 9.389,-4.396 4.488,0 7.58,1.19 9.271,3.568 1.693,2.381 2.539,5.018 2.539,7.91 0,2.513 -1.262,4.816 -2.781,6.91 -0.836,1.22 -1.938,2.342 -3.307,3.369 0,0 -8.965,5.75 -12.9,10.368 -2.283,2.681 -2.488,6.692 -2.689,12.449 -0.014,0.409 0.143,1.255 1.576,1.255 1.433,0 11.582,0 12.857,0 1.275,0 1.541,-0.951 1.559,-1.362 0.09,-2.098 0.326,-3.167 0.707,-4.377 0.723,-2.286 2.688,-4.283 4.893,-5.997 l 4.551,-3.141 c 4.107,-3.199 7.385,-5.826 8.83,-7.883 C 72.264,33.562 74,29.393 74,24.443 74,16.373 71.148,10.281 65.449,6.169 Z M 43.705,69.617 c -5.697,-0.17 -10.398,3.771 -10.578,9.951 -0.178,6.178 4.293,10.258 9.99,10.426 C 49.066,90.171 53.64,86.357 53.818,80.18 53.996,74 49.654,69.793 43.705,69.617 Z"
                     style="fill:#d43d21;fill-opacity:1"
                     inkscape:connector-curvature="0" />
                </g>
              </g>
              <g
                 id="g4375"
                 style="fill:#d43d21;fill-opacity:1" />
              <g
                 id="g4377"
                 style="fill:#d43d21;fill-opacity:1" />
              <g
                 id="g4379"
                 style="fill:#d43d21;fill-opacity:1" />
              <g
                 id="g4381"
                 style="fill:#d43d21;fill-opacity:1" />
              <g
                 id="g4383"
                 style="fill:#d43d21;fill-opacity:1" />
              <g
                 id="g4385"
                 style="fill:#d43d21;fill-opacity:1" />
              <g
                 id="g4387"
                 style="fill:#d43d21;fill-opacity:1" />
              <g
                 id="g4389"
                 style="fill:#d43d21;fill-opacity:1" />
              <g
                 id="g4391"
                 style="fill:#d43d21;fill-opacity:1" />
              <g
                 id="g4393"
                 style="fill:#d43d21;fill-opacity:1" />
              <g
                 id="g4395"
                 style="fill:#d43d21;fill-opacity:1" />
              <g
                 id="g4397"
                 style="fill:#d43d21;fill-opacity:1" />
              <g
                 id="g4399"
                 style="fill:#d43d21;fill-opacity:1" />
              <g
                 id="g4401"
                 style="fill:#d43d21;fill-opacity:1" />
              <g
                 id="g4403"
                 style="fill:#d43d21;fill-opacity:1" />
            </g>
          </g>
        </g>
      </g>
      <g
         id="g4842" />
      <g
         id="g4844" />
      <g
         id="g4846" />
      <g
         id="g4848" />
      <g
         id="g4850" />
      <g
         id="g4852" />
      <g
         id="g4854" />
      <g
         id="g4856" />
      <g
         id="g4858" />
      <g
         id="g4860" />
      <g
         id="g4862" />
      <g
         id="g4864" />
      <g
         id="g4866" />
      <g
         id="g4868" />
      <g
         id="g4870" />
    </g>
  </g>
</svg>
