<?xml version="1.0" encoding="UTF-8" standalone="no"?>
<!-- Generator: Adobe Illustrator 19.0.0, SVG Export Plug-In . SVG Version: 6.00 Build 0)  -->

<svg
   xmlns:dc="http://purl.org/dc/elements/1.1/"
   xmlns:cc="http://creativecommons.org/ns#"
   xmlns:rdf="http://www.w3.org/1999/02/22-rdf-syntax-ns#"
   xmlns:svg="http://www.w3.org/2000/svg"
   xmlns="http://www.w3.org/2000/svg"
   xmlns:sodipodi="http://sodipodi.sourceforge.net/DTD/sodipodi-0.dtd"
   xmlns:inkscape="http://www.inkscape.org/namespaces/inkscape"
   version="1.1"
   id="Capa_1"
   x="0px"
   y="0px"
   viewBox="0 0 99.999998 99.999998"
   xml:space="preserve"
   sodipodi:docname="report.svg"
   width="100"
   height="100"
   inkscape:version="0.92+devel unknown"><metadata
     id="metadata60"><rdf:RDF><cc:Work
         rdf:about=""><dc:format>image/svg+xml</dc:format><dc:type
           rdf:resource="http://purl.org/dc/dcmitype/StillImage" /><dc:title></dc:title></cc:Work></rdf:RDF></metadata><defs
     id="defs58" /><sodipodi:namedview
     pagecolor="#ffffff"
     bordercolor="#666666"
     inkscape:document-rotation="0"
     borderopacity="1"
     objecttolerance="10"
     gridtolerance="10"
     guidetolerance="10"
     inkscape:pageopacity="0"
     inkscape:pageshadow="2"
     inkscape:window-width="1920"
     inkscape:window-height="1003"
     id="namedview56"
     showgrid="false"
     fit-margin-top="0"
     fit-margin-left="0"
     fit-margin-right="0"
     fit-margin-bottom="0"
     inkscape:zoom="1.0438257"
     inkscape:cx="-79.788539"
     inkscape:cy="115.37804"
     inkscape:window-x="0"
     inkscape:window-y="0"
     inkscape:window-maximized="1"
     inkscape:current-layer="Capa_1" /><circle
     style="fill:#f5f5f5;fill-opacity:1;stroke-width:0.15284213"
     id="path4319"
     cx="50"
     cy="50"
     r="50" /><g
     id="g25"
     transform="translate(-57.221077,-33.104851)" /><g
     id="g27"
     transform="translate(-57.221077,-33.104851)" /><g
     id="g29"
     transform="translate(-57.221077,-33.104851)" /><g
     id="g31"
     transform="translate(-57.221077,-33.104851)" /><g
     id="g33"
     transform="translate(-57.221077,-33.104851)" /><g
     id="g35"
     transform="translate(-57.221077,-33.104851)" /><g
     id="g37"
     transform="translate(-57.221077,-33.104851)" /><g
     id="g39"
     transform="translate(-57.221077,-33.104851)" /><g
     id="g41"
     transform="translate(-57.221077,-33.104851)" /><g
     id="g43"
     transform="translate(-57.221077,-33.104851)" /><g
     id="g45"
     transform="translate(-57.221077,-33.104851)" /><g
     id="g47"
     transform="translate(-57.221077,-33.104851)" /><g
     id="g49"
     transform="translate(-57.221077,-33.104851)" /><g
     id="g51"
     transform="translate(-57.221077,-33.104851)" /><g
     id="g53"
     transform="translate(-57.221077,-33.104851)" /><g
     id="g4910"
     transform="matrix(0.17779516,0,0,0.17779516,18.684801,18.68485)"><g
       id="g4843"><g
         id="Guides_For_Artboard_10_" /><g
         id="Artwork_10_" /><g
         id="Layer_2_10_"><path
           id="path4824"
           d="m 348.624,170.544 c -2.835,-3.287 -6.953,-5.355 -11.318,-5.355 l -29.239,0.387 -10.224,0.122 33.685,161.921 20.584,-145.104 c 0.607,-4.276 -0.642,-8.688 -3.488,-11.971 z"
           style="fill:#d43d21"
           inkscape:connector-curvature="0" /><g
           id="g4840"><path
             id="path4826"
             d="m 135.167,125.544 18.226,21.564 h 106.58 c 3.459,0 6.434,2.304 7.767,5.392 h 15.621 c 7.74,0 14.333,5.524 15.48,13.197 l 9.224,50.45 V 59.58 H 307.252 278.3 c -12.381,0 -22.418,-10.036 -22.418,-22.419 L 256.721,7.397 282.393,33.908 256.721,7.397 h -56.642 -85.568 c -12.382,0 -22.418,10.037 -22.418,22.418 v 86.48 h 23.713 c 7.459,0.001 14.546,3.578 19.361,9.249 z m 7.991,-60.371 h 119.625 c 4.7,0 8.518,4.248 8.518,8.946 0,4.7 -3.802,8.933 -8.518,8.933 H 143.158 c -4.684,0 -8.494,-4.232 -8.494,-8.933 0,-4.698 3.802,-8.946 8.494,-8.946 z m 0,41.957 h 119.625 c 4.7,0 8.518,4.248 8.518,8.947 0,4.7 -3.802,8.931 -8.518,8.931 H 143.158 c -4.684,0 -8.494,-4.23 -8.494,-8.931 0,-4.699 3.802,-8.947 8.494,-8.947 z"
             style="fill:#f7f1e6"
             inkscape:connector-curvature="0" /><path
             id="path4828"
             d="m 143.158,83.052 h 119.625 c 4.716,0 8.518,-4.232 8.518,-8.933 0,-4.698 -3.817,-8.946 -8.518,-8.946 H 143.158 c -4.692,0 -8.494,4.248 -8.494,8.946 0,4.7 3.811,8.933 8.494,8.933 z"
             style="fill:#dec8ae"
             inkscape:connector-curvature="0" /><path
             id="path4830"
             d="m 143.158,125.008 h 119.625 c 4.716,0 8.518,-4.23 8.518,-8.931 0,-4.699 -3.817,-8.947 -8.518,-8.947 H 143.158 c -4.692,0 -8.494,4.248 -8.494,8.947 0,4.7 3.811,8.931 8.494,8.931 z"
             style="fill:#dec8ae"
             inkscape:connector-curvature="0" /><path
             id="path4832"
             d="m 259.974,147.109 h -106.58 l 4.557,5.392 H 267.74 c -1.332,-3.089 -4.306,-5.392 -7.766,-5.392 z"
             style="fill:#dec8ae"
             inkscape:connector-curvature="0" /><path
             id="path4834"
             d="m 298.841,165.697 c -1.147,-7.673 -7.74,-13.197 -15.48,-13.197 H 267.74 157.951 l -4.557,-5.392 -18.226,-21.564 c -4.815,-5.671 -11.903,-9.248 -19.362,-9.248 H 92.093 34.318 c -5.806,0 -11.319,2.724 -15.077,7.166 -3.746,4.468 -5.344,10.565 -4.365,16.292 l 2.161,12.746 h -1.418 c -4.568,0 -8.889,1.846 -11.836,5.31 -2.992,3.465 -4.298,7.978 -3.599,12.49 l 33.148,157.418 c 1.53,9.879 10.036,17.146 20.026,17.146 h 262.634 c 4.556,0 8.876,-2.003 11.825,-5.434 2.97,-3.454 4.297,-7.932 3.633,-12.431 l -0.07,-0.346 z m -76.786,135.776 -7.492,5.359 -1.145,0.805 c -6.934,4.94 -16.991,5.144 -22.808,0.524 l -20.797,-18.818 -23.584,21.133 c -6.073,4.822 -16.158,5.068 -22.77,0.449 l -8.307,-5.701 c -7.01,-4.984 -8.135,-13.429 -2.081,-19.002 l 21.289,-23.317 -15.053,-14.7 c -8.258,-6.561 -9.725,-17.92 -2.819,-25.434 l 1.164,-1.253 7.501,-8.133 c 7.492,-8.125 20.746,-8.499 29.052,-0.676 l 17.465,13.261 18.938,-12.61 c 8.827,-8.146 22.042,-8.443 28.976,-0.6 l 8.099,9.11 c 6.46,7.188 4.322,18.594 -4.295,25.461 l -16.384,13.965 18.249,21.156 c 5.751,5.25 4.134,13.834 -3.198,19.021 z"
             style="fill:#e74424"
             inkscape:connector-curvature="0" /><path
             id="path4836"
             d="m 207.004,261.296 16.384,-13.965 c 8.618,-6.867 10.756,-18.272 4.295,-25.461 l -8.099,-9.11 c -6.934,-7.844 -20.149,-7.546 -28.976,0.6 l -18.938,12.61 -17.465,-13.261 c -8.307,-7.823 -21.56,-7.449 -29.052,0.676 l -7.501,8.133 -1.164,1.253 c -6.906,7.514 -5.439,18.873 2.819,25.434 l 15.053,14.7 -21.289,23.317 c -6.055,5.573 -4.929,14.018 2.081,19.002 l 8.307,5.701 c 6.611,4.619 16.696,4.373 22.77,-0.449 l 23.584,-21.133 20.797,18.818 c 5.817,4.619 15.874,4.416 22.808,-0.524 l 1.145,-0.805 7.492,-5.359 c 7.332,-5.187 8.95,-13.771 3.199,-19.021 z"
             style="fill:#f7f1e6"
             inkscape:connector-curvature="0" /><path
             id="path4838"
             d="m 255.883,37.161 c 0,12.383 10.037,22.419 22.418,22.419 h 28.952 0.813 L 282.394,33.908 256.722,7.397 Z"
             style="fill:#e0dcd3"
             inkscape:connector-curvature="0" /></g></g></g><g
       id="g4845" /><g
       id="g4847" /><g
       id="g4849" /><g
       id="g4851" /><g
       id="g4853" /><g
       id="g4855" /><g
       id="g4857" /><g
       id="g4859" /><g
       id="g4861" /><g
       id="g4863" /><g
       id="g4865" /><g
       id="g4867" /><g
       id="g4869" /><g
       id="g4871" /><g
       id="g4873" /></g></svg>