<?xml version="1.0" encoding="UTF-8" standalone="no"?>
<!-- Generator: Adobe Illustrator 19.0.0, SVG Export Plug-In . SVG Version: 6.00 Build 0)  -->

<svg
   xmlns:dc="http://purl.org/dc/elements/1.1/"
   xmlns:cc="http://creativecommons.org/ns#"
   xmlns:rdf="http://www.w3.org/1999/02/22-rdf-syntax-ns#"
   xmlns:svg="http://www.w3.org/2000/svg"
   xmlns="http://www.w3.org/2000/svg"
   xmlns:sodipodi="http://sodipodi.sourceforge.net/DTD/sodipodi-0.dtd"
   xmlns:inkscape="http://www.inkscape.org/namespaces/inkscape"
   version="1.1"
   id="Capa_1"
   x="0px"
   y="0px"
   viewBox="0 0 100 100"
   xml:space="preserve"
   sodipodi:docname="session.svg"
   width="100"
   height="100"
   inkscape:version="0.92.1 r15371"><metadata
     id="metadata50"><rdf:RDF><cc:Work
         rdf:about=""><dc:format>image/svg+xml</dc:format><dc:type
           rdf:resource="http://purl.org/dc/dcmitype/StillImage" /><dc:title></dc:title></cc:Work></rdf:RDF></metadata><defs
     id="defs48" /><sodipodi:namedview
     pagecolor="#ffffff"
     bordercolor="#666666"
     borderopacity="1"
     objecttolerance="10"
     gridtolerance="10"
     guidetolerance="10"
     inkscape:pageopacity="0"
     inkscape:pageshadow="2"
     inkscape:window-width="2736"
     inkscape:window-height="1699"
     id="namedview46"
     showgrid="false"
     fit-margin-top="0"
     fit-margin-left="0"
     fit-margin-right="0"
     fit-margin-bottom="0"
     inkscape:zoom="2.2991585"
     inkscape:cx="-22.066707"
     inkscape:cy="44.098666"
     inkscape:window-x="-13"
     inkscape:window-y="-13"
     inkscape:window-maximized="1"
     inkscape:current-layer="Capa_1" /><circle
     style="fill:#f5f5f5;fill-opacity:1;stroke:none;stroke-width:0.35375857;stroke-miterlimit:4;stroke-dasharray:none;stroke-opacity:1"
     id="path4528"
     cx="50"
     cy="50"
     r="50" /><g
     id="g15"
     transform="translate(-155.2925,-155.2925)" /><g
     id="g17"
     transform="translate(-155.2925,-155.2925)" /><g
     id="g19"
     transform="translate(-155.2925,-155.2925)" /><g
     id="g21"
     transform="translate(-155.2925,-155.2925)" /><g
     id="g23"
     transform="translate(-155.2925,-155.2925)" /><g
     id="g25"
     transform="translate(-155.2925,-155.2925)" /><g
     id="g27"
     transform="translate(-155.2925,-155.2925)" /><g
     id="g29"
     transform="translate(-155.2925,-155.2925)" /><g
     id="g31"
     transform="translate(-155.2925,-155.2925)" /><g
     id="g33"
     transform="translate(-155.2925,-155.2925)" /><g
     id="g35"
     transform="translate(-155.2925,-155.2925)" /><g
     id="g37"
     transform="translate(-155.2925,-155.2925)" /><g
     id="g39"
     transform="translate(-155.2925,-155.2925)" /><g
     id="g41"
     transform="translate(-155.2925,-155.2925)" /><g
     id="g43"
     transform="translate(-155.2925,-155.2925)" /><g
     id="g4720"
     transform="matrix(0.15362006,0,0,0.15362006,19.999923,19.999999)"><g
       id="g4655"><g
         id="Guides_For_Artboard_50_" /><g
         id="Artwork_49_" /><g
         id="Layer_2_49_"><g
           id="g4652"><path
             id="path4640"
             d="M 309.164,0 H 90.336 C 73.607,0 51.122,14.813 51.122,29.753 c 0,0 0,304.703 0,328.372 0,23.669 22.485,32.448 39.214,32.448 h 7.317 c -16.236,0 -26.4,-12.111 -26.4,-27.051 L 70.179,81.267 c 0,0 -1.97,0 -1.926,0 V 47.789 c 0,-14.94 13.164,-27.051 29.4,-27.051 h 212.401 c 16.237,0 29.399,12.11 29.399,27.051 V 27.051 C 339.454,12.111 325.893,0 309.164,0 Z"
             style="fill:#d43d21"
             inkscape:connector-curvature="0" /><path
             id="path4642"
             d="M 310.054,20.739 H 97.653 c -16.236,0 -29.4,12.11 -29.4,27.051 v 33.478 c 1.025,0 13.83,0 29.4,0 h 212.401 c 16.237,0 29.399,12.111 29.399,27.051 V 47.791 C 339.454,32.85 326.292,20.739 310.054,20.739 Z"
             style="fill:#f7f1e6"
             inkscape:connector-curvature="0" /><path
             id="path4644"
             d="M 310.054,81.268 H 97.653 c -15.57,0 -28.375,0 -29.4,0 -0.044,0 -0.074,0 -0.074,0 l 0.074,282.255 c 0,14.94 13.164,27.051 29.4,27.051 h 203.232 9.169 c 16.237,0 29.399,-12.111 29.399,-27.051 V 289.994 269.255 108.318 c 0.001,-14.939 -13.161,-27.05 -29.399,-27.05 z M 126.507,193.772 c 0,-10.496 8.515,-19.008 19.008,-19.008 h 30.18 v -30.179 c 0,-10.501 8.514,-19.01 19.012,-19.01 h 1.732 10.98 c 10.5,0 19.01,8.509 19.01,19.01 v 30.179 h 30.178 c 10.502,0 19.013,8.512 19.013,19.008 v 12.715 c 0,10.499 -8.511,19.008 -19.013,19.008 h -30.178 v 30.18 c 0,10.501 -8.51,19.014 -19.01,19.014 h -10.98 -1.732 c -10.498,0 -19.012,-8.513 -19.012,-19.014 v -30.18 h -30.18 c -10.493,0 -19.008,-8.509 -19.008,-19.008 z m -7.625,99.323 h 169.869 c 5.509,0 9.977,3.881 9.977,8.668 0,4.787 -4.468,8.668 -9.977,8.668 H 118.882 c -5.51,0 -9.977,-3.881 -9.977,-8.668 0,-4.787 4.467,-8.668 9.977,-8.668 z m 146.869,49.012 H 141.882 c -5.51,0 -9.977,-3.881 -9.977,-8.668 0,-4.787 4.467,-8.668 9.977,-8.668 h 123.869 c 5.509,0 9.977,3.881 9.977,8.668 0,4.787 -4.468,8.668 -9.977,8.668 z"
             style="fill:#e74424"
             inkscape:connector-curvature="0" /><path
             id="path4646"
             d="m 145.514,225.494 h 30.18 v 30.18 c 0,10.501 8.514,19.014 19.012,19.014 h 1.732 10.98 c 10.5,0 19.01,-8.513 19.01,-19.014 v -30.18 h 30.178 c 10.502,0 19.013,-8.509 19.013,-19.008 v -12.715 c 0,-10.496 -8.511,-19.008 -19.013,-19.008 h -30.178 v -30.179 c 0,-10.501 -8.51,-19.01 -19.01,-19.01 h -10.98 -1.732 c -10.498,0 -19.012,8.509 -19.012,19.01 v 30.179 h -30.18 c -10.493,0 -19.008,8.512 -19.008,19.008 v 12.715 c 0.001,10.499 8.515,19.008 19.008,19.008 z"
             style="fill:#f7f1e6"
             inkscape:connector-curvature="0" /><path
             id="path4648"
             d="m 118.882,310.432 h 169.869 c 5.509,0 9.977,-3.881 9.977,-8.668 0,-4.787 -4.468,-8.668 -9.977,-8.668 H 118.882 c -5.51,0 -9.977,3.881 -9.977,8.668 0,4.787 4.467,8.668 9.977,8.668 z"
             style="fill:#f7f1e6"
             inkscape:connector-curvature="0" /><path
             id="path4650"
             d="M 265.751,324.77 H 141.882 c -5.51,0 -9.977,3.881 -9.977,8.668 0,4.787 4.467,8.668 9.977,8.668 h 123.869 c 5.509,0 9.977,-3.881 9.977,-8.668 0,-4.787 -4.468,-8.668 -9.977,-8.668 z"
             style="fill:#f7f1e6"
             inkscape:connector-curvature="0" /></g></g></g><g
       id="g4657" /><g
       id="g4659" /><g
       id="g4661" /><g
       id="g4663" /><g
       id="g4665" /><g
       id="g4667" /><g
       id="g4669" /><g
       id="g4671" /><g
       id="g4673" /><g
       id="g4675" /><g
       id="g4677" /><g
       id="g4679" /><g
       id="g4681" /><g
       id="g4683" /><g
       id="g4685" /></g></svg>