<?xml version="1.0" encoding="UTF-8" standalone="no"?>
<!-- Generator: Adobe Illustrator 19.0.0, SVG Export Plug-In . SVG Version: 6.00 Build 0)  -->

<svg
   xmlns:dc="http://purl.org/dc/elements/1.1/"
   xmlns:cc="http://creativecommons.org/ns#"
   xmlns:rdf="http://www.w3.org/1999/02/22-rdf-syntax-ns#"
   xmlns:svg="http://www.w3.org/2000/svg"
   xmlns="http://www.w3.org/2000/svg"
   xmlns:sodipodi="http://sodipodi.sourceforge.net/DTD/sodipodi-0.dtd"
   xmlns:inkscape="http://www.inkscape.org/namespaces/inkscape"
   version="1.1"
   id="Capa_1"
   x="0px"
   y="0px"
   viewBox="0 0 100 76.531747"
   xml:space="preserve"
   sodipodi:docname="treatment-ok.svg"
   width="100"
   height="76.531746"
   inkscape:version="0.92.1 r15371"><metadata
     id="metadata94"><rdf:RDF><cc:Work
         rdf:about=""><dc:format>image/svg+xml</dc:format><dc:type
           rdf:resource="http://purl.org/dc/dcmitype/StillImage" /><dc:title></dc:title></cc:Work></rdf:RDF></metadata><defs
     id="defs92" /><sodipodi:namedview
     pagecolor="#ffffff"
     bordercolor="#666666"
     borderopacity="1"
     objecttolerance="10"
     gridtolerance="10"
     guidetolerance="10"
     inkscape:pageopacity="0"
     inkscape:pageshadow="2"
     inkscape:window-width="2736"
     inkscape:window-height="1699"
     id="namedview90"
     showgrid="false"
     fit-margin-top="0"
     fit-margin-left="0"
     fit-margin-right="0"
     fit-margin-bottom="0"
     inkscape:zoom="1.118041"
     inkscape:cx="4.9463229"
     inkscape:cy="373.52756"
     inkscape:window-x="-13"
     inkscape:window-y="-13"
     inkscape:window-maximized="1"
     inkscape:current-layer="Capa_1" /><g
     id="g57"
     transform="matrix(0.18128327,0,0,0.18128327,0,-6.7187479e-5)"><g
       id="Guides_For_Artboard_16_" /><g
       id="Artwork_15_" /><g
       id="Layer_2_15_"><g
         id="g54"><path
           style="fill:#77a7a2"
           d="M 412.93,116.783 305.384,9.237 C 292.672,-3.474 271.459,-2.87 258.748,9.841 L 9.534,259.056 c -12.712,12.711 -12.712,33.32 0,46.032 l 107.545,107.545 c 12.712,12.712 33.321,12.712 46.032,0 L 412.325,163.419 c 12.712,-12.711 13.316,-33.924 0.605,-46.636 z M 249.07,66.528 c 4.594,-14.984 19.145,-24.172 34.169,-22.538 1.992,0.217 3.992,0.621 5.979,1.23 1.724,0.529 3.369,1.191 4.931,1.968 13.823,6.877 21.05,22.933 16.376,38.179 -4.674,15.248 -19.658,24.493 -34.961,22.441 -1.729,-0.232 -3.462,-0.605 -5.186,-1.134 -1.987,-0.608 -3.87,-1.394 -5.641,-2.331 -13.36,-7.067 -20.261,-22.832 -15.667,-37.815 z m -68.258,68.258 c 4.594,-14.984 19.145,-24.172 34.169,-22.538 1.992,0.217 3.992,0.622 5.979,1.231 1.723,0.528 3.368,1.19 4.93,1.968 13.823,6.877 21.051,22.933 16.376,38.179 -4.674,15.248 -19.659,24.493 -34.961,22.441 -1.729,-0.232 -3.463,-0.605 -5.186,-1.134 -1.987,-0.609 -3.87,-1.395 -5.641,-2.332 -13.359,-7.067 -20.259,-22.832 -15.666,-37.815 z m -68.258,68.257 c 4.594,-14.983 19.145,-24.171 34.169,-22.538 1.992,0.217 3.992,0.622 5.978,1.231 1.723,0.528 3.368,1.19 4.931,1.968 13.823,6.876 21.05,22.932 16.376,38.179 -4.674,15.248 -19.659,24.494 -34.961,22.441 -1.73,-0.232 -3.463,-0.605 -5.186,-1.133 -1.987,-0.609 -3.87,-1.396 -5.641,-2.332 -13.358,-7.067 -20.259,-22.832 -15.666,-37.816 z M 70.789,312.582 c -1.729,-0.231 -3.462,-0.605 -5.186,-1.133 -1.986,-0.609 -3.87,-1.395 -5.64,-2.332 -13.359,-7.067 -20.26,-22.832 -15.667,-37.815 4.594,-14.984 19.145,-24.172 34.169,-22.538 1.992,0.217 3.992,0.621 5.979,1.23 1.723,0.529 3.368,1.191 4.93,1.968 13.823,6.876 21.051,22.933 16.376,38.179 -4.674,15.247 -19.658,24.493 -34.961,22.441 z m 97.557,44.836 c -4.675,15.247 -19.659,24.493 -34.961,22.44 -1.73,-0.232 -3.463,-0.605 -5.187,-1.134 -1.986,-0.608 -3.87,-1.395 -5.641,-2.332 -13.359,-7.066 -20.26,-22.832 -15.666,-37.815 4.593,-14.984 19.144,-24.172 34.169,-22.538 1.992,0.217 3.992,0.621 5.978,1.23 1.723,0.529 3.368,1.191 4.931,1.968 13.824,6.878 21.051,22.933 16.377,38.181 z m 68.258,-68.258 c -4.675,15.247 -19.659,24.493 -34.961,22.44 -1.729,-0.232 -3.463,-0.605 -5.186,-1.134 -1.986,-0.609 -3.87,-1.395 -5.641,-2.332 -13.359,-7.067 -20.26,-22.832 -15.666,-37.816 4.593,-14.983 19.144,-24.172 34.169,-22.537 1.992,0.217 3.992,0.621 5.978,1.23 1.723,0.528 3.368,1.19 4.931,1.967 13.823,6.879 21.05,22.935 16.376,38.182 z m 68.257,-68.258 c -4.674,15.247 -19.658,24.493 -34.961,22.441 -1.729,-0.233 -3.463,-0.606 -5.186,-1.134 -1.986,-0.609 -3.87,-1.395 -5.641,-2.332 -13.359,-7.067 -20.26,-22.832 -15.667,-37.815 4.593,-14.984 19.144,-24.172 34.169,-22.538 1.992,0.217 3.992,0.621 5.979,1.23 1.723,0.528 3.369,1.19 4.931,1.967 13.823,6.878 21.05,22.934 16.376,38.181 z m 68.258,-68.258 c -4.674,15.247 -19.658,24.493 -34.961,22.44 -1.729,-0.232 -3.463,-0.605 -5.186,-1.134 -1.987,-0.608 -3.87,-1.394 -5.641,-2.332 -13.359,-7.066 -20.26,-22.832 -15.667,-37.815 4.594,-14.984 19.144,-24.172 34.169,-22.538 1.992,0.217 3.992,0.621 5.978,1.23 1.723,0.529 3.368,1.191 4.931,1.968 13.824,6.878 21.051,22.935 16.377,38.181 z"
           id="path4"
           inkscape:connector-curvature="0" /><path
           style="fill:#f7f1e6"
           d="m 356.743,114.464 -18.585,60.62 c 15.303,2.052 30.287,-7.194 34.961,-22.44 4.674,-15.246 -2.553,-31.303 -16.376,-38.18 z"
           id="path6"
           inkscape:connector-curvature="0" /><path
           style="fill:#f7f1e6"
           d="m 311.665,133.804 c -4.593,14.983 2.307,30.749 15.667,37.815 l 18.503,-60.353 c -15.026,-1.635 -29.576,7.554 -34.17,22.538 z"
           id="path8"
           inkscape:connector-curvature="0" /><path
           style="fill:#e0dcd3"
           d="m 351.812,112.496 c -1.986,-0.609 -3.986,-1.013 -5.978,-1.23 l -18.503,60.353 c 1.771,0.938 3.654,1.723 5.641,2.332 1.723,0.529 3.457,0.902 5.186,1.134 l 18.585,-60.62 c -1.563,-0.778 -3.208,-1.44 -4.931,-1.969 z"
           id="path10"
           inkscape:connector-curvature="0" /><path
           style="fill:#f7f1e6"
           d="m 310.524,85.368 c 4.674,-15.247 -2.553,-31.302 -16.376,-38.179 l -18.585,60.62 c 15.303,2.052 30.286,-7.194 34.961,-22.441 z"
           id="path12"
           inkscape:connector-curvature="0" /><path
           style="fill:#f7f1e6"
           d="M 264.737,104.343 283.239,43.99 c -15.024,-1.635 -29.575,7.554 -34.169,22.538 -4.594,14.983 2.307,30.748 15.667,37.815 z"
           id="path14"
           inkscape:connector-curvature="0" /><path
           style="fill:#e0dcd3"
           d="m 270.377,106.674 c 1.723,0.529 3.457,0.902 5.186,1.134 l 18.585,-60.62 c -1.562,-0.777 -3.207,-1.439 -4.931,-1.968 -1.986,-0.609 -3.987,-1.013 -5.979,-1.23 l -18.502,60.353 c 1.771,0.937 3.654,1.723 5.641,2.331 z"
           id="path16"
           inkscape:connector-curvature="0" /><path
           style="fill:#f7f1e6"
           d="M 288.485,182.722 269.9,243.343 c 15.303,2.052 30.287,-7.194 34.961,-22.441 4.674,-15.247 -2.553,-31.303 -16.376,-38.18 z"
           id="path18"
           inkscape:connector-curvature="0" /><path
           style="fill:#f7f1e6"
           d="m 243.407,202.062 c -4.594,14.983 2.307,30.748 15.667,37.815 l 18.502,-60.353 c -15.025,-1.635 -29.576,7.554 -34.169,22.538 z"
           id="path20"
           inkscape:connector-curvature="0" /><path
           style="fill:#e0dcd3"
           d="m 283.555,180.754 c -1.987,-0.609 -3.987,-1.013 -5.979,-1.23 l -18.502,60.353 c 1.771,0.938 3.654,1.723 5.641,2.332 1.723,0.528 3.457,0.901 5.186,1.134 l 18.585,-60.621 c -1.563,-0.778 -3.208,-1.439 -4.931,-1.968 z"
           id="path22"
           inkscape:connector-curvature="0" /><path
           style="fill:#f7f1e6"
           d="m 242.266,153.626 c 4.674,-15.247 -2.553,-31.302 -16.376,-38.179 l -18.585,60.62 c 15.303,2.052 30.287,-7.194 34.961,-22.441 z"
           id="path24"
           inkscape:connector-curvature="0" /><path
           style="fill:#f7f1e6"
           d="m 196.479,172.601 18.502,-60.353 c -15.025,-1.634 -29.576,7.554 -34.169,22.538 -4.593,14.983 2.307,30.748 15.667,37.815 z"
           id="path26"
           inkscape:connector-curvature="0" /><path
           style="fill:#e0dcd3"
           d="m 202.119,174.933 c 1.723,0.528 3.457,0.901 5.186,1.134 l 18.585,-60.62 c -1.562,-0.777 -3.207,-1.439 -4.93,-1.968 -1.986,-0.609 -3.987,-1.014 -5.979,-1.231 l -18.502,60.353 c 1.771,0.937 3.654,1.723 5.64,2.332 z"
           id="path28"
           inkscape:connector-curvature="0" /><path
           style="fill:#f7f1e6"
           d="m 220.227,250.98 -18.585,60.621 c 15.303,2.052 30.287,-7.193 34.961,-22.44 4.675,-15.248 -2.552,-31.304 -16.376,-38.181 z"
           id="path30"
           inkscape:connector-curvature="0" /><path
           style="fill:#f7f1e6"
           d="m 175.15,270.319 c -4.594,14.984 2.307,30.749 15.666,37.816 l 18.503,-60.353 c -15.026,-1.635 -29.576,7.554 -34.169,22.537 z"
           id="path32"
           inkscape:connector-curvature="0" /><path
           style="fill:#e0dcd3"
           d="m 215.297,249.012 c -1.986,-0.609 -3.986,-1.014 -5.978,-1.23 l -18.503,60.353 c 1.771,0.937 3.654,1.722 5.641,2.332 1.723,0.528 3.457,0.902 5.186,1.134 l 18.585,-60.621 c -1.563,-0.777 -3.208,-1.439 -4.931,-1.968 z"
           id="path34"
           inkscape:connector-curvature="0" /><path
           style="fill:#f7f1e6"
           d="m 174.009,221.883 c 4.674,-15.247 -2.554,-31.303 -16.376,-38.179 l -18.584,60.62 c 15.301,2.053 30.285,-7.193 34.96,-22.441 z"
           id="path36"
           inkscape:connector-curvature="0" /><path
           style="fill:#f7f1e6"
           d="m 128.221,240.859 18.503,-60.354 c -15.025,-1.634 -29.576,7.554 -34.169,22.538 -4.594,14.984 2.307,30.749 15.666,37.816 z"
           id="path38"
           inkscape:connector-curvature="0" /><path
           style="fill:#e0dcd3"
           d="m 133.862,243.191 c 1.723,0.528 3.456,0.901 5.186,1.133 l 18.584,-60.62 c -1.563,-0.777 -3.208,-1.439 -4.931,-1.968 -1.986,-0.609 -3.986,-1.014 -5.978,-1.231 l -18.503,60.354 c 1.772,0.936 3.655,1.723 5.642,2.332 z"
           id="path40"
           inkscape:connector-curvature="0" /><path
           style="fill:#f7f1e6"
           d="m 151.97,319.238 -18.584,60.62 c 15.302,2.052 30.286,-7.194 34.961,-22.44 4.673,-15.248 -2.554,-31.303 -16.377,-38.18 z"
           id="path42"
           inkscape:connector-curvature="0" /><path
           style="fill:#f7f1e6"
           d="m 106.892,338.577 c -4.594,14.983 2.307,30.749 15.666,37.815 l 18.503,-60.353 c -15.025,-1.634 -29.576,7.554 -34.169,22.538 z"
           id="path44"
           inkscape:connector-curvature="0" /><path
           style="fill:#e0dcd3"
           d="m 147.039,317.27 c -1.986,-0.609 -3.986,-1.013 -5.978,-1.23 l -18.503,60.353 c 1.771,0.937 3.654,1.723 5.641,2.332 1.723,0.529 3.457,0.902 5.187,1.134 l 18.584,-60.62 c -1.563,-0.778 -3.208,-1.441 -4.931,-1.969 z"
           id="path46"
           inkscape:connector-curvature="0" /><path
           style="fill:#f7f1e6"
           d="m 89.374,251.962 -18.585,60.62 c 15.303,2.053 30.287,-7.193 34.961,-22.44 4.675,-15.247 -2.552,-31.304 -16.376,-38.18 z"
           id="path48"
           inkscape:connector-curvature="0" /><path
           style="fill:#f7f1e6"
           d="m 44.296,271.301 c -4.593,14.983 2.308,30.749 15.667,37.815 l 18.502,-60.353 c -15.024,-1.634 -29.575,7.554 -34.169,22.538 z"
           id="path50"
           inkscape:connector-curvature="0" /><path
           style="fill:#e0dcd3"
           d="m 84.444,249.994 c -1.987,-0.609 -3.987,-1.013 -5.979,-1.23 l -18.502,60.353 c 1.771,0.937 3.654,1.723 5.64,2.332 1.724,0.528 3.457,0.902 5.186,1.133 l 18.585,-60.62 c -1.562,-0.777 -3.207,-1.439 -4.93,-1.968 z"
           id="path52"
           inkscape:connector-curvature="0" /></g></g></g><g
     id="g59"
     transform="translate(0,-345.63525)" /><g
     id="g61"
     transform="translate(0,-345.63525)" /><g
     id="g63"
     transform="translate(0,-345.63525)" /><g
     id="g65"
     transform="translate(0,-345.63525)" /><g
     id="g67"
     transform="translate(0,-345.63525)" /><g
     id="g69"
     transform="translate(0,-345.63525)" /><g
     id="g71"
     transform="translate(0,-345.63525)" /><g
     id="g73"
     transform="translate(0,-345.63525)" /><g
     id="g75"
     transform="translate(0,-345.63525)" /><g
     id="g77"
     transform="translate(0,-345.63525)" /><g
     id="g79"
     transform="translate(0,-345.63525)" /><g
     id="g81"
     transform="translate(0,-345.63525)" /><g
     id="g83"
     transform="translate(0,-345.63525)" /><g
     id="g85"
     transform="translate(0,-345.63525)" /><g
     id="g87"
     transform="translate(0,-345.63525)" /><path
     id="path4571"
     d="m 56.364911,58.318043 c -0.339575,-0.33958 -0.509361,-0.84893 -0.509361,-1.1885 0,-0.33958 0.169786,-0.84894 0.509361,-1.18851 l 2.377008,-2.37701 c 0.679142,-0.67914 1.697863,-0.67914 2.377005,0 l 0.169787,0.16979 9.338251,10.01739 c 0.339571,0.33957 0.84893,0.33957 1.188504,0 l 22.751371,-23.6003 h 0.169786 v 0 c 0.679143,-0.67914 1.697864,-0.67914 2.377007,0 l 2.377007,2.37701 c 0.679153,0.67915 0.679153,1.69786 0,2.37701 v 0 l -27.165812,28.18453 c -0.339573,0.33957 -0.679147,0.50936 -1.188506,0.50936 -0.509357,0 -0.848929,-0.16979 -1.188504,-0.50936 L 56.704483,58.827403 Z"
     inkscape:connector-curvature="0"
     style="fill:#4e9f15;fill-opacity:1;stroke-width:1.69786346" /></svg>