<?xml version="1.0" encoding="UTF-8" standalone="no"?>
<!-- Generator: Adobe Illustrator 19.0.0, SVG Export Plug-In . SVG Version: 6.00 Build 0)  -->

<svg
   xmlns:dc="http://purl.org/dc/elements/1.1/"
   xmlns:cc="http://creativecommons.org/ns#"
   xmlns:rdf="http://www.w3.org/1999/02/22-rdf-syntax-ns#"
   xmlns:svg="http://www.w3.org/2000/svg"
   xmlns="http://www.w3.org/2000/svg"
   xmlns:sodipodi="http://sodipodi.sourceforge.net/DTD/sodipodi-0.dtd"
   xmlns:inkscape="http://www.inkscape.org/namespaces/inkscape"
   version="1.1"
   id="Layer_1"
   x="0px"
   y="0px"
   viewBox="0 0 100 100"
   xml:space="preserve"
   sodipodi:docname="triage-dashboard.svg"
   width="100"
   height="100"
   inkscape:version="0.92.1 r15371"><metadata
     id="metadata75"><rdf:RDF><cc:Work
         rdf:about=""><dc:format>image/svg+xml</dc:format><dc:type
           rdf:resource="http://purl.org/dc/dcmitype/StillImage" /><dc:title></dc:title></cc:Work></rdf:RDF></metadata><defs
     id="defs73" /><sodipodi:namedview
     pagecolor="#ffffff"
     bordercolor="#666666"
     inkscape:document-rotation="0"
     borderopacity="1"
     objecttolerance="10"
     gridtolerance="10"
     guidetolerance="10"
     inkscape:pageopacity="0"
     inkscape:pageshadow="2"
     inkscape:window-width="2736"
     inkscape:window-height="1699"
     id="namedview71"
     showgrid="false"
     fit-margin-top="0"
     fit-margin-left="0"
     fit-margin-right="0"
     fit-margin-bottom="0"
     inkscape:zoom="1.7146811"
     inkscape:cx="99.24542"
     inkscape:cy="9.8954667"
     inkscape:window-x="-13"
     inkscape:window-y="-13"
     inkscape:window-maximized="1"
     inkscape:current-layer="Layer_1" /><circle
     style="fill:#f5f5f5;fill-opacity:1;stroke-width:0.15284213"
     id="path4319"
     cx="50"
     cy="50"
     r="50" /><g
     id="g4540"
     transform="matrix(0.6,0,0,0.6,25.121656,20)"><polygon
       transform="matrix(0.19938152,0,0,0.19938152,-8.535922,0)"
       id="polygon2"
       points="317.621,218.384 188.054,218.384 252.837,283.167 "
       style="fill:#f8b64c" /><rect
       id="rect4"
       height="53.333359"
       width="47.708408"
       style="fill:#40596b;stroke-width:0.19938152"
       y="28.541651"
       x="17.916821" /><path
       inkscape:connector-curvature="0"
       id="path6"
       d="m 57.083527,78.33341 c -10.208334,1.24992 -20.208314,1.24992 -30.416648,0 1.458277,-8.95841 1.458277,-17.91662 0,-27.08339 10.208334,-1.24992 20.208314,-1.24992 30.416648,0 -1.458476,9.16657 -1.458476,18.12498 0,27.08339 z"
       style="fill:#f8b64c;stroke-width:0.19938152" /><path
       inkscape:connector-curvature="0"
       id="path8"
       d="m 20.625221,23.33342 v 20.20831 c 0,11.66661 9.583272,21.25009 21.250082,21.25009 11.666809,0 21.250087,-9.58328 21.250087,-21.25009 V 23.33342 Z"
       style="fill:#ffd15c;stroke-width:0.19938152" /><path
       inkscape:connector-curvature="0"
       id="path10"
       d="m 41.875103,4.79174 c -13.125086,0 -23.958281,10.62504 -23.958281,23.74992 H 65.83338 c 0,-13.12508 -10.833191,-23.74992 -23.958277,-23.74992 z"
       style="fill:#40596b;stroke-width:0.19938152" /><path
       inkscape:connector-curvature="0"
       id="path12"
       d="M 70.20841,29.58343 H 67.29166 C 67.29166,14.79172 55.833405,2.7084 41.874904,2.7084 27.916403,2.7084 16.458546,14.79172 16.458546,29.58343 H 13.541793 C 13.541793,13.12509 26.250172,0 41.875103,0 57.50003,0 70.20841,13.33324 70.20841,29.58343 Z"
       style="fill:#cdd6e0;stroke-width:0.19938152" /><path
       inkscape:connector-curvature="0"
       id="path14"
       d="M 59.58357,57.91674 H 45.833425 v -2.7084 H 59.58337 c 2.50005,0 4.58338,-2.08333 4.58338,-4.58338 v -5.20824 h 2.91676 v 5.20824 c 0,3.95832 -3.33346,7.29178 -7.49994,7.29178 z"
       style="fill:#f2f2f2;stroke-width:0.19938152" /><path
       inkscape:connector-curvature="0"
       id="path16"
       d="m 45.000209,53.12501 h -6.250012 c -1.66663,0 -2.916752,1.45827 -2.916752,2.91675 v 0.62506 c 0,1.66663 1.458276,2.91675 2.916752,2.91675 h 6.250012 c 1.66663,0 2.916753,-1.45827 2.916753,-2.91675 v -0.62506 c -2e-4,-1.45848 -1.250123,-2.91675 -2.916753,-2.91675 z"
       style="fill:#acb3ba;stroke-width:0.19938152" /><g
       transform="matrix(0.19938152,0,0,0.19938152,-8.535922,0)"
       id="g22"><path
         inkscape:connector-curvature="0"
         id="path18"
         d="m 412.707,159.869 h -8.359 v 53.29 h 8.359 c 6.269,0 10.449,-4.18 10.449,-10.449 v -32.392 c 0,-6.269 -5.225,-10.449 -10.449,-10.449 z"
         style="fill:#cdd6e0" /><path
         inkscape:connector-curvature="0"
         id="path20"
         d="m 82.519,169.273 v 32.392 c 0,6.269 4.18,10.449 10.449,10.449 h 8.359 v -53.29 h -8.359 c -5.225,1.045 -10.449,5.225 -10.449,10.449 z"
         style="fill:#cdd6e0" /></g><g
       transform="matrix(0.19938152,0,0,0.19938152,-8.535922,0)"
       id="g28"><path
         inkscape:connector-curvature="0"
         id="path24"
         d="m 383.449,143.151 h -24.033 v 84.637 h 24.033 c 11.494,0 20.898,-9.404 20.898,-20.898 v -42.841 c 0,-11.494 -9.404,-20.898 -20.898,-20.898 z"
         style="fill:#ff7058" /><path
         inkscape:connector-curvature="0"
         id="path26"
         d="m 101.327,164.049 v 42.841 c 0,11.494 9.404,20.898 20.898,20.898 h 24.033 v -84.637 h -24.033 c -11.494,0 -20.898,9.404 -20.898,20.898 z"
         style="fill:#ff7058" /></g><g
       transform="matrix(0.19938152,0,0,0.19938152,-8.535922,0)"
       id="g34"><polygon
         id="polygon30"
         points="300.902,143.151 312.396,143.151 312.396,110.759 "
         style="fill:#ffd15c" /><polygon
         id="polygon32"
         points="217.311,143.151 230.894,143.151 230.894,119.118 "
         style="fill:#ffd15c" /></g><polygon
       transform="matrix(0.19938152,0,0,0.19938152,-8.535922,0)"
       id="polygon36"
       points="324.935,355.265 180.739,355.265 252.837,427.363 "
       style="fill:#f8b64c" /><path
       inkscape:connector-curvature="0"
       id="path38"
       d="M 58.1251,70.83328 H 56.041758 L 41.66675,85.20828 27.291741,70.83328 H 25.208404 C 11.250102,70.83328 0,82.08318 0,96.04168 V 100 H 82.91659 V 96.04168 C 83.3335,82.08338 72.0834,70.83328 58.1251,70.83328 Z"
       style="fill:#ff7058;stroke-width:0.19938152" /></g><g
     id="g40"
     transform="translate(-34.275909,-401.551)" /><g
     id="g42"
     transform="translate(-34.275909,-401.551)" /><g
     id="g44"
     transform="translate(-34.275909,-401.551)" /><g
     id="g46"
     transform="translate(-34.275909,-401.551)" /><g
     id="g48"
     transform="translate(-34.275909,-401.551)" /><g
     id="g50"
     transform="translate(-34.275909,-401.551)" /><g
     id="g52"
     transform="translate(-34.275909,-401.551)" /><g
     id="g54"
     transform="translate(-34.275909,-401.551)" /><g
     id="g56"
     transform="translate(-34.275909,-401.551)" /><g
     id="g58"
     transform="translate(-34.275909,-401.551)" /><g
     id="g60"
     transform="translate(-34.275909,-401.551)" /><g
     id="g62"
     transform="translate(-34.275909,-401.551)" /><g
     id="g64"
     transform="translate(-34.275909,-401.551)" /><g
     id="g66"
     transform="translate(-34.275909,-401.551)" /><g
     id="g68"
     transform="translate(-34.275909,-401.551)" /></svg>