<?xml version="1.0" encoding="UTF-8" standalone="no"?>
<!-- Generator: Adobe Illustrator 19.0.0, SVG Export Plug-In . SVG Version: 6.00 Build 0)  -->

<svg
   xmlns:dc="http://purl.org/dc/elements/1.1/"
   xmlns:cc="http://creativecommons.org/ns#"
   xmlns:rdf="http://www.w3.org/1999/02/22-rdf-syntax-ns#"
   xmlns:svg="http://www.w3.org/2000/svg"
   xmlns="http://www.w3.org/2000/svg"
   xmlns:sodipodi="http://sodipodi.sourceforge.net/DTD/sodipodi-0.dtd"
   xmlns:inkscape="http://www.inkscape.org/namespaces/inkscape"
   version="1.1"
   id="Layer_1"
   x="0px"
   y="0px"
   viewBox="0 0 44.825295 49.999997"
   xml:space="preserve"
   sodipodi:docname="user_avatar.svg"
   width="44.825294"
   height="49.999996"
   inkscape:version="0.92.1 r15371"><metadata
     id="metadata75"><rdf:RDF><cc:Work
         rdf:about=""><dc:format>image/svg+xml</dc:format><dc:type
           rdf:resource="http://purl.org/dc/dcmitype/StillImage" /><dc:title></dc:title></cc:Work></rdf:RDF></metadata><defs
     id="defs73" /><sodipodi:namedview
     pagecolor="#ffffff"
     bordercolor="#666666"
     borderopacity="1"
     objecttolerance="10"
     gridtolerance="10"
     guidetolerance="10"
     inkscape:pageopacity="0"
     inkscape:pageshadow="2"
     inkscape:window-width="2736"
     inkscape:window-height="1699"
     id="namedview71"
     showgrid="false"
     fit-margin-top="0"
     fit-margin-left="0"
     fit-margin-right="0"
     fit-margin-bottom="0"
     inkscape:zoom="0.46093481"
     inkscape:cx="229.5065"
     inkscape:cy="256.0005"
     inkscape:window-x="-13"
     inkscape:window-y="-13"
     inkscape:window-maximized="1"
     inkscape:current-layer="Layer_1" /><polygon
     style="fill:#e6af78"
     points="176.558,361.939 256.002,432.556 335.446,361.939 335.446,300.15 176.558,300.15 "
     id="polygon2"
     transform="matrix(0.09765604,0,0,0.09765604,-2.587397,-9.3659711e-5)" /><path
     style="fill:#eff2fa;stroke-width:0.09765604"
     d="m 42.167,38.168086 -10.666872,-2.50986 c -0.161133,-0.0379 -0.309277,-0.10224 -0.447948,-0.18027 l -8.639533,5.03974 -8.302619,-5.28349 c -0.214941,0.20234 -0.481737,0.35273 -0.784764,0.42412 L 2.658393,38.168186 C 1.100779,38.534686 0,39.924526 0,41.524626 v 6.75135 c 0,0.95224 0.771873,1.72402 1.72402,1.72402 h 41.37706 c 0.952244,0 1.724019,-0.77187 1.724019,-1.72402 v -6.75135 c 1.96e-4,-1.60019 -1.100583,-2.99013 -2.658099,-3.35654 z"
     id="path4"
     inkscape:connector-curvature="0" /><path
     style="fill:#d29b6e;stroke-width:0.09765604"
     d="m 14.654558,29.311366 v 6.36649 c 9.773222,3.52119 15.516374,-5.29149 15.516374,-5.29149 v -1.0751 H 14.654558 Z"
     id="path6"
     inkscape:connector-curvature="0" /><path
     style="fill:#f0c087;stroke-width:0.09765604"
     d="m 11.206421,9.4849463 0.751171,16.5261397 c 0.07012,1.54384 0.827146,2.97558 2.063472,3.90282 l 3.56425,2.67324 c 0.895311,0.67138 1.984175,1.03447 3.103314,1.03447 h 3.448137 c 1.119138,0 2.208003,-0.36299 3.103313,-1.03447 l 3.564251,-2.67324 c 1.236325,-0.92734 1.993355,-2.35888 2.063472,-3.90282 l 0.75117,-16.5261397 c -9.8e-5,0 -22.41255,0 -22.41255,0 z"
     id="path8"
     inkscape:connector-curvature="0" /><path
     style="fill:#e6af78;stroke-width:0.09765604"
     d="m 19.826715,12.932986 c 3.448138,0 8.620197,-0.86201 9.846952,-3.4481397 H 11.206421 l 0.751171,16.5261397 c 0.07012,1.54384 0.827146,2.97548 2.063569,3.90282 l 3.564251,2.67324 c 0.89531,0.67138 1.984175,1.03447 3.103313,1.03447 h 1.72402 c -1.72402,0 -5.172157,-3.44814 -5.172157,-7.75819 0,-2.108 0,-7.75818 0,-10.34431 0,-0.86201 0.86201,-2.58603 2.586127,-2.58603 z"
     id="path10"
     inkscape:connector-curvature="0" /><g
     id="g16"
     transform="matrix(0.09765604,0,0,0.09765604,-2.587397,-9.3659711e-5)"><path
       style="fill:#e4eaf6"
       d="M 91.3,454.714 34.101,403.332 c -4.793,6.069 -7.603,13.706 -7.603,21.882 v 69.134 c 0,9.751 7.904,17.654 17.654,17.654 h 61.79 V 487.548 C 105.941,475.021 100.618,463.084 91.3,454.714 Z"
       id="path12"
       inkscape:connector-curvature="0" /><path
       style="fill:#e4eaf6"
       d="m 420.705,454.714 57.199,-51.382 c 4.793,6.069 7.603,13.706 7.603,21.882 v 69.134 c 0,9.751 -7.904,17.654 -17.654,17.654 h -61.79 v -24.454 c 0,-12.527 5.323,-24.464 14.642,-32.834 z"
       id="path14"
       inkscape:connector-curvature="0" /></g><polygon
     style="fill:#5b5d6e"
     points="272.553,432.556 278.07,512.001 233.934,512.001 239.451,432.556 "
     id="polygon18"
     transform="matrix(0.09765604,0,0,0.09765604,-2.587397,-9.3659711e-5)" /><path
     style="fill:#515262;stroke-width:0.09765604"
     d="m 24.567819,40.517596 h -4.310148 v 1.62236 c 0,0.53232 0.431445,0.96377 0.963768,0.96377 h 2.382514 c 0.532323,0 0.963768,-0.43145 0.963768,-0.96377 v -1.62236 z"
     id="path20"
     inkscape:connector-curvature="0" /><g
     id="g26"
     transform="matrix(0.09765604,0,0,0.09765604,-2.587397,-9.3659711e-5)"><path
       style="fill:#e4eaf6"
       d="m 175.319,342.287 80.684,72.615 c 0,0 -22.596,11.407 -50.48,34.398 -5.752,4.742 -14.453,2.821 -17.538,-3.966 L 150.078,361.94 162.07,343.953 c 2.984,-4.48 9.248,-5.266 13.249,-1.666 z"
       id="path22"
       inkscape:connector-curvature="0" /><path
       style="fill:#e4eaf6"
       d="m 336.686,342.287 -80.684,72.615 c 0,0 22.596,11.407 50.48,34.398 5.752,4.742 14.453,2.821 17.538,-3.966 l 37.907,-83.394 -11.992,-17.987 c -2.985,-4.48 -9.249,-5.266 -13.249,-1.666 z"
       id="path24"
       inkscape:connector-curvature="0" /></g><path
     style="fill:#785550;stroke-width:0.09765604"
     d="m 27.63871,3.7740163 0.808104,5.71093 c 3.688957,0.7377897 4.220597,6.5270397 4.297159,8.1805497 0.01387,0.3001 0.109668,0.58984 0.27246,0.84228 l 1.407517,2.1834 c 0,0 -0.481737,-3.60976 1.72402,-6.03417 9.7e-5,0 0.757517,-14.33111966 -8.50926,-10.8829897 z"
     id="path28"
     inkscape:connector-curvature="0" /><path
     style="fill:#f0c087;stroke-width:0.09765604"
     d="m 35.288596,20.323596 -0.973142,3.89267 c -0.115332,0.46142 -0.529784,0.78496 -1.005467,0.78496 v 0 c -0.522752,0 -0.963572,-0.38916 -1.028415,-0.90782 l -0.497753,-3.98143 c -0.133203,-1.06572 0.697654,-2.00693 1.771676,-2.00693 h 7.81e-4 c 1.161716,10e-5 2.014058,1.0916 1.73232,2.21855 z"
     id="path30"
     inkscape:connector-curvature="0" /><path
     style="fill:#694b4b;stroke-width:0.09765604"
     d="m 12.032591,2.2294963 1.274998,0.87099 C 7.542855,7.3567263 8.620294,14.657006 8.620294,14.657006 c 1.72402,1.72402 1.72402,6.03417 1.72402,6.03417 l 1.72402,-1.72402 c 0,0 -0.665331,-4.98027 2.586029,-6.89618 3.017084,-1.77793 5.657019,-0.86201 8.350861,-0.86201 7.219418,0 9.239824,-2.7207997 8.88963,-6.0341697 -0.18125,-1.71445 -2.802533,-5.28572996 -9.482207,-5.17214996 -2.695697,0.0458 -7.758089,0.86201 -10.380056,2.22684996 z"
     id="path32"
     inkscape:connector-curvature="0" /><path
     style="fill:#5a4146;stroke-width:0.09765604"
     d="m 11.529663,10.454666 c 0,0 -0.915916,-3.6097497 1.777926,-7.3540797 -5.764734,4.25624 -4.687295,11.5565197 -4.687295,11.5565197 1.72402,1.72402 1.72402,6.03416 1.72402,6.03416 l 1.72402,-1.72402 c 0,0 -0.665331,-4.98026 2.586029,-6.89617 3.017084,-1.77793 5.657019,-0.86201 8.350861,-0.86201 1.174119,0 2.197261,-0.0786 3.108587,-0.21338 -5.559753,0.18633 -8.837188,-4.0250897 -14.584148,-0.54102 z"
     id="path34"
     inkscape:connector-curvature="0" /><path
     style="fill:#e6af78;stroke-width:0.09765604"
     d="m 9.536894,20.323596 0.973142,3.89267 c 0.115332,0.46142 0.529784,0.78496 1.005467,0.78496 v 0 c 0.522752,0 0.963572,-0.38916 1.028415,-0.90782 l 0.497753,-3.98143 c 0.133203,-1.06572 -0.697654,-2.00693 -1.771676,-2.00693 h -7.81e-4 c -1.161716,10e-5 -2.014058,1.0916 -1.73232,2.21855 z"
     id="path36"
     inkscape:connector-curvature="0" /><path
     style="fill:#e4eaf6;stroke-width:0.09765604"
     d="m 33.619069,48.275776 h -6.034167 c -0.476073,0 -0.86201,0.38594 -0.86201,0.86201 v 0.86201 h 7.758187 v -0.86201 c 0,-0.47597 -0.386035,-0.86201 -0.86201,-0.86201 z"
     id="path38"
     inkscape:connector-curvature="0" /><g
     id="g40"
     transform="translate(-26.495,-462.002)" /><g
     id="g42"
     transform="translate(-26.495,-462.002)" /><g
     id="g44"
     transform="translate(-26.495,-462.002)" /><g
     id="g46"
     transform="translate(-26.495,-462.002)" /><g
     id="g48"
     transform="translate(-26.495,-462.002)" /><g
     id="g50"
     transform="translate(-26.495,-462.002)" /><g
     id="g52"
     transform="translate(-26.495,-462.002)" /><g
     id="g54"
     transform="translate(-26.495,-462.002)" /><g
     id="g56"
     transform="translate(-26.495,-462.002)" /><g
     id="g58"
     transform="translate(-26.495,-462.002)" /><g
     id="g60"
     transform="translate(-26.495,-462.002)" /><g
     id="g62"
     transform="translate(-26.495,-462.002)" /><g
     id="g64"
     transform="translate(-26.495,-462.002)" /><g
     id="g66"
     transform="translate(-26.495,-462.002)" /><g
     id="g68"
     transform="translate(-26.495,-462.002)" /></svg>