<?xml version="1.0" encoding="UTF-8" standalone="no"?>
<!-- Generator: Adobe Illustrator 19.0.0, SVG Export Plug-In . SVG Version: 6.00 Build 0)  -->

<svg
   xmlns:dc="http://purl.org/dc/elements/1.1/"
   xmlns:cc="http://creativecommons.org/ns#"
   xmlns:rdf="http://www.w3.org/1999/02/22-rdf-syntax-ns#"
   xmlns:svg="http://www.w3.org/2000/svg"
   xmlns="http://www.w3.org/2000/svg"
   xmlns:sodipodi="http://sodipodi.sourceforge.net/DTD/sodipodi-0.dtd"
   xmlns:inkscape="http://www.inkscape.org/namespaces/inkscape"
   version="1.1"
   id="Capa_1"
   x="0px"
   y="0px"
   viewBox="0 0 100 100"
   xml:space="preserve"
   sodipodi:docname="take_care.svg"
   width="100"
   height="100"
   inkscape:version="0.92.1 r15371"><metadata
     id="metadata50"><rdf:RDF><cc:Work
         rdf:about=""><dc:format>image/svg+xml</dc:format><dc:type
           rdf:resource="http://purl.org/dc/dcmitype/StillImage" /><dc:title></dc:title></cc:Work></rdf:RDF></metadata><defs
     id="defs48" /><sodipodi:namedview
     pagecolor="#ffffff"
     bordercolor="#666666"
     borderopacity="1"
     objecttolerance="10"
     gridtolerance="10"
     guidetolerance="10"
     inkscape:pageopacity="0"
     inkscape:pageshadow="2"
     inkscape:window-width="2736"
     inkscape:window-height="1699"
     id="namedview46"
     showgrid="false"
     fit-margin-top="0"
     fit-margin-left="0"
     fit-margin-right="0"
     fit-margin-bottom="0"
     inkscape:zoom="6.5030024"
     inkscape:cx="7.6562503"
     inkscape:cy="88.150175"
     inkscape:window-x="-13"
     inkscape:window-y="-13"
     inkscape:window-maximized="1"
     inkscape:current-layer="Capa_1" /><circle
     style="fill:#f5f5f5;fill-opacity:1;stroke:none;stroke-width:0.35375857;stroke-miterlimit:4;stroke-dasharray:none;stroke-opacity:1"
     id="path4528"
     cx="50"
     cy="50"
     r="50" /><g
     id="g15"
     transform="translate(-155.2925,-155.2925)" /><g
     id="g17"
     transform="translate(-155.2925,-155.2925)" /><g
     id="g19"
     transform="translate(-155.2925,-155.2925)" /><g
     id="g21"
     transform="translate(-155.2925,-155.2925)" /><g
     id="g23"
     transform="translate(-155.2925,-155.2925)" /><g
     id="g25"
     transform="translate(-155.2925,-155.2925)" /><g
     id="g27"
     transform="translate(-155.2925,-155.2925)" /><g
     id="g29"
     transform="translate(-155.2925,-155.2925)" /><g
     id="g31"
     transform="translate(-155.2925,-155.2925)" /><g
     id="g33"
     transform="translate(-155.2925,-155.2925)" /><g
     id="g35"
     transform="translate(-155.2925,-155.2925)" /><g
     id="g37"
     transform="translate(-155.2925,-155.2925)" /><g
     id="g39"
     transform="translate(-155.2925,-155.2925)" /><g
     id="g41"
     transform="translate(-155.2925,-155.2925)" /><g
     id="g43"
     transform="translate(-155.2925,-155.2925)" /><g
     id="g4597"
     transform="matrix(0.17142857,0,0,0.17142857,19.999974,20)"
     style="fill:#d43d21;fill-opacity:1"><g
       id="g4538"
       style="fill:#d43d21;fill-opacity:1"><path
         id="path4530"
         d="m 175,171.173 c 38.914,0 70.463,-38.318 70.463,-85.586 C 245.463,38.318 235.105,0 175,0 c -60.105,0 -70.465,38.318 -70.465,85.587 0,47.268 31.549,85.586 70.465,85.586 z"
         inkscape:connector-curvature="0"
         style="fill:#d43d21;fill-opacity:1" /><path
         id="path4532"
         d="m 41.909,301.853 c -0.012,-2.882 -0.024,-0.812 0,0 z"
         inkscape:connector-curvature="0"
         style="fill:#d43d21;fill-opacity:1" /><path
         id="path4534"
         d="m 308.085,304.104 c 0.038,-0.789 0.013,-5.474 0,0 z"
         inkscape:connector-curvature="0"
         style="fill:#d43d21;fill-opacity:1" /><path
         id="path4536"
         d="M 307.935,298.397 C 306.63,216.055 295.876,192.592 213.583,177.74 c 0,0 -11.584,14.761 -38.584,14.761 -27,0 -38.586,-14.761 -38.586,-14.761 -81.395,14.69 -92.803,37.805 -94.303,117.982 -0.123,6.547 -0.18,6.891 -0.202,6.131 0.005,1.424 0.011,4.058 0.011,8.651 0,0 19.592,39.496 133.08,39.496 113.486,0 133.08,-39.496 133.08,-39.496 0,-2.951 0.002,-5.003 0.005,-6.399 -0.022,0.47 -0.066,-0.441 -0.149,-5.708 z"
         inkscape:connector-curvature="0"
         style="fill:#d43d21;fill-opacity:1" /></g><g
       id="g4540"
       style="fill:#d43d21;fill-opacity:1" /><g
       id="g4542"
       style="fill:#d43d21;fill-opacity:1" /><g
       id="g4544"
       style="fill:#d43d21;fill-opacity:1" /><g
       id="g4546"
       style="fill:#d43d21;fill-opacity:1" /><g
       id="g4548"
       style="fill:#d43d21;fill-opacity:1" /><g
       id="g4550"
       style="fill:#d43d21;fill-opacity:1" /><g
       id="g4552"
       style="fill:#d43d21;fill-opacity:1" /><g
       id="g4554"
       style="fill:#d43d21;fill-opacity:1" /><g
       id="g4556"
       style="fill:#d43d21;fill-opacity:1" /><g
       id="g4558"
       style="fill:#d43d21;fill-opacity:1" /><g
       id="g4560"
       style="fill:#d43d21;fill-opacity:1" /><g
       id="g4562"
       style="fill:#d43d21;fill-opacity:1" /><g
       id="g4564"
       style="fill:#d43d21;fill-opacity:1" /><g
       id="g4566"
       style="fill:#d43d21;fill-opacity:1" /><g
       id="g4568"
       style="fill:#d43d21;fill-opacity:1" /></g></svg>