<?xml version="1.0" encoding="UTF-8" standalone="no"?>
<!-- Generator: Adobe Illustrator 18.1.1, SVG Export Plug-In . SVG Version: 6.00 Build 0)  -->

<svg
   xmlns:dc="http://purl.org/dc/elements/1.1/"
   xmlns:cc="http://creativecommons.org/ns#"
   xmlns:rdf="http://www.w3.org/1999/02/22-rdf-syntax-ns#"
   xmlns:svg="http://www.w3.org/2000/svg"
   xmlns="http://www.w3.org/2000/svg"
   xmlns:sodipodi="http://sodipodi.sourceforge.net/DTD/sodipodi-0.dtd"
   xmlns:inkscape="http://www.inkscape.org/namespaces/inkscape"
   version="1.1"
   id="Capa_1"
   x="0px"
   y="0px"
   viewBox="0 0 25.647545 40"
   xml:space="preserve"
   inkscape:version="0.91 r13725"
   sodipodi:docname="location-pointer.svg"
   width="25.647545"
   height="40"><metadata
     id="metadata43"><rdf:RDF><cc:Work
         rdf:about=""><dc:format>image/svg+xml</dc:format><dc:type
           rdf:resource="http://purl.org/dc/dcmitype/StillImage" /><dc:title></dc:title></cc:Work></rdf:RDF></metadata><defs
     id="defs41" /><sodipodi:namedview
     pagecolor="#ffffff"
     bordercolor="#666666"
     borderopacity="1"
     objecttolerance="10"
     gridtolerance="10"
     guidetolerance="10"
     inkscape:pageopacity="0"
     inkscape:pageshadow="2"
     inkscape:window-width="640"
     inkscape:window-height="480"
     id="namedview39"
     showgrid="true"
     inkscape:zoom="12.688811"
     inkscape:cx="-3.304439"
     inkscape:cy="26.078335"
     inkscape:current-layer="Capa_1"
     fit-margin-top="0"
     fit-margin-left="0"
     fit-margin-right="0"
     fit-margin-bottom="0" /><g
     id="g3"
     style="fill:#1c73b6;fill-opacity:1;stroke:#666666;stroke-width:2;stroke-miterlimit:4;stroke-dasharray:none;stroke-opacity:1"
     transform="matrix(0.49322201,0,0,0.48427888,-6.9051081,0.48427888)"><g
       id="g5"
       style="fill:#1c73b6;fill-opacity:1;stroke:#666666;stroke-width:2;stroke-miterlimit:4;stroke-dasharray:none;stroke-opacity:1"><path
         style="fill:#1c73b6;fill-opacity:1;stroke:#666666;stroke-width:2;stroke-miterlimit:4;stroke-dasharray:none;stroke-opacity:1"
         d="M 40,0 C 26.191,0 15,11.194 15,25 15,48.87 40,80 40,80 40,80 65,48.87 65,25 65,11.194 53.807,0 40,0 Z m 0,38.8 c -7.457,0 -13.5,-6.044 -13.5,-13.5 0,-7.456 6.043,-13.5 13.5,-13.5 7.455,0 13.5,6.044 13.5,13.5 0,7.456 -6.045,13.5 -13.5,13.5 z"
         id="path7"
         inkscape:connector-curvature="0" /></g></g><g
     id="g9"
     transform="translate(-13.989617,-41.496454)" /><g
     id="g11"
     transform="translate(-13.989617,-41.496454)" /><g
     id="g13"
     transform="translate(-13.989617,-41.496454)" /><g
     id="g15"
     transform="translate(-13.989617,-41.496454)" /><g
     id="g17"
     transform="translate(-13.989617,-41.496454)" /><g
     id="g19"
     transform="translate(-13.989617,-41.496454)" /><g
     id="g21"
     transform="translate(-13.989617,-41.496454)" /><g
     id="g23"
     transform="translate(-13.989617,-41.496454)" /><g
     id="g25"
     transform="translate(-13.989617,-41.496454)" /><g
     id="g27"
     transform="translate(-13.989617,-41.496454)" /><g
     id="g29"
     transform="translate(-13.989617,-41.496454)" /><g
     id="g31"
     transform="translate(-13.989617,-41.496454)" /><g
     id="g33"
     transform="translate(-13.989617,-41.496454)" /><g
     id="g35"
     transform="translate(-13.989617,-41.496454)" /><g
     id="g37"
     transform="translate(-13.989617,-41.496454)" /></svg>